<svg width="63" height="62" viewBox="0 0 63 62" fill="none" xmlns="http://www.w3.org/2000/svg">
<path d="M31.0886 1.60535e-06C24.9414 -0.00197125 18.9317 1.81447 13.8195 5.21959C8.70738 8.62472 4.7224 13.4656 2.3686 19.1299C0.0148035 24.7942 -0.602083 31.0276 0.595962 37.0417C1.79401 43.0557 4.75317 48.5803 9.09919 52.9168C13.4452 57.2532 18.9829 60.2066 25.0118 61.4036C31.0407 62.6005 37.2901 61.9872 42.9696 59.6412C48.649 57.2952 53.5034 53.3218 56.9188 48.2237C60.3342 43.1256 62.1572 37.1316 62.1572 31V31C62.1585 26.9295 61.3559 22.8986 59.7951 19.1376C58.2344 15.3765 55.9461 11.959 53.061 9.08029C50.1759 6.20155 46.7504 3.91795 42.9804 2.35993C39.2103 0.801912 35.1694 1.39452e-06 31.0886 1.60535e-06V1.60535e-06ZM31.0886 1.47619C35.1368 1.47144 39.1426 2.29786 42.8568 3.904C46.5709 5.51014 49.9139 7.86162 52.6776 10.8121C52.473 10.8521 52.2659 10.8788 52.0577 10.8919C51.8506 10.9116 51.6549 10.9953 51.4977 11.1313C51.2947 11.289 51.0808 11.4323 50.8577 11.5602C50.4677 11.7896 50.0678 11.999 49.6978 12.2584C49.5707 12.3976 49.4661 12.5558 49.3878 12.7272C49.3447 12.7985 49.2868 12.8597 49.2178 12.9067L47.6079 13.5351C47.0512 13.7491 46.4753 13.9094 45.888 14.0138C45.19 14.1702 44.517 14.4219 43.888 14.7619C43.6322 14.8944 43.3684 15.011 43.0981 15.111C42.8202 15.2336 42.574 15.4178 42.3781 15.6496C42.1458 15.8628 41.8741 16.0288 41.5781 16.1384C41.1482 16.2979 40.6782 16.3877 40.2382 16.5174C39.9601 16.5921 39.6864 16.682 39.4182 16.7867C39.2178 16.8759 39.024 16.9792 38.8383 17.0959C38.7194 17.1782 38.5781 17.2224 38.4333 17.2224C38.2885 17.2224 38.1472 17.1782 38.0283 17.0959C37.6086 16.8807 37.1232 16.8309 36.6684 16.9562C36.1212 17.0172 35.6035 17.2355 35.1784 17.5846L33.6985 17.9537C33.6507 17.9523 33.6049 17.9347 33.5685 17.9038C33.7495 17.6263 34.0112 17.4105 34.3185 17.2854C34.362 17.2882 34.4049 17.2743 34.4384 17.2465C34.4719 17.2186 34.4934 17.179 34.4985 17.1358C34.5033 17.1128 34.5033 17.089 34.4985 17.066C34.4985 17.066 34.4985 16.9862 34.4985 16.9463C34.4606 16.7612 34.4762 16.5692 34.5435 16.3926C34.6108 16.216 34.7269 16.0621 34.8784 15.9488C35.2584 15.5898 35.2584 15.5698 34.8784 15.2407C34.9968 15.229 35.1081 15.1787 35.1949 15.0976C35.2817 15.0164 35.3392 14.9089 35.3584 14.7918C35.388 14.7015 35.3874 14.6041 35.3568 14.5142C35.3261 14.4243 35.2671 14.3467 35.1884 14.2931C35.1108 14.2388 35.0372 14.1788 34.9684 14.1136C34.9427 14.1 34.9199 14.0814 34.9014 14.0589C34.8829 14.0365 34.8691 14.0106 34.8607 13.9827C34.8524 13.9549 34.8496 13.9257 34.8526 13.8968C34.8557 13.8679 34.8645 13.8398 34.8784 13.8143V13.8143C35.0684 13.3156 35.0284 13.2558 34.4585 13.0763L34.5785 13.0264C34.679 12.9943 34.7628 12.9239 34.8115 12.8305C34.8602 12.737 34.8699 12.6282 34.8385 12.5277V12.4578C34.8324 12.4144 34.8176 12.3726 34.7951 12.3349C34.7726 12.2973 34.7428 12.2645 34.7074 12.2384C34.672 12.2124 34.6317 12.1937 34.589 12.1834C34.5462 12.1732 34.5019 12.1715 34.4585 12.1786V12.1786C34.0285 12.1786 34.0385 12.1786 33.8885 11.7995C33.8264 11.6385 33.731 11.4924 33.6085 11.3707C33.3199 11.0809 33.0089 10.8141 32.6785 10.5727C32.4091 10.3707 32.0745 10.2748 31.7386 10.3034C31.2282 10.4046 30.7046 10.4215 30.1887 10.3533C29.9248 10.3205 29.6571 10.3656 29.4187 10.4829C29.0478 10.6073 28.7072 10.8077 28.4187 11.0714L28.3087 11.1512C28.1199 11.1875 27.9511 11.292 27.8348 11.4448C27.7186 11.5976 27.663 11.7879 27.6788 11.9791C27.5298 11.98 27.3829 12.014 27.2488 12.0788C27.0771 12.1722 26.9474 12.3272 26.8861 12.5125C26.8249 12.6977 26.8365 12.8993 26.9188 13.0763C26.7861 13.0969 26.6647 13.1629 26.5753 13.263C26.4859 13.3631 26.4342 13.4909 26.4288 13.6248C26.3988 13.7533 26.4033 13.8873 26.4419 14.0134C26.4806 14.1396 26.5519 14.2532 26.6488 14.343C26.4572 14.558 26.3475 14.8334 26.3388 15.121C26.3312 15.2595 26.369 15.3968 26.4466 15.512C26.5242 15.6272 26.6373 15.714 26.7688 15.7593C26.7088 15.9688 26.5688 16.1683 26.7688 16.3378C26.7883 16.3858 26.7883 16.4395 26.7688 16.4874C26.6988 16.8365 26.7688 16.9064 27.0688 16.9463L27.2588 17.0161L27.1788 17.3752C26.5388 17.2555 25.9089 17.0959 25.2689 17.0261C24.837 16.9763 24.4008 16.9763 23.9689 17.0261C23.8122 17.0783 23.6467 17.099 23.482 17.087C23.3172 17.075 23.1564 17.0306 23.009 16.9562C22.2506 16.5246 21.441 16.1896 20.5991 15.9588C20.3291 15.879 20.0591 15.7992 19.7891 15.6995C19.6799 15.6579 19.581 15.5933 19.4991 15.51C18.9187 14.9827 18.2388 14.5758 17.4992 14.3131L16.7693 13.9939C16.2787 13.7508 15.7371 13.6277 15.1893 13.6348C14.6671 13.6414 14.1538 13.4996 13.7094 13.2259C13.3494 13.0164 12.9494 12.8967 12.5794 12.7272C12.4411 12.6604 12.3184 12.5652 12.2195 12.4479C12.0554 12.2161 11.9083 11.9727 11.7795 11.7198C11.7225 11.6105 11.6417 11.5152 11.5431 11.441C11.4445 11.3669 11.3305 11.3155 11.2095 11.2909C11.1342 11.2729 11.0651 11.235 11.0095 11.1811L10.4195 10.5827C10.3655 10.5164 10.2929 10.4676 10.211 10.4427C10.129 10.4179 10.0415 10.418 9.95957 10.443C9.87744 10.4677 9.79397 10.4877 9.70958 10.5029C12.4661 7.64343 15.774 5.36967 19.4343 3.81841C23.0946 2.26715 27.0316 1.47043 31.0086 1.47619H31.0886ZM26.0088 53.5917L26.3188 54.2799C26.5114 54.7323 26.6555 55.2037 26.7488 55.6863C26.8773 56.1327 27.0377 56.5694 27.2288 56.9929C27.3588 57.2921 27.5888 57.5515 27.7388 57.8407C27.8112 58.005 27.8552 58.1804 27.8688 58.3594C27.9369 58.8851 27.8608 59.4194 27.6488 59.9054C27.6294 60.0176 27.6294 60.1323 27.6488 60.2445C27.6535 60.2642 27.6535 60.2847 27.6488 60.3044C23.9984 59.8933 20.4575 58.804 17.2092 57.0927C17.2932 57.0755 17.3713 57.0372 17.436 56.9813C17.5008 56.9254 17.5501 56.8538 17.5792 56.7735C17.7374 56.4231 17.8516 56.0546 17.9192 55.6763C17.997 55.0693 18.2428 54.4959 18.6292 54.0206C19.0892 53.482 19.5591 52.9434 19.9691 52.3549C20.3791 51.7664 20.6491 51.2278 20.9691 50.6593L21.2591 50.1506C21.5858 49.5378 21.8376 48.8882 22.009 48.2156C22.119 47.8197 22.2594 47.4329 22.429 47.0585C22.6935 46.5791 23.0753 46.1742 23.539 45.8816C24.0261 45.602 24.3848 45.144 24.5389 44.6049C24.558 44.5469 24.5969 44.4974 24.6489 44.4652C25.3402 43.9272 25.8213 43.1651 26.0088 42.3108C26.0088 42.231 26.0588 42.1612 26.0788 42.0814V42.0215C26.2788 43.1287 26.4788 44.2159 26.6788 45.3031V45.4527C26.4809 46.3074 26.367 47.1792 26.3388 48.056C26.3104 48.4256 26.2261 48.7887 26.0888 49.1332C25.9466 49.5969 25.8593 50.0756 25.8289 50.5595C25.673 51.5715 25.7343 52.6051 26.0088 53.5917V53.5917ZM29.0087 48.445C29.1084 48.2431 29.1791 48.0282 29.2187 47.8066C29.2787 47.5672 29.3487 47.3378 29.4087 47.0984C29.4687 46.8591 29.5687 46.4601 29.6387 46.101C29.6329 46.0546 29.6329 46.0077 29.6387 45.9614C29.915 45.3344 29.9885 44.6371 29.8487 43.9665C29.8487 43.6075 29.7787 43.2384 29.7387 42.8793C29.7333 42.8329 29.7333 42.7861 29.7387 42.7397C29.8587 42.3806 29.9887 42.0215 30.1187 41.6425C30.1887 42.5602 30.2887 43.4578 30.3187 44.3555C30.3119 44.8295 30.2751 45.3025 30.2087 45.7719C30.2032 45.8349 30.2032 45.8983 30.2087 45.9614C30.2891 47.1269 30.1879 48.2978 29.9087 49.4324C29.7265 50.4188 29.6694 51.4241 29.7387 52.4247C29.7951 53.0669 29.9895 53.6894 30.3087 54.25C30.3339 54.338 30.3339 54.4313 30.3087 54.5193C30.2586 55.5844 30.3905 56.6502 30.6986 57.6712C30.8286 58.1798 30.9686 58.6686 31.0986 59.2072C31.1236 59.3088 31.1236 59.4148 31.0986 59.5164C31.0386 59.7857 30.9486 60.055 30.8686 60.3642C30.7658 60.3346 30.6704 60.2836 30.5886 60.2146C30.3409 59.9577 30.18 59.6298 30.1287 59.277C30.1219 59.0764 30.0848 58.8781 30.0187 58.6885C29.9514 58.5615 29.8673 58.4441 29.7687 58.3394C29.7061 58.2626 29.6524 58.1789 29.6087 58.0901C29.316 57.1992 29.1807 56.2643 29.2087 55.3272C29.2309 55.0091 29.1866 54.6898 29.0787 54.3896C28.9903 54.2256 28.944 54.0422 28.944 53.856C28.944 53.6698 28.9903 53.4864 29.0787 53.3224C29.0866 53.2862 29.0866 53.2488 29.0787 53.2127C29.1956 52.4334 29.1718 51.6396 29.0087 50.8687C28.9984 50.7459 28.9984 50.6225 29.0087 50.4997C29.0087 50.3501 29.0087 50.2104 28.9387 50.0608C28.8491 49.8194 28.8491 49.5541 28.9387 49.3127C28.964 49.2452 28.964 49.1708 28.9387 49.1033C28.8957 48.9962 28.8797 48.8802 28.8918 48.7655C28.904 48.6507 28.9442 48.5407 29.0087 48.445V48.445ZM35.7684 60.1348C35.6045 60.082 35.4442 60.0187 35.2884 59.9453C34.7945 59.785 34.3525 59.4957 34.0085 59.1074C33.7443 58.7866 33.5532 58.4122 33.4485 58.0103C33.2292 57.2556 33.128 56.4717 33.1485 55.6863C33.1485 54.8085 33.1485 53.9308 33.1485 53.063C33.1485 52.4546 33.0385 51.8562 33.0285 51.2577C32.9677 50.3604 33.0797 49.4598 33.3585 48.6046C33.4369 48.3552 33.5408 48.1146 33.6685 47.8864C33.7911 47.6466 33.8365 47.3749 33.7985 47.1084C33.6862 46.5157 33.7101 45.9052 33.8685 45.323C34.0785 44.7545 34.2785 44.186 34.4785 43.6174C34.4785 43.4778 34.5485 43.3182 34.5985 43.1387C34.9297 43.3495 35.1689 43.6772 35.2684 44.0563C35.4232 44.7231 35.6724 45.3646 36.0084 45.9614C36.4504 46.8302 36.7668 47.757 36.9484 48.7143C37.1083 49.2429 37.2483 49.7815 37.4583 50.2902C37.6056 50.6052 37.7975 50.8975 38.0283 51.158C38.2283 51.4173 38.4883 51.6268 38.7083 51.8661C38.7674 51.931 38.8088 52.01 38.8283 52.0955C38.9183 52.315 38.9883 52.5344 39.0683 52.7638C39.283 53.2788 39.5877 53.7516 39.9682 54.1602C40.58 54.8121 41.1197 55.5277 41.5781 56.2947C41.6973 56.6179 41.7844 56.952 41.8381 57.2921C41.8381 57.4517 41.8981 57.6113 41.9281 57.7809C41.9499 57.9839 42.0337 58.1754 42.1681 58.3295C40.1155 59.166 37.9757 59.7715 35.7884 60.1348H35.7684ZM1.45995 31C1.44929 24.1104 3.86274 17.4355 8.27964 12.1387V12.1387C8.19881 12.2254 8.15389 12.3394 8.15389 12.4578C8.15389 12.5763 8.19881 12.6903 8.27964 12.777C8.31303 12.8124 8.35407 12.8397 8.39964 12.8568C8.77962 13.1162 9.1996 13.3256 9.59958 13.565C9.79112 13.653 9.96947 13.7672 10.1296 13.9041C10.3015 14.1015 10.5133 14.2604 10.7511 14.3704C10.9889 14.4805 11.2474 14.5391 11.5095 14.5425C11.5676 14.5527 11.6225 14.5766 11.6695 14.6123C12.2515 15.0718 12.9386 15.3802 13.6694 15.51C13.9565 15.6052 14.2192 15.7618 14.4394 15.9688C15.2043 16.6169 16.1125 17.075 17.0892 17.3053C17.1982 17.3348 17.3002 17.3857 17.3892 17.455C17.8157 17.7213 18.2984 17.8852 18.7992 17.9337C18.9805 17.9603 19.1583 18.0071 19.3291 18.0734C19.9691 18.3127 20.5891 18.5621 21.2191 18.8214C21.386 18.8975 21.5383 19.0021 21.669 19.1306C21.1495 19.072 20.6234 19.13 20.1291 19.3002C19.6469 19.464 19.1313 19.5051 18.6292 19.4199C18.4907 19.3999 18.3559 19.3595 18.2292 19.3002C17.7497 19.04 17.2019 18.9322 16.6593 18.991H14.8493C14.5794 18.991 14.2994 18.991 14.0294 18.991C13.3564 19.0445 12.6798 19.0312 12.0095 18.9511C11.7112 18.9337 11.4142 18.9005 11.1195 18.8513C10.7795 18.7716 10.4695 18.582 10.1196 18.4723C9.70856 18.2914 9.27953 18.1543 8.83962 18.0634C8.34423 18.0135 7.84507 18.0135 7.34968 18.0634C7.27265 18.0937 7.20887 18.1502 7.16969 18.223C7.24344 18.3623 7.34166 18.4873 7.45968 18.592C7.55865 18.6122 7.66069 18.6122 7.75967 18.592L8.14965 18.6718C8.10191 18.7483 8.02776 18.8047 7.94118 18.8305C7.85461 18.8562 7.76159 18.8494 7.67967 18.8115C7.23281 18.739 6.77452 18.8198 6.37973 19.0409C6.31924 19.1099 6.28591 19.1985 6.28591 19.2902C6.28591 19.3819 6.31924 19.4705 6.37973 19.5396L6.48972 19.6293C6.42027 19.7408 6.37908 19.8675 6.36973 19.9984C6.49181 20.1302 6.64726 20.2266 6.81971 20.2777C6.9897 20.2777 7.17969 20.2777 7.36968 20.2777C7.32562 20.2932 7.28491 20.3169 7.24969 20.3475C7.16122 20.4208 7.09536 20.5177 7.0597 20.6268C7.06967 20.6992 7.10772 20.7648 7.16568 20.8096C7.22364 20.8544 7.29688 20.8747 7.36968 20.8661H8.19965C8.54342 20.8478 8.88653 20.9128 9.1996 21.0557C9.47211 21.1921 9.76977 21.2714 10.0742 21.2885C10.3786 21.3057 10.6833 21.2604 10.9695 21.1554C11.2335 21.1017 11.5056 21.1017 11.7695 21.1554C12.1446 21.1634 12.5188 21.1967 12.8894 21.2551C13.1668 21.3164 13.4406 21.393 13.7094 21.4846C14.6855 21.7505 15.7018 21.8384 16.7093 21.7439C16.875 21.7189 17.0435 21.7189 17.2092 21.7439C17.5984 21.8444 18.01 21.8128 18.3792 21.6541C18.6966 21.5284 19.043 21.4939 19.3791 21.5544C20.3091 21.6641 21.2491 21.7638 22.169 21.9334C22.7133 22.0313 23.2683 22.0548 23.8189 22.0032C24.2586 21.9746 24.6933 22.1096 25.0389 22.3822C25.0995 22.4339 25.1474 22.4987 25.1789 22.5717C25.3989 23.0006 25.6189 23.4295 25.8089 23.8684C25.9143 24.1227 25.9947 24.3866 26.0488 24.6564C26.2388 25.3645 26.3888 26.0827 26.5888 26.7909C26.6888 27.1599 26.8588 27.509 26.9888 27.8781C27.0094 27.9935 27.0094 28.1117 26.9888 28.2271C26.8788 28.7558 26.7488 29.2944 26.6688 29.833C26.6327 30.1642 26.6161 30.4973 26.6188 30.8304C26.6122 30.9047 26.5882 30.9765 26.5488 31.0399C26.1885 31.5615 25.9998 32.1819 26.0088 32.8153C26.0192 32.8814 26.0192 32.9487 26.0088 33.0148C25.8881 33.3407 25.7879 33.6738 25.7089 34.0122C25.6787 34.1931 25.5991 34.3622 25.4789 34.501C25.1195 35.0025 24.7858 35.5218 24.4789 36.0569C24.2166 36.5657 24.0088 37.1006 23.8589 37.6528C23.7589 38.0451 23.649 38.4341 23.529 38.8198C23.399 39.2886 23.219 39.7474 23.109 40.2262C22.999 40.7049 22.889 41.4031 22.759 41.9916L22.569 42.4205L21.569 43.777C21.2091 44.2558 20.8291 44.7744 20.4691 45.2133C20.1091 45.6522 19.7291 46.2107 19.3891 46.7593C19.0492 47.3079 18.8892 47.5473 18.6492 47.9562C18.3975 48.4101 18.1834 48.8838 18.0092 49.3726C17.7592 50.1306 17.5592 50.9086 17.2992 51.6567C17.1306 52.1557 16.9199 52.6395 16.6693 53.1029C16.4562 53.4343 16.2081 53.742 15.9293 54.0206C15.8439 54.0874 15.7379 54.1226 15.6293 54.1203C14.5204 54.1599 13.4158 53.9626 12.3895 53.5418C12.2314 53.4738 12.0674 53.4203 11.8995 53.3822H11.8095C8.56545 50.619 5.9604 47.1872 4.17372 43.3233C2.38704 39.4594 1.4612 35.2551 1.45995 31V31ZM48.3178 54.9382C48.2772 54.9071 48.2299 54.8855 48.1797 54.8751C48.1295 54.8648 48.0776 54.8659 48.0279 54.8784C47.8286 54.917 47.6341 54.9772 47.4479 55.0579C46.4037 55.4549 45.2955 55.6577 44.178 55.6564C44.0738 55.6456 43.9729 55.6135 43.8817 55.562C43.7905 55.5105 43.7109 55.4408 43.6481 55.3571C43.2368 54.9379 42.9288 54.4291 42.7481 53.871C42.4381 53.063 42.1481 52.2352 41.8981 51.4073C41.6157 50.4105 41.2407 49.4422 40.7782 48.5148C40.5682 48.1557 40.3382 47.7966 40.0882 47.4475C39.8796 47.126 39.6893 46.793 39.5182 46.4501C39.1783 45.7419 39.1983 44.944 38.8583 44.2458C38.7083 43.9466 38.5383 43.6474 38.4183 43.3381C38.1758 42.734 38.0798 42.0812 38.1383 41.4331C38.1285 41.0616 38.0575 40.6943 37.9283 40.3459C37.7368 39.8757 37.5798 39.3924 37.4583 38.8996C37.2796 38.1633 37.0074 37.4527 36.6484 36.7851C36.5484 36.5058 36.2784 36.2963 36.1584 36.017C35.8432 35.4349 35.6269 34.8046 35.5184 34.1519C35.4884 33.3939 35.2497 32.6589 34.8285 32.0273C34.6863 31.5244 34.7108 30.9891 34.8984 30.5013C34.9799 30.3476 35.0224 30.1764 35.0224 30.0026C35.0224 29.8287 34.9799 29.6575 34.8984 29.5039C34.7781 29.3683 34.7076 29.1959 34.6985 29.0151C34.6985 28.8156 34.6385 28.6161 34.6285 28.4067C34.5955 28.04 34.6503 27.6708 34.7885 27.3295C35.0284 26.731 35.1284 26.0727 35.3284 25.4543C35.5399 24.4429 35.9076 23.4705 36.4184 22.5717C36.517 22.3976 36.6636 22.2552 36.8408 22.1615C37.018 22.0679 37.2184 22.0268 37.4183 22.0431L38.6683 22.1628C39.0048 22.2084 39.3474 22.1743 39.6682 22.0631C39.9907 21.9562 40.3284 21.9023 40.6682 21.9035C41.3577 21.8686 42.0486 21.8686 42.7381 21.9035C43.0124 21.9223 43.2806 21.9934 43.5281 22.1129C44.2161 22.3746 44.9612 22.4503 45.688 22.3324C46.3024 22.242 46.9103 22.1121 47.5079 21.9434C48.4113 21.7307 49.342 21.6567 50.2678 21.7239C50.6177 21.7239 50.9677 21.7239 51.3177 21.7239C52.0877 21.7239 52.8576 21.6441 53.6176 21.5843C53.898 21.5567 54.1736 21.493 54.4376 21.3948C54.4914 21.3608 54.5371 21.3155 54.5716 21.2621C54.6062 21.2087 54.6287 21.1485 54.6376 21.0856C54.5863 21.0052 54.5085 20.9453 54.4176 20.916C54.1676 20.916 53.9076 20.8661 53.6476 20.8063C53.842 20.7935 54.0357 20.7702 54.2276 20.7365C54.4558 20.6859 54.6773 20.6089 54.8876 20.5071C54.9899 20.4156 55.0659 20.2985 55.1075 20.1679C55.2079 20.1486 55.2965 20.0907 55.3545 20.0067C55.4125 19.9228 55.4351 19.8195 55.4175 19.7191C55.4175 19.7191 55.4175 19.7191 55.4175 19.6593C55.4175 19.3301 55.0475 19.5994 54.9076 19.4299C55.0575 19.1007 55.0575 19.0608 54.7176 18.9012C54.2332 18.7177 53.7086 18.6661 53.1976 18.7516C52.8056 18.7914 52.4118 18.8114 52.0177 18.8115C51.6563 18.8031 51.3031 18.9193 51.0177 19.1406C50.6706 19.4204 50.2338 19.5657 49.7878 19.5495L46.0079 19.2802C44.9995 19.2149 43.987 19.3092 43.0081 19.5595C42.9361 19.5795 42.8601 19.5795 42.7881 19.5595C42.1139 19.3388 41.4077 19.231 40.6982 19.2403C40.9582 19.0808 41.2182 18.9112 41.4882 18.7716C41.7581 18.6319 42.3081 18.3826 42.7181 18.203C42.7859 18.165 42.8607 18.1413 42.9381 18.1332C43.3681 18.1332 43.788 18.0434 44.208 17.9636C44.5285 17.8606 44.8369 17.7235 45.128 17.5547C45.548 17.3552 45.978 17.1457 46.3879 16.9163C46.9579 16.5972 47.5179 16.2481 48.0879 15.9189C48.6578 15.5898 49.1978 15.3703 49.7578 15.0911C49.8095 15.0745 49.8572 15.0473 49.8978 15.0113C49.9968 14.9015 50.119 14.815 50.2557 14.7581C50.3923 14.7012 50.5398 14.6752 50.6877 14.6821C51.0822 14.6802 51.4597 14.5224 51.7377 14.2432C52.037 14.0205 52.3548 13.8236 52.6876 13.6548C52.9711 13.4524 53.2417 13.2325 53.4976 12.9965C53.5532 12.9388 53.5843 12.862 53.5843 12.782C53.5843 12.702 53.5532 12.6252 53.4976 12.5676C53.4091 12.4772 53.3081 12.4 53.1976 12.3382L53.7176 12.1088C56.324 15.2246 58.258 18.8433 59.3986 22.7385C60.5393 26.6338 60.8621 30.7219 60.3468 34.7472C59.8316 38.7726 58.4894 42.6486 56.4042 46.133C54.3189 49.6175 51.5355 52.6354 48.2279 54.9981L48.3178 54.9382Z" fill="#C8C8C8"/>
</svg>
