<svg width="155" height="34" viewBox="0 0 155 34" fill="none" xmlns="http://www.w3.org/2000/svg">
<path d="M154 0V34H0V0H154Z" fill="#FFCB01"/>
<path d="M27.1933 6.07397L22.2529 12.7267H49.1788C50.54 12.7267 50.522 13.2392 49.8569 14.1324C49.1814 15.0393 48.0507 16.6161 47.3625 17.5368C47.0133 18.0044 46.382 18.8558 48.4742 18.8558H59.4853C59.4853 18.8558 61.2601 16.4621 62.7477 14.4609C64.7719 11.7388 62.9232 6.07397 55.6876 6.07397H27.1933Z" fill="#D83221"/>
<path d="M20.2539 27.7476L30.1771 14.3838C30.1771 14.3838 41.1777 14.3839 42.4914 14.3839C43.8524 14.3839 43.8346 14.8965 43.1694 15.7897C42.4939 16.6967 41.3445 18.2567 40.6564 19.1778C40.3071 19.6451 39.6758 20.4981 41.7678 20.4981H58.2648C56.893 22.3609 52.4427 27.7476 44.4516 27.7476H20.2539Z" fill="#D83221"/>
<path d="M77.0849 20.4963L71.7038 27.7474H57.5088C57.5088 27.7474 62.887 20.4979 62.8918 20.4979L77.0849 20.4963Z" fill="#D83221"/>
<path d="M98.8315 18.8559H64.1113L73.6058 6.07397H87.7965L82.3547 13.4034H88.6893L94.1333 6.07397H108.323L98.8315 18.8559Z" fill="#D83221"/>
<path d="M97.6126 20.498L92.2289 27.7476H78.0391C78.0391 27.7476 83.4175 20.498 83.4223 20.498H97.6126Z" fill="#D83221"/>
<path d="M0 23.3567H20.9113L19.7687 24.8971H0V23.3567Z" fill="#D83221"/>
<path d="M0 20.498H23.0358L21.8913 22.0363H0V20.498Z" fill="#D83221"/>
<path d="M0 26.2173H18.7878L17.651 27.7477H0V26.2173Z" fill="#D83221"/>
<path d="M154.635 24.8971H133.803L134.946 23.3567H154.635V24.8971Z" fill="#D83221"/>
<path d="M154.635 27.7477L131.686 27.7496L132.822 26.2173H154.635V27.7477Z" fill="#D83221"/>
<path d="M137.068 20.498H154.635V22.0371L135.927 22.0382L137.068 20.498Z" fill="#D83221"/>
<path d="M127.975 6.07397L118.482 18.8558H103.446C103.446 18.8558 112.941 6.07397 112.945 6.07397H127.975Z" fill="#D83221"/>
<path d="M102.228 20.498C102.228 20.498 101.191 21.9031 100.687 22.5784C98.9045 24.9658 100.48 27.7476 106.297 27.7476H129.087L134.47 20.498H102.228Z" fill="#D83221"/>
</svg>
