<svg width="113" height="34" viewBox="0 0 113 34" fill="none" xmlns="http://www.w3.org/2000/svg">
<path d="M35.078 33.6111L35.9484 29.9791H30.0574L33.8249 33.6111H35.078ZM36.4711 27.8159L37.3415 24.179H24.0456L27.813 27.8159H36.4711ZM37.8612 22.0158L38.7356 18.3829H18.0347L21.8011 22.0158H37.8612ZM39.2542 16.2207L40.1286 12.5838H12.0228L15.7942 16.2207H39.2542ZM40.6483 10.4206L41.5226 6.78761H6.01186L9.78233 10.4206H40.6483ZM42.0413 4.62547L42.9157 0.988525H0L3.7704 4.62547H42.0413Z" fill="#EF7E20"/>
<path d="M102.235 33.6111L107.199 28.9104L109.749 18.3829V18.3561L105.743 13.3227L100.732 13.3306L101.641 9.54311L102.27 9.0558H103.581L104.077 9.61637L103.878 10.4206H111.661L112.618 6.38552L109.269 0.988532H100.439L96.2 4.62547H109.46L110.768 6.78762H94.5561L93.6817 10.4206H99.3768L98.8542 12.5838H93.1631L92.2886 16.2207H106.017L107.715 18.3829H92.2527L95.0717 22.0158H106.822L106.302 24.179H100.665L100.306 25.6647L99.6776 26.152H98.3665L97.8698 25.5954L98.1396 24.5038L98.2256 24.179H90.3749L89.5045 27.816H105.424L103.062 29.9791H89.3646L91.8939 33.6111H102.235V33.6111ZM66.1454 33.6111L70.3146 16.2207H79.0506L78.1183 18.3829H70.6154L70.4745 22.0159H76.5563L75.624 24.179H70.3926L70.2527 27.816H74.062L73.1337 29.9791H70.1707L70.0298 33.6111H73.6364L81.1162 16.2207H86.9323L86.4096 18.3829H80.7175L79.8431 22.0159H85.5392L85.0155 24.179H79.3245L78.45 27.816H84.1452L83.6225 29.9791H77.9304L77.056 33.6111H84.8087L91.773 4.62551L92.6474 0.988567H82.4863L80.7565 4.62551H89.7194L89.2007 6.78765H79.7262L77.9974 10.4207H88.3263L87.8067 12.5838H76.9701L75.639 15.3809V0.988569H66.7041L65.8297 4.62548H73.5823V6.78762H65.31L64.4356 10.4206H73.5823V12.5798L63.917 12.5838L63.0425 16.2207H68.258L67.7384 18.3829H62.5229L61.6485 22.0159H66.8679L66.3523 24.179H61.1299L60.2595 27.816H65.4819L64.9633 29.9791H59.7358L58.8654 33.6111H66.1454V33.6111ZM55.4457 33.6111L56.3162 29.9791L56.8358 27.8159H56.8398L57.7102 24.179H50.6331L51.1407 22.0158H57.6323L57.9211 20.8174L59.1462 15.7136L59.8997 12.5838H53.3502L53.8579 10.4206H61.017L61.8914 6.78761H61.8874L62.406 4.62547H62.41L63.2844 0.988525H47.8729L46.9985 4.62547H60.3534L59.8338 6.78761H46.4799L45.6055 10.4206H51.8003L51.2926 12.5838H45.0858L44.2115 16.2207H56.9688L56.4491 18.3829H43.6928L42.8184 22.0158H49.0871L48.5794 24.179H42.2987L41.4243 27.8159H54.7822L54.2635 29.9791H40.9057L40.0312 33.6111H55.4457Z" fill="#00549E"/>
</svg>
