<svg width="56" height="34" viewBox="0 0 56 34" fill="none" xmlns="http://www.w3.org/2000/svg">
<path fill-rule="evenodd" clip-rule="evenodd" d="M38.5641 33.2609L39.4137 33.2393L40.2538 33.1785L41.0773 33.0747L41.8942 32.9303L42.6887 32.7489L43.4735 32.5286L44.2402 32.2693L44.9914 31.9774L45.7245 31.647L46.4364 31.2888L47.1257 30.8914L47.7989 30.4675L48.4439 30.0106L49.0658 29.5254L49.6667 29.0128L50.2398 28.4676L50.7899 27.8996L51.3071 27.3035L51.7967 26.6874L52.2579 26.048L52.6864 25.3816L53.0854 24.6971L53.4471 23.9921L53.7813 23.2654L54.0756 22.5206L54.3363 21.7599L54.56 20.984L54.7425 20.1957L54.887 19.3861L54.9928 18.5702L55.0548 17.7381L55.0758 16.8949L55.0548 16.0571L54.9928 15.2307L54.887 14.4154L54.7425 13.6157L54.56 12.8282L54.3363 12.0561L54.0756 11.2962L53.7813 10.5576L53.4471 9.83609L53.0854 9.13024L52.6864 8.45277L52.2579 7.78639L51.7967 7.14677L51.3071 6.53499L50.7899 5.94052L50.2398 5.37226L49.6667 4.83213L49.0658 4.31984L48.4439 3.83458L47.7989 3.37771L47.1257 2.953L46.4364 2.56209L45.7245 2.20444L44.9914 1.87273L44.2402 1.58077L43.4735 1.32205L42.6887 1.10173L41.8942 0.919788L41.0773 0.777049L40.2538 0.671887L39.4137 0.610791L38.5641 0.588623L37.718 0.610791L36.8784 0.671887L36.0566 0.777049L35.2441 0.919788L34.449 1.10173L33.6662 1.32205L32.9035 1.58077L32.1526 1.87273L31.4241 2.20444L30.7185 2.56209L30.0292 2.953L29.3623 3.37771L28.7178 3.83458L28.0943 4.31984L27.4997 4.83213L26.9263 5.37226L26.3819 5.94052L25.8645 6.53499L25.3754 7.14677L24.9202 7.78639L24.4917 8.45277L24.0964 9.13024L23.7299 9.83609L23.4017 10.5576L23.1066 11.2962L22.8516 12.0561L22.6285 12.8282L22.4454 13.6157L22.3009 14.4154L22.1956 15.2307L22.1334 16.0571L22.1113 16.8949L22.1334 17.7381L22.1956 18.5702L22.3009 19.3861L22.4454 20.1957L22.6285 20.984L22.8516 21.7599L23.1066 22.5206L23.4017 23.2654L23.7299 23.9921L24.0964 24.6971L24.4917 25.3816L24.9202 26.048L25.3754 26.6874L25.8645 27.3035L26.3819 27.8996L26.9263 28.4676L27.4997 29.0128L28.0943 29.5254L28.7178 30.0106L29.3623 30.4675L30.0292 30.8914L30.7185 31.2888L31.4241 31.647L32.1526 31.9774L32.9035 32.2693L33.6662 32.5286L34.449 32.7489L35.2441 32.9303L36.0566 33.0747L36.8784 33.1785L37.718 33.2393L38.5641 33.2609Z" fill="#FBB231"/>
<path fill-rule="evenodd" clip-rule="evenodd" d="M16.5136 33.2609L17.3575 33.2393L18.1973 33.1785L19.0211 33.0747L19.8325 32.9303L20.6276 32.7489L21.4107 32.5286L22.1733 32.2693L22.9237 31.9774L23.6517 31.647L24.3581 31.2888L25.0476 30.8914L25.714 30.4675L26.3599 30.0106L26.9826 29.5254L27.5769 29.0128L28.15 28.4676L28.695 27.8996L29.2121 27.3035L29.7009 26.6874L30.1567 26.048L30.5857 25.3816L30.9801 24.6971L31.3467 23.9921L31.6746 23.2654L31.97 22.5206L32.225 21.7599L32.4473 20.984L32.6314 20.1957L32.7757 19.3861L32.8815 18.5702L32.9421 17.7381L32.9647 16.8949L32.9421 16.0571L32.8815 15.2307L32.7757 14.4154L32.6314 13.6157L32.4473 12.8282L32.225 12.0561L31.97 11.2962L31.6746 10.5576L31.3467 9.83609L30.9801 9.13024L30.5857 8.45277L30.1567 7.78639L29.7009 7.14677L29.2121 6.53499L28.695 5.94052L28.15 5.37226L27.5769 4.83213L26.9826 4.31984L26.3599 3.83458L25.714 3.37771L25.0476 2.953L24.3581 2.56209L23.6517 2.20444L22.9237 1.87273L22.1733 1.58077L21.4107 1.32205L20.6276 1.10173L19.8325 0.919788L19.0211 0.777049L18.1973 0.671887L17.3575 0.610791L16.5136 0.588623L15.662 0.610791L14.8231 0.671887L13.9999 0.777049L13.1821 0.919788L12.387 1.10173L11.6031 1.32205L10.8359 1.58077L10.0861 1.87273L9.35205 2.20444L8.63989 2.56209L7.95063 2.953L7.27773 3.37771L6.63239 3.83458L6.01023 4.31984L5.40961 4.83213L4.83792 5.37226L4.28695 5.94052L3.7698 6.53499L3.28075 7.14677L2.81898 7.78639L2.39129 8.45277L1.99031 9.13024L1.62946 9.83609L1.29533 10.5576L1.00077 11.2962L0.739996 12.0561L0.517448 12.8282L0.334122 13.6157L0.189319 14.4154L0.0832058 15.2307L0.0221083 16.0571L0 16.8949L0.0221083 17.7381L0.0832058 18.5702L0.189319 19.3861L0.334122 20.1957L0.517448 20.984L0.739996 21.7599L1.00077 22.5206L1.29533 23.2654L1.62946 23.9921L1.99031 24.6971L2.39129 25.3816L2.81898 26.048L3.28075 26.6874L3.7698 27.3035L4.28695 27.8996L4.83792 28.4676L5.40961 29.0128L6.01023 29.5254L6.63239 30.0106L7.27773 30.4675L7.95063 30.8914L8.63989 31.2888L9.35205 31.647L10.0861 31.9774L10.8359 32.2693L11.6031 32.5286L12.387 32.7489L13.1821 32.9303L13.9999 33.0747L14.8231 33.1785L15.662 33.2393L16.5136 33.2609Z" fill="#EC1C2E"/>
<path fill-rule="evenodd" clip-rule="evenodd" d="M25.6094 6.85483H34.366V5.96704H26.3655L25.6094 6.85483Z" fill="#FBB231"/>
<path fill-rule="evenodd" clip-rule="evenodd" d="M24.2969 8.82685H34.366V7.93933H24.8249L24.2969 8.82685Z" fill="#FBB231"/>
<path fill-rule="evenodd" clip-rule="evenodd" d="M23.3193 10.7947H34.3666V9.90723H23.7083L23.3193 10.7947Z" fill="#FBB231"/>
<path fill-rule="evenodd" clip-rule="evenodd" d="M22.6465 12.7674H34.3669V11.8804H22.9244L22.6465 12.7674Z" fill="#FBB231"/>
<path fill-rule="evenodd" clip-rule="evenodd" d="M23.0356 22.3009H34.3941V21.4137H22.7568L23.0356 22.3009Z" fill="#FBB231"/>
<path fill-rule="evenodd" clip-rule="evenodd" d="M23.8751 24.2735H34.3945V23.3862H23.458L23.8751 24.2735Z" fill="#FBB231"/>
<path fill-rule="evenodd" clip-rule="evenodd" d="M25.0527 26.2408H34.3941V25.3535H24.4922L25.0527 26.2408Z" fill="#FBB231"/>
<path fill-rule="evenodd" clip-rule="evenodd" d="M26.6782 28.2135H34.395V27.3206H25.8945L26.6782 28.2135Z" fill="#FBB231"/>
<path fill-rule="evenodd" clip-rule="evenodd" d="M22.252 14.7347H34.3668V13.8474H22.4238L22.252 14.7347Z" fill="#FBB231"/>
<path fill-rule="evenodd" clip-rule="evenodd" d="M29.6348 20.334H34.2553V19.4459H29.8022L29.6348 20.334Z" fill="#FBB231"/>
<path fill-rule="evenodd" clip-rule="evenodd" d="M30.0029 18.3658H34.2558V17.4734H30.1696L30.0029 18.3658Z" fill="#FBB231"/>
<path fill-rule="evenodd" clip-rule="evenodd" d="M21.9453 17.4734H23.1471V18.3658H22.0015L21.9453 17.4734Z" fill="#FBB231"/>
<path fill-rule="evenodd" clip-rule="evenodd" d="M19.7031 16.3982L19.6259 16.3928L19.5482 16.3823L19.4756 16.3715L19.4042 16.3601L19.3365 16.3496L19.2645 16.3382L19.193 16.3277L19.1139 16.3158L19.0367 16.3058L18.9478 16.2996L18.8475 16.2939L18.7424 16.2882H18.6251L18.4975 16.2939L18.3527 16.3058L18.1917 16.3158L18.0807 16.3328L17.9749 16.3496L17.8797 16.3823L17.7968 16.4147L17.7185 16.4539L17.6473 16.4977L17.5908 16.5537L17.5401 16.6026L17.5074 16.6632L17.4798 16.724L17.4684 16.7897V16.8562L17.485 16.9281L17.5074 16.9992L17.5513 17.0714L17.6075 17.143L17.7185 17.2471L17.853 17.3301L18.0079 17.4012L18.1748 17.462L18.3527 17.5177L18.5357 17.5783L18.7195 17.6448L18.8974 17.7156L19.0643 17.8094L19.2198 17.9248L19.3586 18.0635L19.4756 18.2338L19.5645 18.4431L19.6207 18.6912L19.6423 18.9894L19.6207 19.3363L19.5817 19.5952L19.5149 19.821L19.4254 20.0305L19.3147 20.2119L19.1873 20.3725L19.0417 20.5098L18.8862 20.6309L18.7149 20.7361L18.5357 20.8185L18.3527 20.8896L18.1634 20.945L17.9692 20.9888L17.7796 21.0229L17.5971 21.0389L17.4138 21.0502L17.2409 21.0548H17.0006L16.7789 21.0502H16.5844L16.4014 21.0451L16.2341 21.0389L16.0844 21.0275L15.9513 21.0167L15.8234 21.0002L15.7061 20.9888L15.6008 20.9672L15.495 20.9499L15.4006 20.9234L15.3054 20.901L15.2173 20.8672L15.1276 20.835L15.0332 20.8018L15.2833 19.5842L15.3338 19.5952L15.3941 19.6117L15.4726 19.6331L15.5675 19.6561L15.6671 19.6777L15.7787 19.6996L15.9009 19.7269L16.0337 19.7493L16.173 19.771L16.3179 19.7934L16.4676 19.8096L16.6237 19.8264L16.784 19.8315L16.9469 19.8372H17.1064L17.2682 19.8315L17.4299 19.7991L17.5578 19.7542L17.6574 19.6945L17.7357 19.6171L17.791 19.5398L17.8358 19.4509L17.8642 19.3636L17.8854 19.2811L17.8977 19.1208L17.8473 18.9829L17.7518 18.8724L17.6132 18.7791L17.4463 18.6969L17.2518 18.6139L17.035 18.5363L16.8184 18.4487L16.5958 18.3498L16.3847 18.2338L16.1902 18.0908L16.0119 17.92L15.873 17.7099L15.7729 17.462L15.7225 17.1652L15.7282 16.8124L15.756 16.5975L15.7958 16.3928L15.8512 16.206L15.9169 16.0298L16.0061 15.8646L16.1062 15.721L16.2235 15.5829L16.3626 15.4626L16.5246 15.3577L16.7016 15.269L16.9013 15.1868L17.1236 15.1263L17.3748 15.076L17.6473 15.0376L17.9465 15.0157L18.2757 15.0098H18.4803L18.6694 15.0157L18.8425 15.0217L18.9977 15.0271L19.1369 15.0376L19.2645 15.0487L19.3755 15.0595L19.4756 15.0711L19.5703 15.0817L19.6485 15.0984L19.7203 15.1095L19.7879 15.1203L19.8433 15.1309L19.8929 15.1374L19.9426 15.1482L19.9873 15.1539L19.7031 16.3982Z" fill="white"/>
<path d="M19.7031 16.3982L19.6259 16.3928L19.5482 16.3823L19.4756 16.3715L19.4042 16.3601L19.3365 16.3496L19.2645 16.3382L19.193 16.3277L19.1139 16.3158L19.0367 16.3058L18.9478 16.2996L18.8475 16.2939L18.7424 16.2882H18.6251L18.4975 16.2939L18.3527 16.3058L18.1917 16.3158L18.0807 16.3328L17.9749 16.3496L17.8797 16.3823L17.7968 16.4147L17.7185 16.4539L17.6473 16.4977L17.5908 16.5537L17.5401 16.6026L17.5074 16.6632L17.4798 16.724L17.4684 16.7897V16.8562L17.485 16.9281L17.5074 16.9992L17.5513 17.0714L17.6075 17.143L17.7185 17.2471L17.853 17.3301L18.0079 17.4012L18.1748 17.462L18.3527 17.5177L18.5357 17.5783L18.7195 17.6448L18.8974 17.7156L19.0643 17.8094L19.2198 17.9248L19.3586 18.0635L19.4756 18.2338L19.5645 18.4431L19.6207 18.6912L19.6423 18.9894L19.6207 19.3363L19.5817 19.5952L19.5149 19.821L19.4254 20.0305L19.3147 20.2119L19.1873 20.3725L19.0417 20.5098L18.8862 20.6309L18.7149 20.7361L18.5357 20.8185L18.3527 20.8896L18.1634 20.945L17.9692 20.9888L17.7796 21.0229L17.5971 21.0389L17.4138 21.0502L17.2409 21.0548H17.0006L16.7789 21.0502H16.5844L16.4014 21.0451L16.2341 21.0389L16.0844 21.0275L15.9513 21.0167L15.8234 21.0002L15.7061 20.9888L15.6008 20.9672L15.495 20.9499L15.4006 20.9234L15.3054 20.901L15.2173 20.8672L15.1276 20.835L15.0332 20.8018L15.2833 19.5842L15.3338 19.5952L15.3941 19.6117L15.4726 19.6331L15.5675 19.6561L15.6671 19.6777L15.7787 19.6996L15.9009 19.7269L16.0337 19.7493L16.173 19.771L16.3179 19.7934L16.4676 19.8096L16.6237 19.8264L16.784 19.8315L16.9469 19.8372H17.1064L17.2682 19.8315L17.4299 19.7991L17.5578 19.7542L17.6574 19.6945L17.7357 19.6171L17.791 19.5398L17.8358 19.4509L17.8642 19.3636L17.8854 19.2811L17.8977 19.1208L17.8473 18.9829L17.7518 18.8724L17.6132 18.7791L17.4463 18.6969L17.2518 18.6139L17.035 18.5363L16.8184 18.4487L16.5958 18.3498L16.3847 18.2338L16.1902 18.0908L16.0119 17.92L15.873 17.7099L15.7729 17.462L15.7225 17.1652L15.7282 16.8124L15.756 16.5975L15.7958 16.3928L15.8512 16.206L15.9169 16.0298L16.0061 15.8646L16.1062 15.721L16.2235 15.5829L16.3626 15.4626L16.5246 15.3577L16.7016 15.269L16.9013 15.1868L17.1236 15.1263L17.3748 15.076L17.6473 15.0376L17.9465 15.0157L18.2757 15.0098H18.4803L18.6694 15.0157L18.8425 15.0217L18.9977 15.0271L19.1369 15.0376L19.2645 15.0487L19.3755 15.0595L19.4756 15.0711L19.5703 15.0817L19.6485 15.0984L19.7203 15.1095L19.7879 15.1203L19.8433 15.1309L19.8929 15.1374L19.9426 15.1482L19.9873 15.1539L19.7031 16.3982Z" stroke="white" stroke-width="0.216" stroke-miterlimit="2.6131"/>
<path fill-rule="evenodd" clip-rule="evenodd" d="M21.0219 13.7928H22.5627L22.3344 15.1264H23.2629L23.0627 16.3716L22.0835 16.344L21.5505 19.4183L21.5448 19.5289L21.572 19.623L21.6282 19.6946L21.7008 19.7544L21.8009 19.7936L21.9116 19.8265L22.0335 19.8479L22.1675 19.8601L22.2894 19.8544L22.4001 19.8433L22.501 19.8265L22.5902 19.8044L22.6628 19.7825L22.7124 19.7662L22.7457 19.7544L22.7564 19.7495L22.5627 20.7746L22.5232 20.8019L22.4841 20.8238L22.4454 20.846L22.4067 20.8673L22.3677 20.8841L22.3229 20.9011L22.2733 20.9173L22.2228 20.9341L22.1675 20.9501L22.1113 20.9617L22.045 20.9728L21.979 20.9841L21.9067 20.9955L21.8227 21.006L21.7332 21.0168L21.6383 21.0276H21.2158L20.9933 21.0112L20.7993 20.989L20.622 20.9565L20.4717 20.9173L20.343 20.8673L20.238 20.8135L20.1436 20.747L20.0713 20.6751L20.0154 20.5981L19.9759 20.5045L19.9489 20.4099L19.9317 20.3061L19.9268 20.1901V20.0693L19.9431 19.9425L19.9603 19.8044L21.0219 13.7928Z" fill="white"/>
<path d="M21.0219 13.7928H22.5627L22.3344 15.1264H23.2629L23.0627 16.3716L22.0835 16.344L21.5505 19.4183L21.5448 19.5289L21.572 19.623L21.6282 19.6946L21.7008 19.7544L21.8009 19.7936L21.9116 19.8265L22.0335 19.8479L22.1675 19.8601L22.2894 19.8544L22.4001 19.8433L22.501 19.8265L22.5902 19.8044L22.6628 19.7825L22.7124 19.7662L22.7457 19.7544L22.7564 19.7495L22.5627 20.7746L22.5232 20.8019L22.4841 20.8238L22.4454 20.846L22.4067 20.8673L22.3677 20.8841L22.3229 20.9011L22.2733 20.9173L22.2228 20.9341L22.1675 20.9501L22.1113 20.9617L22.045 20.9728L21.979 20.9841L21.9067 20.9955L21.8227 21.006L21.7332 21.0168L21.6383 21.0276H21.2158L20.9933 21.0112L20.7993 20.989L20.622 20.9565L20.4717 20.9173L20.343 20.8673L20.238 20.8135L20.1436 20.747L20.0713 20.6751L20.0154 20.5981L19.9759 20.5045L19.9489 20.4099L19.9317 20.3061L19.9268 20.1901V20.0693L19.9431 19.9425L19.9603 19.8044L21.0219 13.7928Z" stroke="white" stroke-width="0.216" stroke-miterlimit="2.6131"/>
<path d="M24.4919 18.4487L24.4747 18.542L24.4698 18.641L24.4804 18.7458L24.5028 18.8507L24.5418 18.9556L24.5871 19.0559L24.6476 19.1597L24.7136 19.253L24.7917 19.3473L24.8746 19.4306L24.9646 19.5125L25.0638 19.5782L25.1648 19.6393L25.2755 19.6882L25.3865 19.7269L25.4981 19.7493L25.6421 19.771L25.7818 19.788L25.9266 19.8042L26.0706 19.8156L26.2152 19.821H26.3657L26.5097 19.8156L26.66 19.8042L26.8098 19.7823L26.9606 19.7542L27.1161 19.7218L27.2658 19.672L27.4224 19.6117L27.5828 19.5447L27.7388 19.4576L27.8997 19.3636L27.6774 20.7196L27.5877 20.7631L27.4999 20.8077L27.4104 20.8399L27.3277 20.8739L27.244 20.901L27.1543 20.9291L27.0656 20.9499L26.9713 20.9672L26.8711 20.984L26.7601 20.9953L26.6437 21.0059L26.5155 21.0167L26.3706 21.0229H26.2214L26.0482 21.0275H25.8647L25.5924 21.0229L25.3153 20.9953L25.0363 20.9564L24.7584 20.8896L24.4862 20.8077L24.2257 20.702L23.9744 20.565L23.741 20.4046L23.5241 20.2176L23.3357 19.9918L23.1745 19.738L23.04 19.4458L22.9461 19.1208L22.8853 18.7513L22.8682 18.3439L22.8965 17.8921L22.9186 17.7156L22.9513 17.5115L22.9964 17.2974L23.0572 17.0649L23.1412 16.8291L23.2405 16.5918L23.3684 16.3496L23.5241 16.1182L23.7014 15.8973L23.9183 15.688L24.1638 15.501L24.4414 15.3358L24.7636 15.1977L25.1258 15.0984L25.5248 15.0327L25.9762 15.0098L26.1928 15.0157L26.4211 15.0376L26.6494 15.076L26.8774 15.1309L27.0992 15.2144L27.3166 15.3134L27.517 15.4456L27.7001 15.5996L27.8664 15.7873L28.0058 16.0081L28.1163 16.2612L28.1946 16.5537L28.2393 16.8832L28.245 17.2576L28.206 17.6767L28.122 18.1403L28.0944 18.4763H24.0421L24.2971 17.3904H26.7323L26.7438 17.253L26.7372 17.1208L26.7258 16.9992L26.7048 16.8897L26.6658 16.7848L26.627 16.6902L26.5708 16.608L26.5155 16.531L26.4497 16.4653L26.3764 16.4098L26.2932 16.3601L26.2094 16.3158L26.1208 16.2836L26.0316 16.2612L25.9372 16.2447L25.8371 16.2333L25.7313 16.239L25.6315 16.2558L25.5371 16.2785L25.4427 16.3106L25.3475 16.3544L25.2652 16.4044L25.1806 16.4653L25.1091 16.531L25.0363 16.608L24.9695 16.6902L24.9089 16.7791L24.8585 16.8735L24.8083 16.9724L24.7695 17.0822L24.7363 17.1925L24.7136 17.3082L24.4919 18.4487Z" stroke="white" stroke-width="0.216" stroke-miterlimit="2.6131"/>
<path fill-rule="evenodd" clip-rule="evenodd" d="M37.7517 15.4567L37.68 15.4186L37.6082 15.3848L37.5291 15.3461L37.4462 15.3075L37.3619 15.2748L37.2692 15.2415L37.174 15.2083L37.0744 15.1756L36.9686 15.1483L36.8617 15.1264L36.7463 15.1039L36.6295 15.0874L36.5016 15.0761L36.374 15.0655H36.24H36.1009H35.9621L35.8176 15.0761L35.6667 15.0934L35.5121 15.1204L35.356 15.1642L35.2009 15.2253L35.0448 15.3026L34.8885 15.401L34.7388 15.5227L34.5937 15.666L34.4543 15.8425L34.3223 16.0463L34.1996 16.2883L34.0828 16.5637L33.977 16.8736L33.8889 17.2258L33.854 17.4234L33.833 17.6162L33.8215 17.8095L33.8278 17.9971L33.8431 18.1844L33.8818 18.361L33.9323 18.5261L33.9934 18.6913L34.0771 18.8405L34.1764 18.983L34.2945 19.1098L34.4276 19.2258L34.5773 19.325L34.7494 19.4077L34.939 19.4794L35.1501 19.5288L35.2227 19.5448L35.3067 19.5615L35.4068 19.5732L35.5178 19.5842L35.6389 19.5953H35.7676H35.9062L36.0456 19.5842L36.1899 19.5669L36.3344 19.5399L36.4733 19.5012L36.6124 19.4577L36.7512 19.3964L36.8789 19.325L36.9956 19.2371L37.1072 19.1379L36.8578 20.6094L36.8235 20.6367L36.791 20.6699L36.7463 20.7088L36.6967 20.7405L36.6353 20.7848L36.557 20.8237L36.4675 20.8624L36.3682 20.8951L36.24 20.934L36.0952 20.9616L35.9291 20.9841L35.7338 21.006L35.5178 21.0168L35.2666 21.023L34.984 21.0168L34.672 21.0003L34.4161 20.9727L34.1605 20.9173L33.905 20.8351L33.6494 20.7245L33.4045 20.5931L33.1704 20.4263L32.9487 20.2344L32.7427 20.0146L32.5584 19.7662L32.4037 19.4907L32.2703 19.1822L32.1708 18.8459L32.104 18.4764L32.0811 18.0852L32.0925 17.6554L32.153 17.198L32.1983 16.9725L32.2474 16.7519L32.3036 16.5367L32.3598 16.3329L32.4195 16.1399L32.4921 15.9474L32.5649 15.7654L32.6427 15.5946L32.7269 15.4237L32.8096 15.2634L32.904 15.1096L33.0035 14.9666L33.1044 14.8282L33.2152 14.6965L33.3259 14.5751L33.4432 14.4597L33.5706 14.3489L33.6991 14.2445L33.833 14.1504L33.9718 14.0623L34.1218 13.9796L34.2716 13.9088L34.4276 13.8425L34.5888 13.7812L34.7617 13.7263L34.9327 13.6822L35.1111 13.6433L35.3009 13.6108L35.4892 13.5827L35.6894 13.5611L35.8895 13.5508L36.1009 13.5441L36.2801 13.5508L36.4512 13.5611L36.6181 13.5776L36.7845 13.6L36.9408 13.6214L37.0905 13.6546L37.2351 13.6822L37.3684 13.7152L37.4964 13.7482L37.6082 13.7812L37.714 13.8149L37.8019 13.8474L37.8804 13.8747L37.9467 13.8974L37.9969 13.9193L38.0307 13.9307L37.7517 15.4567Z" fill="white"/>
<path d="M37.7517 15.4567L37.68 15.4186L37.6082 15.3848L37.5291 15.3461L37.4462 15.3075L37.3619 15.2748L37.2692 15.2415L37.174 15.2083L37.0744 15.1756L36.9686 15.1483L36.8617 15.1264L36.7463 15.1039L36.6295 15.0874L36.5016 15.0761L36.374 15.0655H36.24H36.1009H35.9621L35.8176 15.0761L35.6667 15.0934L35.5121 15.1204L35.356 15.1642L35.2009 15.2253L35.0448 15.3026L34.8885 15.401L34.7388 15.5227L34.5937 15.666L34.4543 15.8425L34.3223 16.0463L34.1996 16.2883L34.0828 16.5637L33.977 16.8736L33.8889 17.2258L33.854 17.4234L33.833 17.6162L33.8215 17.8095L33.8278 17.9971L33.8431 18.1844L33.8818 18.361L33.9323 18.5261L33.9934 18.6913L34.0771 18.8405L34.1764 18.983L34.2945 19.1098L34.4276 19.2258L34.5773 19.325L34.7494 19.4077L34.939 19.4794L35.1501 19.5288L35.2227 19.5448L35.3067 19.5615L35.4068 19.5732L35.5178 19.5842L35.6389 19.5953H35.7676H35.9062L36.0456 19.5842L36.1899 19.5669L36.3344 19.5399L36.4733 19.5012L36.6124 19.4577L36.7512 19.3964L36.8789 19.325L36.9956 19.2371L37.1072 19.1379L36.8578 20.6094L36.8235 20.6367L36.791 20.6699L36.7463 20.7088L36.6967 20.7405L36.6353 20.7848L36.557 20.8237L36.4675 20.8624L36.3682 20.8951L36.24 20.934L36.0952 20.9616L35.9291 20.9841L35.7338 21.006L35.5178 21.0168L35.2666 21.023L34.984 21.0168L34.672 21.0003L34.4161 20.9727L34.1605 20.9173L33.905 20.8351L33.6494 20.7245L33.4045 20.5931L33.1704 20.4263L32.9487 20.2344L32.7427 20.0146L32.5584 19.7662L32.4037 19.4907L32.2703 19.1822L32.1708 18.8459L32.104 18.4764L32.0811 18.0852L32.0925 17.6554L32.153 17.198L32.1983 16.9725L32.2474 16.7519L32.3036 16.5367L32.3598 16.3329L32.4195 16.1399L32.4921 15.9474L32.5649 15.7654L32.6427 15.5946L32.7269 15.4237L32.8096 15.2634L32.904 15.1096L33.0035 14.9666L33.1044 14.8282L33.2152 14.6965L33.3259 14.5751L33.4432 14.4597L33.5706 14.3489L33.6991 14.2445L33.833 14.1504L33.9718 14.0623L34.1218 13.9796L34.2716 13.9088L34.4276 13.8425L34.5888 13.7812L34.7617 13.7263L34.9327 13.6822L35.1111 13.6433L35.3009 13.6108L35.4892 13.5827L35.6894 13.5611L35.8895 13.5508L36.1009 13.5441L36.2801 13.5508L36.4512 13.5611L36.6181 13.5776L36.7845 13.6L36.9408 13.6214L37.0905 13.6546L37.2351 13.6822L37.3684 13.7152L37.4964 13.7482L37.6082 13.7812L37.714 13.8149L37.8019 13.8474L37.8804 13.8747L37.9467 13.8974L37.9969 13.9193L38.0307 13.9307L37.7517 15.4567Z" stroke="white" stroke-width="0.216" stroke-miterlimit="2.6131"/>
<path fill-rule="evenodd" clip-rule="evenodd" d="M51.4398 21.0276H49.8998L50.0113 20.4166V20.3609L49.9221 20.4717L49.8272 20.5699L49.7337 20.6583L49.6333 20.7361L49.5332 20.8078L49.4331 20.8673L49.333 20.9173L49.2271 20.9673L49.1218 21.0059L49.016 21.0332L48.9102 21.0605L48.7986 21.0765L48.6884 21.0938L48.5826 21.1049L48.4719 21.1106H48.3609L48.0715 21.0881L47.8044 21.0276L47.5598 20.934L47.3369 20.8078L47.137 20.6472L46.9589 20.4609L46.8029 20.256L46.6695 20.0251L46.5596 19.7764L46.4701 19.5183L46.4088 19.2482L46.3643 18.9668L46.3477 18.6856L46.3526 18.3996L46.3801 18.1185L46.4306 17.8378L46.514 17.5115L46.6141 17.2036L46.7314 16.9225L46.87 16.6581L47.014 16.4099L47.1814 16.189L47.353 15.9917L47.5371 15.8095L47.7319 15.6492L47.9376 15.5116L48.1492 15.3905L48.3609 15.2969L48.5826 15.2193L48.8046 15.1704L49.0264 15.1374L49.2547 15.1263L49.4167 15.1309L49.5722 15.1482L49.717 15.1755L49.8501 15.2145L49.978 15.2591L50.0899 15.3075L50.2006 15.3688L50.3007 15.4294L50.3894 15.4943L50.4723 15.567L50.5451 15.6386L50.6119 15.71L50.6673 15.7819L50.7178 15.8533L50.7625 15.9201L50.795 15.986L51.1853 13.8201H52.6966L51.4398 21.0276Z" fill="white"/>
<path d="M51.4398 21.0276H49.8998L50.0113 20.4166V20.3609L49.9221 20.4717L49.8272 20.5699L49.7337 20.6583L49.6333 20.7361L49.5332 20.8078L49.4331 20.8673L49.333 20.9173L49.2271 20.9673L49.1218 21.0059L49.016 21.0332L48.9102 21.0605L48.7986 21.0765L48.6884 21.0938L48.5826 21.1049L48.4719 21.1106H48.3609L48.0715 21.0881L47.8044 21.0276L47.5598 20.934L47.3369 20.8078L47.137 20.6472L46.9589 20.4609L46.8029 20.256L46.6695 20.0251L46.5596 19.7764L46.4701 19.5183L46.4088 19.2482L46.3643 18.9668L46.3477 18.6856L46.3526 18.3996L46.3801 18.1185L46.4306 17.8378L46.514 17.5115L46.6141 17.2036L46.7314 16.9225L46.87 16.6581L47.014 16.4099L47.1814 16.189L47.353 15.9917L47.5371 15.8095L47.7319 15.6492L47.9376 15.5116L48.1492 15.3905L48.3609 15.2969L48.5826 15.2193L48.8046 15.1704L49.0264 15.1374L49.2547 15.1263L49.4167 15.1309L49.5722 15.1482L49.717 15.1755L49.8501 15.2145L49.978 15.2591L50.0899 15.3075L50.2006 15.3688L50.3007 15.4294L50.3894 15.4943L50.4723 15.567L50.5451 15.6386L50.6119 15.71L50.6673 15.7819L50.7178 15.8533L50.7625 15.9201L50.795 15.986L51.1853 13.8201H52.6966L51.4398 21.0276Z" stroke="white" stroke-width="0.216" stroke-miterlimit="2.6131"/>
<path fill-rule="evenodd" clip-rule="evenodd" d="M48.9221 19.6946L49.0776 19.6836L49.2222 19.6506L49.3561 19.6119L49.4843 19.5514L49.6008 19.4857L49.7118 19.4021L49.8176 19.3094L49.912 19.2089L49.9949 19.0986L50.0735 18.9774L50.1452 18.8509L50.2071 18.7195L50.2622 18.5809L50.3072 18.4381L50.3454 18.2892L50.3738 18.1405L50.401 17.9867L50.4182 17.8269V17.6768L50.4131 17.5233L50.3959 17.3803L50.3738 17.2419L50.3348 17.1097L50.29 16.9832L50.2347 16.8737L50.1678 16.7685L50.0964 16.6793L50.0121 16.6028L49.9177 16.5368L49.8176 16.4928L49.7118 16.4655L49.5958 16.4541L49.4447 16.4655L49.3059 16.4874L49.1777 16.5311L49.0501 16.5863L48.9393 16.6582L48.8278 16.7463L48.7334 16.8399L48.6385 16.945L48.5556 17.0651L48.4775 17.1927L48.4042 17.3246L48.3436 17.4679L48.2883 17.6163L48.2443 17.7663L48.1996 17.925L48.1666 18.0853L48.1377 18.3281L48.15 18.5925L48.1882 18.862L48.2615 19.121L48.372 19.3475L48.5166 19.5289L48.6996 19.6506L48.9221 19.6946Z" fill="#FBB231"/>
<path fill-rule="evenodd" clip-rule="evenodd" d="M14.7795 19.8044L14.5564 21.0277H13.1552L13.1943 20.8019L13.2232 20.5981L13.2439 20.4437L13.2668 20.361L13.1891 20.4491L13.0996 20.5378L12.9946 20.6205L12.8773 20.697L12.7442 20.7746L12.6051 20.84L12.46 20.9065L12.31 20.9617L12.1479 21.0112L11.9881 21.0504L11.8261 21.0833L11.6603 21.105L11.4985 21.1163L11.3381 21.1217L11.1816 21.105L11.031 21.0833L10.8365 21.0333L10.6587 20.9782L10.5032 20.9065L10.3641 20.8238L10.2425 20.7362L10.1317 20.6367L10.0417 20.5316L9.96398 20.4218L9.89769 20.3061L9.84149 20.1839L9.79761 20.0639L9.76404 19.9425L9.7414 19.8157L9.72502 19.6884L9.71387 19.567V19.4459L9.72995 19.2307L9.76404 19.0274L9.81968 18.8347L9.89197 18.6471L9.9806 18.4708L10.0805 18.3113L10.1975 18.1575L10.3314 18.0191L10.4707 17.8923L10.626 17.776L10.7874 17.6719L10.9535 17.5833L11.1311 17.5073L11.3155 17.4457L11.5042 17.3965L11.6993 17.3632H11.7096L11.7374 17.3575L11.7773 17.3521L11.8376 17.3467L11.9044 17.3359L11.9821 17.3302L12.065 17.3191L12.1602 17.3083L12.2546 17.2975L12.3498 17.2867L12.4502 17.2805L12.5383 17.2697L12.628 17.2643L12.7104 17.2578L12.7889 17.2532H12.8495H12.9782L13.1116 17.2578L13.2333 17.2643H13.3554L13.4555 17.2697L13.5338 17.2748L13.5886 17.2805H13.6056L13.617 17.2418L13.65 17.1432L13.6773 17.0266L13.6888 16.9226L13.6667 16.8017L13.617 16.6903L13.5499 16.5919L13.4605 16.5089L13.3554 16.4384L13.239 16.3881L13.1051 16.3546L12.961 16.344L12.8053 16.3384L12.6376 16.333H12.4657L12.2882 16.3384L12.1049 16.3497L11.9262 16.3657L11.7489 16.3824L11.5768 16.4046L11.409 16.4262L11.2478 16.4541L11.1036 16.4808L10.9707 16.5089L10.8483 16.543L10.7476 16.5752L10.6704 16.6138L10.6085 16.6468L11.0034 15.3189L11.1262 15.2692L11.2478 15.2254L11.382 15.187L11.5152 15.1586L11.6496 15.131L11.7936 15.1097L11.9377 15.0875L12.0879 15.0761L12.2431 15.0656L12.4049 15.0597L12.5715 15.0537H12.7442H12.922H13.1051L13.3001 15.0597L13.4948 15.0656L13.65 15.0761L13.8175 15.104L13.9893 15.1427L14.1669 15.1924L14.3396 15.2592L14.5067 15.3359L14.6732 15.4295L14.83 15.5338L14.9669 15.6558L15.0907 15.7874L15.2023 15.9358L15.2847 16.1013L15.3409 16.2786L15.3733 16.4654V16.6744L15.3409 16.895L14.7795 19.8044Z" fill="white"/>
<path d="M14.7795 19.8044L14.5564 21.0277H13.1552L13.1943 20.8019L13.2232 20.5981L13.2439 20.4437L13.2668 20.361L13.1891 20.4491L13.0996 20.5378L12.9946 20.6205L12.8773 20.697L12.7442 20.7746L12.6051 20.84L12.46 20.9065L12.31 20.9617L12.1479 21.0112L11.9881 21.0504L11.8261 21.0833L11.6603 21.105L11.4985 21.1163L11.3381 21.1217L11.1816 21.105L11.031 21.0833L10.8365 21.0333L10.6587 20.9782L10.5032 20.9065L10.3641 20.8238L10.2425 20.7362L10.1317 20.6367L10.0417 20.5316L9.96398 20.4218L9.89769 20.3061L9.84149 20.1839L9.79761 20.0639L9.76404 19.9425L9.7414 19.8157L9.72502 19.6884L9.71387 19.567V19.4459L9.72995 19.2307L9.76404 19.0274L9.81968 18.8347L9.89197 18.6471L9.9806 18.4708L10.0805 18.3113L10.1975 18.1575L10.3314 18.0191L10.4707 17.8923L10.626 17.776L10.7874 17.6719L10.9535 17.5833L11.1311 17.5073L11.3155 17.4457L11.5042 17.3965L11.6993 17.3632H11.7096L11.7374 17.3575L11.7773 17.3521L11.8376 17.3467L11.9044 17.3359L11.9821 17.3302L12.065 17.3191L12.1602 17.3083L12.2546 17.2975L12.3498 17.2867L12.4502 17.2805L12.5383 17.2697L12.628 17.2643L12.7104 17.2578L12.7889 17.2532H12.8495H12.9782L13.1116 17.2578L13.2333 17.2643H13.3554L13.4555 17.2697L13.5338 17.2748L13.5886 17.2805H13.6056L13.617 17.2418L13.65 17.1432L13.6773 17.0266L13.6888 16.9226L13.6667 16.8017L13.617 16.6903L13.5499 16.5919L13.4605 16.5089L13.3554 16.4384L13.239 16.3881L13.1051 16.3546L12.961 16.344L12.8053 16.3384L12.6376 16.333H12.4657L12.2882 16.3384L12.1049 16.3497L11.9262 16.3657L11.7489 16.3824L11.5768 16.4046L11.409 16.4262L11.2478 16.4541L11.1036 16.4808L10.9707 16.5089L10.8483 16.543L10.7476 16.5752L10.6704 16.6138L10.6085 16.6468L11.0034 15.3189L11.1262 15.2692L11.2478 15.2254L11.382 15.187L11.5152 15.1586L11.6496 15.131L11.7936 15.1097L11.9377 15.0875L12.0879 15.0761L12.2431 15.0656L12.4049 15.0597L12.5715 15.0537H12.7442H12.922H13.1051L13.3001 15.0597L13.4948 15.0656L13.65 15.0761L13.8175 15.104L13.9893 15.1427L14.1669 15.1924L14.3396 15.2592L14.5067 15.3359L14.6732 15.4295L14.83 15.5338L14.9669 15.6558L15.0907 15.7874L15.2023 15.9358L15.2847 16.1013L15.3409 16.2786L15.3733 16.4654V16.6744L15.3409 16.895L14.7795 19.8044Z" stroke="white" stroke-width="0.216" stroke-miterlimit="2.6131"/>
<path fill-rule="evenodd" clip-rule="evenodd" d="M13.4391 18.3658L13.4334 18.3385L13.4108 18.3112L13.3775 18.2942L13.3224 18.2836L13.261 18.2731L13.189 18.2666H13.105H13.0213L12.9334 18.2731L12.8391 18.2836L12.7499 18.2942L12.6604 18.3061L12.5772 18.3169L12.4992 18.3328L12.4329 18.3499L12.3713 18.3658L12.3328 18.3769L12.2881 18.3942L12.227 18.4158L12.1651 18.4431L12.0934 18.4764L12.0211 18.5156L11.9433 18.5534L11.871 18.5978L11.7936 18.6526L11.721 18.7075L11.6537 18.7743L11.5934 18.8405L11.5372 18.9114L11.4985 18.9895L11.466 19.0768L11.448 19.1652L11.4434 19.3528L11.4704 19.5012L11.5263 19.6118L11.5986 19.6945L11.682 19.7494L11.7772 19.7824L11.8661 19.7992L11.9548 19.8043L12.1212 19.7992L12.2717 19.7824L12.4163 19.7597L12.5445 19.727L12.6547 19.6883L12.7608 19.6394L12.8552 19.5896L12.9392 19.5288L13.0115 19.4737L13.0769 19.4077L13.1331 19.3474L13.1776 19.2812L13.216 19.215L13.2509 19.149L13.2782 19.0879L13.2935 19.0273L13.339 18.8681L13.3775 18.6856L13.4108 18.5099L13.4391 18.3658Z" fill="#EC1C2E"/>
<path fill-rule="evenodd" clip-rule="evenodd" d="M3.08069 21.0276H1.56934L2.83141 13.7928H5.4605L5.71145 18.0853L7.52966 13.7928H10.276L8.98564 21.0276H7.47345L8.43004 15.6222H8.36947L6.10557 21.0276H4.39947L4.38831 20.8019L4.34929 20.201L4.29938 19.3475L4.24318 18.3659L4.18727 17.3802L4.13736 16.5157L4.09837 15.8872L4.08719 15.6222H4.07137H4.03781H4.00451L3.08069 21.0276Z" fill="white"/>
<path d="M3.08069 21.0276H1.56934L2.83141 13.7928H5.4605L5.71145 18.0853L7.52966 13.7928H10.276L8.98564 21.0276H7.47345L8.43004 15.6222H8.36947L6.10557 21.0276H4.39947L4.38831 20.8019L4.34929 20.201L4.29938 19.3475L4.24318 18.3659L4.18727 17.3802L4.13736 16.5157L4.09837 15.8872L4.08719 15.6222H4.07137H4.03781H4.00451L3.08069 21.0276Z" stroke="white" stroke-width="0.216" stroke-miterlimit="2.6131"/>
<path fill-rule="evenodd" clip-rule="evenodd" d="M42.3745 19.8044L42.1459 21.0277H40.7499L40.7606 20.8019L40.7663 20.6038V20.4553L40.7772 20.3894L40.7054 20.4718L40.6217 20.554L40.5222 20.6311L40.4106 20.7089L40.2947 20.78L40.1605 20.846L40.0211 20.9125L39.8823 20.9674L39.732 21.0112L39.5762 21.055L39.4213 21.0833L39.2658 21.105L39.1038 21.1163L38.9489 21.1217L38.7983 21.105L38.6478 21.0833L38.4478 21.0333L38.2708 20.9782L38.114 20.9065L37.9689 20.8238L37.8472 20.7362L37.7414 20.6367L37.6527 20.5316L37.5756 20.4218L37.5087 20.3061L37.4583 20.1839L37.4138 20.0639L37.3863 19.9425L37.3625 19.8157L37.3472 19.6884L37.335 19.567V19.4459L37.3472 19.2307L37.3805 19.0274L37.4302 18.8347L37.503 18.6471L37.5859 18.4708L37.6918 18.3113L37.8082 18.1575L37.9364 18.0191L38.0812 17.8923L38.231 17.776L38.3925 17.6719L38.5651 17.5833L38.7372 17.5073L38.9202 17.4457L39.1038 17.3965L39.2928 17.3632H39.3043L39.331 17.3575L39.3709 17.3521L39.4262 17.3467L39.499 17.3359L39.5762 17.3302L39.6602 17.3191L39.7481 17.3083L39.8438 17.2975L39.9439 17.2867L40.0383 17.2805L40.1327 17.2697L40.2213 17.2643L40.299 17.2578L40.3773 17.2532H40.4381H40.5718L40.7054 17.2578L40.8334 17.2643H40.9556L41.0614 17.2697L41.15 17.2748L41.2 17.2805H41.2229L41.2343 17.2418L41.2507 17.1432L41.2668 17.0266L41.2774 16.9226L41.2562 16.8017L41.212 16.6903L41.1397 16.5919L41.0551 16.5089L40.9556 16.4384L40.8391 16.3881L40.7166 16.3546L40.5824 16.344L40.4267 16.3384L40.2606 16.333H40.0879L39.9095 16.3384L39.7271 16.3497L39.5487 16.3657L39.3709 16.3824L39.1982 16.4046L39.031 16.4262L38.8709 16.4541L38.7258 16.4808L38.5927 16.5089L38.4699 16.543L38.3707 16.5752L38.2915 16.6138L38.231 16.6468L38.6205 15.3189L38.7421 15.2692L38.8709 15.2254L38.9985 15.187L39.1314 15.1586L39.2707 15.131L39.4101 15.1097L39.5536 15.0875L39.705 15.0761L39.8596 15.0656L40.0211 15.0597L40.1823 15.0537H40.3552H40.527H40.7054L40.8945 15.0597L41.0832 15.0656L41.2392 15.0761L41.4059 15.104L41.578 15.1427L41.7564 15.1924L41.929 15.2592L42.1003 15.3359L42.267 15.4295L42.423 15.5338L42.5629 15.6558L42.6898 15.7874L42.8008 15.9358L42.8848 16.1013L42.9459 16.2786L42.9857 16.4654V16.6744L42.9573 16.895L42.3745 19.8044Z" fill="white"/>
<path fill-rule="evenodd" clip-rule="evenodd" d="M42.1445 21.0668L42.1771 21.0333L42.406 19.8097L42.3389 19.7992L42.1104 21.023L42.1445 20.989V21.0668L42.1713 21.0606L42.1771 21.0333L42.1445 21.0668Z" fill="white"/>
<path fill-rule="evenodd" clip-rule="evenodd" d="M40.7164 21.0275L40.7497 21.0667H42.1456V20.9889H40.7497L40.7832 21.0275H40.7164L40.7109 21.0667H40.7497L40.7164 21.0275Z" fill="white"/>
<path fill-rule="evenodd" clip-rule="evenodd" d="M40.8062 20.4098L40.7551 20.3666L40.7332 20.4552L40.7269 20.6037V20.8018L40.7168 21.0276H40.7838L40.7947 20.8018L40.8062 20.6037L40.8005 20.4552V20.4098L40.7501 20.3666L40.8062 20.4098Z" fill="white"/>
<path fill-rule="evenodd" clip-rule="evenodd" d="M38.6426 21.1162L38.7983 21.1381L38.9489 21.1541L39.1038 21.1495L39.2658 21.1381L39.4262 21.1162L39.5819 21.0881L39.7382 21.0451L39.8929 21.0003L40.0325 20.9451L40.1766 20.8794L40.311 20.8134L40.4267 20.7361L40.544 20.6583L40.6435 20.582L40.733 20.4931L40.8058 20.4098L40.7499 20.3666L40.6776 20.449L40.5996 20.5263L40.4992 20.6037L40.394 20.681L40.2772 20.7469L40.1441 20.8134L40.0105 20.8794L39.8714 20.934L39.7271 20.9781L39.5711 21.023L39.4147 21.0503L39.2658 21.0716L39.1038 21.0832L38.9489 21.0881L38.7983 21.0716L38.654 21.0503L38.6426 21.1162Z" fill="white"/>
<path fill-rule="evenodd" clip-rule="evenodd" d="M37.2969 19.4459L37.3018 19.567L37.3133 19.6884L37.3304 19.8212L37.3525 19.9479L37.3801 20.0693L37.4248 20.1958L37.4744 20.3224L37.5473 20.4383L37.6245 20.554L37.7142 20.6584L37.8249 20.7633L37.9526 20.8517L38.0971 20.9401L38.2592 21.0112L38.4416 21.0669L38.6421 21.1163L38.6536 21.0504L38.4531 21.0004L38.281 20.9452L38.1304 20.8741L37.9856 20.7963L37.8689 20.7089L37.7687 20.6143L37.6801 20.51L37.6018 20.4048L37.5415 20.2897L37.4916 20.1739L37.4463 20.0591L37.4191 19.9371L37.3973 19.8098L37.3801 19.6884L37.3686 19.567L37.3744 19.4459H37.2969Z" fill="white"/>
<path fill-rule="evenodd" clip-rule="evenodd" d="M39.2924 17.3302L39.0982 17.3632L38.9094 17.4132L38.7253 17.4735L38.5478 17.5505L38.3748 17.6387L38.2087 17.7492L38.0579 17.8655L37.9138 17.9971L37.7802 18.1347L37.6629 18.2891L37.5522 18.4545L37.4687 18.6367L37.3973 18.8235L37.3468 19.0217L37.3133 19.2307L37.2969 19.4459H37.3744L37.3801 19.2307L37.4133 19.0331L37.4635 18.846L37.5358 18.6584L37.6187 18.4872L37.7186 18.3329L37.8361 18.1788L37.9578 18.0417L38.1023 17.9201L38.2529 17.8038L38.4076 17.7052L38.5819 17.6162L38.7474 17.54L38.9312 17.4794L39.1091 17.4294L39.2924 17.3964V17.3302Z" fill="white"/>
<path fill-rule="evenodd" clip-rule="evenodd" d="M40.4373 17.2141H40.3765L40.2982 17.2257L40.2204 17.2322L40.1318 17.2365L40.0374 17.2471L39.9431 17.253L39.843 17.2641L39.7472 17.2747L39.6594 17.2866L39.5754 17.2974L39.4982 17.3025L39.4254 17.3141L39.37 17.319L39.3253 17.3244L39.3034 17.3301H39.292V17.3963H39.3034L39.3367 17.3904L39.37 17.3858L39.4254 17.3801L39.4982 17.369L39.5754 17.3631L39.6594 17.352L39.7472 17.3406L39.843 17.3301L39.9431 17.319L40.0374 17.3141L40.1318 17.3025L40.2204 17.2974L40.2982 17.2914H40.3765H40.4373V17.2141Z" fill="white"/>
<path fill-rule="evenodd" clip-rule="evenodd" d="M41.1894 17.2747L41.2233 17.2471H41.2004L41.1504 17.2417L41.0616 17.2365L40.9556 17.2257H40.8333H40.7052L40.5713 17.2141H40.4375V17.2914H40.5713H40.7052L40.8333 17.3025H40.9556H41.0616L41.1504 17.3082L41.2004 17.3141H41.2233L41.2566 17.2866L41.2233 17.3141L41.2512 17.319L41.2566 17.2866L41.1894 17.2747Z" fill="white"/>
<path fill-rule="evenodd" clip-rule="evenodd" d="M41.2445 16.9226H41.2388L41.2339 17.0267L41.2158 17.1375L41.1994 17.2367L41.1885 17.2749L41.2558 17.2868L41.2664 17.2473L41.2828 17.1473L41.299 17.0267L41.3162 16.9226H41.3113H41.2445Z" fill="white"/>
<path fill-rule="evenodd" clip-rule="evenodd" d="M40.5811 16.3769V16.3823L40.71 16.388L40.8266 16.4212L40.9375 16.4704L41.0326 16.5367L41.1099 16.6137L41.1768 16.7072L41.2224 16.8065L41.2445 16.9224H41.3112L41.2882 16.7962L41.2445 16.6743L41.1661 16.5702L41.0776 16.4807L40.9717 16.4045L40.8488 16.3544L40.7207 16.3223L40.5811 16.3058V16.3107V16.3769Z" fill="white"/>
<path fill-rule="evenodd" clip-rule="evenodd" d="M38.1973 16.6416L38.2529 16.6743L38.3083 16.6467L38.3806 16.6081L38.476 16.5751L38.5971 16.5429L38.7316 16.5156L38.8751 16.4872L39.0362 16.4597L39.1977 16.4383L39.3704 16.4148L39.5482 16.3983L39.7266 16.3823L39.9091 16.3715H40.0875H40.2601H40.4262L40.582 16.3769V16.3107L40.4262 16.3058L40.2601 16.2939H40.0875L39.9091 16.3058L39.7266 16.3158L39.5482 16.3329L39.3704 16.3496L39.1977 16.3715L39.0256 16.3929L38.8639 16.4213L38.7201 16.4488L38.5859 16.4764L38.4637 16.5089L38.3587 16.5429L38.2753 16.5805L38.2087 16.6194L38.2641 16.6524L38.1973 16.6416Z" fill="white"/>
<path fill-rule="evenodd" clip-rule="evenodd" d="M38.61 15.2855L38.5865 15.3134L38.1973 16.6415L38.2642 16.6524L38.6542 15.3236L38.6315 15.352L38.61 15.2855L38.5928 15.2912L38.5865 15.3134L38.61 15.2855Z" fill="white"/>
<path fill-rule="evenodd" clip-rule="evenodd" d="M41.0827 15.0328L40.894 15.0217L40.705 15.0157H40.5266H40.3548H40.1818L40.0206 15.0271L39.8592 15.0328L39.7045 15.0441L39.5531 15.0536L39.4034 15.076L39.2654 15.0985L39.126 15.1263L38.9918 15.1539L38.859 15.1923L38.7316 15.2361L38.6094 15.2855L38.6309 15.352L38.7536 15.3026L38.8808 15.2591L39.0032 15.2193L39.1371 15.1923L39.2766 15.1642L39.4143 15.1425L39.5531 15.1204L39.7045 15.1096L39.8592 15.0985L40.0206 15.0933H40.1818H40.3548H40.5266H40.705L40.894 15.0985H41.0827V15.0328Z" fill="white"/>
<path fill-rule="evenodd" clip-rule="evenodd" d="M42.9894 16.9006L43.017 16.6743V16.4654L42.9788 16.2718L42.9169 16.0901L42.828 15.9201L42.7158 15.7655L42.5827 15.6281L42.4445 15.5065L42.283 15.401L42.1161 15.3026L41.9382 15.2253L41.7658 15.1585L41.5831 15.1096L41.4096 15.0712L41.2381 15.0442L41.082 15.0328V15.0985L41.2381 15.1096L41.399 15.1375L41.5713 15.1756L41.7429 15.2253L41.9164 15.2913L42.0828 15.3689L42.2497 15.4567L42.3997 15.5613L42.5391 15.6822L42.661 15.8095L42.7721 15.952L42.8495 16.1131L42.9112 16.2837L42.9504 16.4654V16.6743L42.9226 16.8898L42.9894 16.9006Z" fill="white"/>
<path fill-rule="evenodd" clip-rule="evenodd" d="M42.4058 19.8098L42.9906 16.9007L42.9237 16.8899L42.3389 19.7993L42.4058 19.8098Z" fill="white"/>
<path fill-rule="evenodd" clip-rule="evenodd" d="M41.0276 18.3659L41.0167 18.3329L40.9954 18.3061L40.9556 18.2891L40.9003 18.2732L40.8392 18.2667L40.7663 18.261H40.6829L40.5997 18.2667L40.5108 18.278L40.4216 18.2891L40.3329 18.3005L40.2486 18.3113L40.1671 18.328L40.0937 18.3386L40.0211 18.3553L39.9658 18.3659L39.9273 18.3716L39.8823 18.3883L39.8272 18.4051L39.7653 18.427L39.6928 18.4591L39.627 18.4932L39.5487 18.5319L39.4767 18.5808L39.4039 18.6308L39.3311 18.6914L39.2708 18.7514L39.2097 18.8236L39.1593 18.9006L39.1202 18.9831L39.0878 19.0717L39.0712 19.1653L39.0654 19.3529L39.0916 19.5013L39.1377 19.6119L39.204 19.6946L39.2872 19.7495L39.3824 19.7825L39.4767 19.7992L39.5711 19.8044L39.7383 19.7992L39.893 19.7825L40.0383 19.7543L40.1671 19.7165L40.2882 19.6722L40.394 19.623L40.4938 19.567L40.5825 19.5013L40.6613 19.4407L40.7268 19.3694L40.7887 19.3029L40.8392 19.2307L40.8773 19.1653L40.906 19.0985L40.9281 19.0331L40.9442 18.9725L40.9668 18.8179L40.9954 18.6584L41.0167 18.5043L41.0276 18.3659Z" fill="#FBB231"/>
<path fill-rule="evenodd" clip-rule="evenodd" d="M52.4805 20.2737L52.4933 20.1461L52.5358 19.9972L52.6141 19.865L52.7085 19.7495L52.8258 19.6563L52.96 19.5898L53.1045 19.5449L53.2595 19.5289L53.4157 19.5449L53.5597 19.5898L53.6934 19.6563L53.8107 19.7495L53.9054 19.865L53.9828 19.9972L54.0267 20.1461L54.0387 20.2737H53.8713L53.8663 20.174L53.832 20.0523L53.7766 19.9425L53.7043 19.8479L53.616 19.7712L53.5101 19.7165L53.3876 19.6779L53.2595 19.6665L53.1321 19.6779L53.0102 19.7165L52.9043 19.7712L52.8143 19.8479L52.7426 19.9425L52.6875 20.0523L52.6539 20.174L52.6425 20.2737H52.4805Z" fill="white"/>
<path fill-rule="evenodd" clip-rule="evenodd" d="M52.9805 20.2737V19.9425H53.2864L53.3541 19.9479L53.4153 19.9587L53.4593 19.9752L53.4983 19.9971L53.5262 20.0306L53.5483 20.0639L53.5595 20.1017L53.5652 20.1409L53.5595 20.1901L53.5483 20.2288L53.5319 20.262L53.5205 20.2737H53.2864L53.3085 20.2675L53.3481 20.262L53.3812 20.2515L53.4096 20.2401L53.4317 20.2237L53.4432 20.2064L53.4536 20.1799V20.1409L53.4478 20.1131L53.4366 20.0909L53.421 20.0801L53.4038 20.0693L53.3754 20.0639L53.3481 20.059H53.32H53.2864H53.12V20.2737H52.9805Z" fill="white"/>
<path fill-rule="evenodd" clip-rule="evenodd" d="M52.479 20.2736L52.4746 20.306L52.4918 20.4658L52.5343 20.6142L52.6126 20.7469L52.707 20.8572L52.8243 20.9499L52.9585 21.0229L53.103 21.0667L53.258 21.0832L53.4142 21.0667L53.5582 21.0229L53.6919 20.9499L53.8092 20.8572L53.9039 20.7469L53.9813 20.6142L54.0252 20.4658L54.0413 20.306L54.0372 20.2736H53.8698L53.8755 20.306L53.8648 20.4382L53.8305 20.5596L53.7751 20.6645L53.7028 20.7572L53.6145 20.8351L53.5086 20.8951L53.3861 20.934L53.258 20.9451L53.1306 20.934L53.0087 20.8951L52.9028 20.8351L52.8128 20.7572L52.7411 20.6645L52.686 20.5596L52.6524 20.4382L52.641 20.306V20.2736H52.479Z" fill="white"/>
<path fill-rule="evenodd" clip-rule="evenodd" d="M52.9805 20.2736V20.6093H53.12V20.3338H53.2588L53.4251 20.6093H53.5377L53.3705 20.3338H53.4096L53.4478 20.3222L53.4814 20.3111L53.5098 20.2895L53.5205 20.2736H53.2864L53.2588 20.2787H53.12V20.2736H52.9805Z" fill="white"/>
<path d="M52.4746 20.3059L52.4918 20.1461L52.5344 19.9972L52.6127 19.865L52.7071 19.7494L52.8244 19.6562L52.9586 19.5895L53.103 19.5449L53.2579 19.5289L53.4142 19.5449L53.5583 19.5895L53.692 19.6562L53.8094 19.7494L53.9038 19.865L53.9814 19.9972L54.0254 20.1461L54.0415 20.3059L54.0254 20.4658L53.9814 20.6143L53.9038 20.7469L53.8094 20.8571L53.692 20.95L53.5583 21.023L53.4142 21.0667L53.2579 21.0833L53.103 21.0667L52.9586 21.023L52.8244 20.95L52.7071 20.8571L52.6127 20.7469L52.5344 20.6143L52.4918 20.4658L52.4746 20.3059ZM53.1195 20.6094H52.98V19.9426H53.2854L53.353 19.9479L53.4142 19.9585L53.4582 19.9752L53.4971 19.9972L53.525 20.0305L53.5472 20.0638L53.5583 20.1018L53.564 20.1408L53.5583 20.19L53.5472 20.2287L53.5307 20.262L53.5086 20.2896L53.4803 20.3112L53.4467 20.3222L53.4084 20.3339H53.3695L53.5364 20.6094H53.4242L53.2579 20.3339H53.1195V20.6094V20.6094ZM53.2579 20.2786L53.3076 20.2673L53.3473 20.262L53.3802 20.2513L53.4084 20.24L53.4306 20.2237L53.442 20.2063L53.4524 20.1798V20.1408L53.4467 20.1131L53.4356 20.0907L53.4199 20.0802L53.4027 20.0691L53.3745 20.0638L53.3473 20.0589H53.1195V20.2786H53.2579V20.2786ZM53.2579 20.9451L53.3863 20.934L53.5086 20.895L53.6145 20.8351L53.7028 20.7572L53.775 20.6646L53.8304 20.5597L53.8648 20.4381L53.8755 20.3059L53.8648 20.1737L53.8304 20.0521L53.775 19.9426L53.7028 19.8479L53.6145 19.771L53.5086 19.7165L53.3863 19.6778L53.2579 19.6664L53.1305 19.6778L53.0086 19.7165L52.9027 19.771L52.8129 19.8479L52.7411 19.9426L52.686 20.0521L52.6524 20.1737L52.641 20.3059L52.6524 20.4381L52.686 20.5597L52.7411 20.6646L52.8129 20.7572L52.9027 20.8351L53.0086 20.895L53.1305 20.934L53.2579 20.9451Z" stroke="white" stroke-width="0.216" stroke-miterlimit="2.6131"/>
<path fill-rule="evenodd" clip-rule="evenodd" d="M42.79 21.0276H44.3584L44.9192 17.8922L44.941 17.7719L44.9751 17.65L45.0078 17.5286L45.0526 17.4075L45.1079 17.2867L45.1745 17.1704L45.2471 17.0604L45.3362 16.9555L45.4363 16.8622L45.5471 16.7736L45.6753 16.6903L45.8193 16.6243L45.9808 16.5703L46.1589 16.5259L46.3528 16.4927L46.5697 16.4808H46.6485H46.6924H46.7088L46.9592 15.0656L46.8031 15.0761L46.6534 15.0934L46.5143 15.1204L46.3803 15.1585L46.2584 15.2026L46.142 15.2591L46.0304 15.3189L45.9246 15.3848L45.8253 15.4627L45.7304 15.5395L45.6414 15.6281L45.5531 15.7154L45.4688 15.8095L45.3859 15.9136L45.3027 16.0128L45.2252 16.1237L45.3919 15.1264H43.829L42.79 21.0276Z" fill="white"/>
<path d="M42.79 21.0276H44.3584L44.9192 17.8922L44.941 17.7719L44.9751 17.65L45.0078 17.5286L45.0526 17.4075L45.1079 17.2867L45.1745 17.1704L45.2471 17.0604L45.3362 16.9555L45.4363 16.8622L45.5471 16.7736L45.6753 16.6903L45.8193 16.6243L45.9808 16.5703L46.1589 16.5259L46.3528 16.4927L46.5697 16.4808H46.6485H46.6924H46.7088L46.9592 15.0656L46.8031 15.0761L46.6534 15.0934L46.5143 15.1204L46.3803 15.1585L46.2584 15.2026L46.142 15.2591L46.0304 15.3189L45.9246 15.3848L45.8253 15.4627L45.7304 15.5395L45.6414 15.6281L45.5531 15.7154L45.4688 15.8095L45.3859 15.9136L45.3027 16.0128L45.2252 16.1237L45.3919 15.1264H43.829L42.79 21.0276Z" stroke="white" stroke-width="0.216" stroke-miterlimit="2.6131"/>
<path fill-rule="evenodd" clip-rule="evenodd" d="M28.0674 21.0276H29.6346H29.6625L30.1968 17.8922L30.2192 17.7719L30.2467 17.6554L30.2743 17.54L30.3135 17.4294L30.3575 17.3191L30.4137 17.2142L30.4799 17.1153L30.5577 17.0217L30.6469 16.9382L30.747 16.8563L30.87 16.7898L31.0025 16.7298L31.1583 16.6792L31.3309 16.6365L31.5202 16.6081L31.7363 16.5919H31.7537L31.7758 16.5976L31.8034 16.6027H31.8315L31.859 16.6081L31.8816 16.6138L31.8972 16.6195H31.9034L31.9092 16.5976L31.9258 16.5311L31.9479 16.4324L31.9763 16.3107L32.0145 16.1675L32.0537 16.0128L32.1042 15.8587L32.1533 15.7038L32.1986 15.5997L32.2539 15.4943L32.3096 15.3905L32.365 15.297L32.4146 15.2145L32.4536 15.1483L32.4814 15.1096L32.4923 15.0934H32.488L32.4651 15.0874L32.4378 15.0818L32.3982 15.0761H32.3601L32.3153 15.0712L32.2763 15.0656H32.237L32.0644 15.0761L31.9092 15.0934L31.7643 15.1204L31.6318 15.154L31.5036 15.1977L31.3866 15.2532L31.2805 15.3075L31.1804 15.3735L31.0868 15.4456L30.9968 15.5284L30.9139 15.6114L30.8307 15.7038L30.747 15.7984L30.6695 15.9036L30.5863 16.0128L30.5023 16.1237L30.7022 15.1264H29.1069L28.0674 21.0276Z" fill="white"/>
<path d="M28.0674 21.0276H29.6346H29.6625L30.1968 17.8922L30.2192 17.7719L30.2467 17.6554L30.2743 17.54L30.3135 17.4294L30.3575 17.3191L30.4137 17.2142L30.4799 17.1153L30.5577 17.0217L30.6469 16.9382L30.747 16.8563L30.87 16.7898L31.0025 16.7298L31.1583 16.6792L31.3309 16.6365L31.5202 16.6081L31.7363 16.5919H31.7537L31.7758 16.5976L31.8034 16.6027H31.8315L31.859 16.6081L31.8816 16.6138L31.8972 16.6195H31.9034L31.9092 16.5976L31.9258 16.5311L31.9479 16.4324L31.9763 16.3107L32.0145 16.1675L32.0537 16.0128L32.1042 15.8587L32.1533 15.7038L32.1986 15.5997L32.2539 15.4943L32.3096 15.3905L32.365 15.297L32.4146 15.2145L32.4536 15.1483L32.4814 15.1096L32.4923 15.0934H32.488L32.4651 15.0874L32.4378 15.0818L32.3982 15.0761H32.3601L32.3153 15.0712L32.2763 15.0656H32.237L32.0644 15.0761L31.9092 15.0934L31.7643 15.1204L31.6318 15.154L31.5036 15.1977L31.3866 15.2532L31.2805 15.3075L31.1804 15.3735L31.0868 15.4456L30.9968 15.5284L30.9139 15.6114L30.8307 15.7038L30.747 15.7984L30.6695 15.9036L30.5863 16.0128L30.5023 16.1237L30.7022 15.1264H29.1069L28.0674 21.0276Z" stroke="white" stroke-width="0.216" stroke-miterlimit="2.6131"/>
<path fill-rule="evenodd" clip-rule="evenodd" d="M52.4932 26.8249V26.8025L52.5357 26.6597L52.614 26.5329L52.7084 26.4229L52.8257 26.3348L52.9598 26.268L53.1044 26.2302L53.2593 26.2131L53.4156 26.2302L53.5596 26.268L53.6933 26.3348L53.8106 26.4229L53.9052 26.5329L53.9827 26.6597L54.0266 26.8025V26.8249H53.8662L53.8318 26.71L53.7765 26.6049L53.7042 26.5105L53.6158 26.434L53.51 26.3729L53.3875 26.3348L53.2593 26.3234L53.1319 26.3348L53.01 26.3729L52.9042 26.434L52.8142 26.5105L52.7424 26.6049L52.6873 26.71L52.6538 26.8249H52.4932Z" fill="#FBB231"/>
<path fill-rule="evenodd" clip-rule="evenodd" d="M52.9805 26.825V26.6328H53.2864H53.3541L53.4153 26.6436L53.4593 26.6536L53.4983 26.6755L53.5262 26.7039L53.5483 26.7372L53.5595 26.7756L53.5652 26.825H53.4536V26.7974L53.4478 26.7699L53.4366 26.7477L53.421 26.7372L53.4038 26.7258L53.3754 26.7201L53.3481 26.7153H53.32H53.2864H53.12V26.825H52.9805Z" fill="#FBB231"/>
<path fill-rule="evenodd" clip-rule="evenodd" d="M52.4746 26.9459L52.4918 26.8251H52.6521V26.8299L52.6407 26.9459H52.4746Z" fill="#FBB231"/>
<path fill-rule="evenodd" clip-rule="evenodd" d="M52.9805 26.9459V26.8251H53.12V26.9351H53.2588L53.3085 26.9248L53.3481 26.9192L53.3812 26.9073L53.4096 26.8967L53.4317 26.8805L53.4432 26.8635L53.4536 26.8367V26.8251H53.5652L53.5595 26.8635L53.5483 26.8967L53.5319 26.9248L53.5098 26.9459H52.9805Z" fill="#FBB231"/>
<path fill-rule="evenodd" clip-rule="evenodd" d="M53.8768 26.9459L53.8662 26.8299V26.8251H54.0263L54.0424 26.9459H53.8768Z" fill="#FBB231"/>
<path fill-rule="evenodd" clip-rule="evenodd" d="M52.4746 26.9459V26.9627L52.4918 27.1222L52.5343 27.2711L52.6126 27.4036L52.707 27.519L52.8243 27.6134L52.9585 27.6788L53.103 27.7234L53.258 27.7396L53.4142 27.7234L53.5582 27.6788L53.6919 27.6134L53.8092 27.519L53.9039 27.4036L53.9813 27.2711L54.0252 27.1222L54.0413 26.9627V26.9459H53.8755V26.9627L53.8648 27.0951L53.8305 27.2165L53.7751 27.3206L53.7028 27.4136L53.6145 27.4923L53.5086 27.5526L53.3861 27.5912L53.258 27.602L53.1306 27.5912L53.0087 27.5526L52.9028 27.4923L52.8128 27.4136L52.7411 27.3206L52.686 27.2165L52.6524 27.0951L52.641 26.9627V26.9459H52.4746Z" fill="#FBB231"/>
<path fill-rule="evenodd" clip-rule="evenodd" d="M52.9805 26.9459V27.266H53.12V26.99H53.2588L53.4251 27.266H53.5377L53.3705 26.99H53.4096L53.4478 26.9797L53.4814 26.9684L53.5098 26.9459H52.9805Z" fill="#FBB231"/>
<path fill-rule="evenodd" clip-rule="evenodd" d="M28.2394 16.8832L28.1946 16.5538L28.1163 16.2614L28.0058 16.0083L27.8663 15.7875L27.7 15.5996L27.5169 15.4458L27.3166 15.3136L27.0991 15.2146L26.8774 15.131L26.6493 15.076L26.421 15.0378L26.1929 15.0158L25.9761 15.0098L25.5248 15.0328L25.1257 15.0984L24.7634 15.1976L24.4415 15.3359L24.1636 15.5011L23.9182 15.6883L23.7015 15.8974L23.5242 16.1182L23.3682 16.3497L23.2405 16.5918L23.1411 16.8292L23.0571 17.065L22.9963 17.2976L22.9511 17.5116L22.9186 17.7158L22.8964 17.8923L22.8682 18.344L22.8854 18.7512L22.9462 19.121L23.0398 19.446L23.1743 19.7381L23.3356 19.9919L23.5242 20.2177L23.7409 20.4048L23.9744 20.565L24.2255 20.7022L24.4862 20.8079L24.7583 20.8898L25.0362 20.9564L25.3152 20.9954L25.5924 21.023L25.8646 21.0276H26.048L26.2215 21.023H26.3706L26.5154 21.0167L26.6435 21.0061L26.7601 20.9954L26.871 20.9841L26.9711 20.9674L27.0655 20.95L27.1542 20.9291L27.244 20.9011L27.3277 20.8742L27.4103 20.8401L27.4997 20.8079L27.5877 20.7632L27.6775 20.7196L27.8995 19.3638L27.7386 19.4577L27.5827 19.5449L27.4224 19.6119L27.2658 19.6722L27.116 19.7218L26.9604 19.7544L26.8098 19.7824L26.6599 19.8044L26.5097 19.8157L26.3656 19.821H26.215L26.0705 19.8157L25.9264 19.8044L25.7816 19.788L25.6421 19.7711L25.498 19.7494L25.3863 19.7271L25.2755 19.6885L25.1646 19.6395L25.0637 19.5782L24.9644 19.5126L24.8746 19.4307L24.7916 19.3475L24.7136 19.2532L24.6474 19.16L24.587 19.0561L24.5416 18.9557L24.5026 18.8508L24.4804 18.746L24.4698 18.641L24.474 18.5481L24.4876 18.4766H28.0944L28.122 18.1405L28.206 17.6768L28.245 17.2579L28.2394 16.8832ZM26.7322 17.3904H24.7008L24.7029 17.3858L24.6993 17.3851L24.7137 17.3081L24.7362 17.1926L24.7695 17.0824L24.8081 16.9725L24.8585 16.8736L24.9089 16.7793L24.9694 16.6903L25.0362 16.6081L25.1092 16.5311L25.1804 16.4652L25.2651 16.4046L25.3474 16.3546L25.4425 16.3107L25.5369 16.2784L25.6313 16.2557L25.7311 16.2391L25.837 16.2334L25.9372 16.2448L26.0316 16.2614L26.1206 16.2837L26.2093 16.316L26.293 16.3603L26.3763 16.4099L26.4496 16.4652L26.5154 16.5312L26.5709 16.6081L26.6271 16.6903L26.6657 16.785L26.7046 16.8898L26.7258 16.9994L26.7372 17.121L26.7437 17.2532L26.7322 17.3904Z" fill="white"/>
</svg>
