<svg width="120" height="120" viewBox="0 0 120 120" fill="none" xmlns="http://www.w3.org/2000/svg">
<rect width="120" height="120" rx="60" fill="white"/>
<path d="M91.5879 84.0982V91.9342H76.601V84.0982H70.2202C74.7664 78.1653 79.3125 72.2325 83.8587 66.2997C83.8803 66.2656 83.9102 66.2374 83.9456 66.2177C83.981 66.1981 84.0208 66.1877 84.0612 66.1873C84.1017 66.187 84.1416 66.1968 84.1773 66.2159C84.213 66.235 84.2434 66.2627 84.2656 66.2965C88.4293 72.0339 92.593 77.7713 96.7567 83.5088C96.8768 83.6722 97.0547 84.128 96.3588 84.0982H91.5879V84.0982ZM59.675 24.7591C50.2587 37.2765 41.3993 46.343 31.9178 58.9471C31.6847 59.1932 31.5344 59.5059 31.4877 59.8415C31.441 60.1771 31.5003 60.5189 31.6573 60.8192C31.8143 61.1195 32.0612 61.3633 32.3636 61.5167C32.6659 61.67 33.0086 61.7253 33.3439 61.6746H44.5791V70.0272C43.073 67.9518 41.5668 65.8763 40.0605 63.8008C39.8988 63.6121 39.6971 63.4616 39.4701 63.3602C39.2431 63.2588 38.9964 63.2091 38.7478 63.2146C38.4992 63.2201 38.2549 63.2807 38.0326 63.392C37.8103 63.5033 37.6155 63.6626 37.4622 63.8583C32.3125 70.5786 27.6107 76.7145 22.461 83.4347C22.2169 83.7084 22.0613 84.0494 22.0147 84.413C21.9681 84.7766 22.0327 85.1458 22.2 85.4721C22.3672 85.7984 22.6293 86.0664 22.9519 86.2411C23.2744 86.4157 23.6422 86.4888 24.0071 86.4507H28.9448V94H93.9422V86.4598L97.7761 86.4541C99.8086 86.3753 100.523 84.7018 99.6064 83.4169C94.8808 76.9053 90.1551 70.3937 85.4294 63.8819C85.2765 63.6733 85.0769 63.5032 84.8467 63.3852C84.6164 63.2671 84.3618 63.2045 84.103 63.2021C83.8442 63.1998 83.5884 63.2579 83.3561 63.3717C83.1237 63.4856 82.9212 63.6521 82.7645 63.8579L77.8607 70.2574V61.6746H87.0846C87.4497 61.7271 87.8222 61.6705 88.1551 61.5119C88.4881 61.3534 88.7668 61.1 88.956 60.7837C89.1453 60.4673 89.2367 60.1021 89.2189 59.7339C89.201 59.3657 89.0746 59.0111 88.8556 58.7145L62.7648 24.803C62.59 24.5584 62.3601 24.3582 62.0937 24.2188C61.8272 24.0793 61.5317 24.0045 61.231 24.0002C60.9302 23.9959 60.6327 24.0624 60.3624 24.1942C60.0921 24.3261 59.8566 24.5196 59.6749 24.7591L59.675 24.7591ZM74.2467 91.9344H48.6403V86.4509H52.4731C54.6645 86.4987 55.4964 85.179 54.3392 83.4757L46.9336 73.2712V59.3219H35.7192C34.9537 59.3099 35.0171 58.7287 35.3287 58.3281L60.3154 27.8187C60.4036 27.6653 60.5312 27.5383 60.6852 27.451C60.8391 27.3636 61.0136 27.3191 61.1906 27.3221C61.3676 27.325 61.5405 27.3753 61.6914 27.4678C61.8424 27.5602 61.9657 27.6914 62.0487 27.8476C69.9283 38.91 77.808 47.2619 85.6877 58.3243C86.0489 58.8132 85.8704 59.3218 85.2284 59.3219H75.5064V73.3297C72.9371 76.6826 70.3678 80.0356 67.7985 83.3886C66.7039 84.9351 67.5893 86.4602 69.591 86.4508H74.2468V91.9344L74.2467 91.9344ZM46.2858 84.0982V91.9342H31.2991V84.0982H25.6459C25.191 84.0751 25.1324 83.7921 25.3034 83.5031C29.5109 78.0121 33.9817 72.2702 38.1894 66.7792C38.2514 66.6892 38.3341 66.6154 38.4306 66.5641C38.5271 66.5127 38.6345 66.4852 38.7439 66.484C38.8532 66.4828 38.9612 66.5078 39.0588 66.557C39.1565 66.6062 39.2408 66.6781 39.3048 66.7667C43.3553 72.348 47.4057 77.9294 51.4562 83.5108C51.5038 83.5578 51.5367 83.6178 51.5507 83.6832C51.5647 83.7487 51.5592 83.8169 51.535 83.8793C51.5107 83.9417 51.4688 83.9957 51.4142 84.0345C51.3597 84.0734 51.295 84.0956 51.228 84.0982H46.2858H46.2858Z" fill="#3C5460"/>
</svg>
