<svg width="120" height="120" viewBox="0 0 120 120" fill="none" xmlns="http://www.w3.org/2000/svg">
<rect width="120" height="120" rx="60" fill="white"/>
<path d="M90.8049 67.2797C90.6494 67.411 90.5398 67.5884 90.492 67.7862C90.4442 67.9841 90.4606 68.192 90.539 68.3798L95.6961 80.7103L62.4208 71.981L68.3775 49.2778L101.744 58.032L90.8049 67.2797ZM104.703 57.3618C104.664 57.1908 104.579 57.0337 104.458 56.9076C104.336 56.7815 104.182 56.6912 104.012 56.6466L67.9373 47.1818C67.6916 47.1179 67.4306 47.1539 67.2115 47.282C66.9923 47.4101 66.8329 47.6198 66.768 47.8652L60.3257 72.4212L54.9592 92.8752C54.9266 92.997 54.9185 93.1239 54.9352 93.2489C54.9519 93.3738 54.993 93.4942 55.0563 93.6031C55.1196 93.7121 55.2039 93.8075 55.3041 93.8838C55.4044 93.9602 55.5188 94.016 55.6407 94.048C55.7625 94.0801 55.8895 94.0877 56.0144 94.0705C56.1393 94.0534 56.2595 94.0117 56.3682 93.948C56.4769 93.8842 56.572 93.7996 56.6479 93.6991C56.7239 93.5985 56.7792 93.4839 56.8108 93.3619L61.9352 73.8334L97.0837 83.0543C97.163 83.0754 97.2448 83.0861 97.3269 83.086C97.4846 83.0859 97.6398 83.0468 97.7787 82.9723C97.9177 82.8978 98.0361 82.7901 98.1235 82.6589C98.2108 82.5276 98.2644 82.3768 98.2795 82.2198C98.2946 82.0629 98.2707 81.9046 98.2099 81.7591L92.5764 68.2889L104.388 58.3046C104.521 58.1913 104.621 58.0435 104.677 57.8773C104.732 57.7111 104.741 57.5328 104.703 57.3619L104.703 57.3618Z" fill="#3C5460" stroke="#3C5460" stroke-width="0.70875" stroke-linecap="round" stroke-linejoin="round"/>
<path d="M57.2583 56.1818L22.9636 53.464L31.895 43.5192C32.0312 43.3679 32.1154 43.177 32.1355 42.9744C32.1555 42.7718 32.1103 42.568 32.0064 42.393L24.723 30.0582L59.1124 32.7824L57.2583 56.1818H57.2583ZM60.8704 31.2812C60.7052 31.0885 60.4704 30.969 60.2173 30.9489L23.037 28.0037C22.8621 27.9882 22.6863 28.0218 22.5295 28.1009C22.3727 28.1799 22.2411 28.3011 22.1495 28.451C22.0567 28.5997 22.0064 28.7711 22.0042 28.9464C22.002 29.1218 22.0479 29.2944 22.137 29.4454L30.0006 42.7623L20.2449 53.6264C20.1256 53.7592 20.0459 53.9228 20.0147 54.0986C19.9835 54.2744 20.0021 54.4555 20.0685 54.6212C20.1348 54.787 20.2462 54.9309 20.39 55.0367C20.5338 55.1425 20.7044 55.206 20.8824 55.2199L57.1063 58.0898L56.2163 69.3294C56.2063 69.4548 56.2212 69.5809 56.26 69.7006C56.2989 69.8203 56.3609 69.9311 56.4426 70.0268C56.5243 70.1225 56.624 70.2011 56.7361 70.2582C56.8482 70.3153 56.9705 70.3498 57.0959 70.3596C57.1206 70.362 57.1466 70.362 57.173 70.362C57.4134 70.362 57.6449 70.2713 57.8214 70.108C57.9979 69.9448 58.1064 69.721 58.1251 69.4813L59.0909 57.2864L61.0956 31.9784C61.1158 31.7253 61.0348 31.4746 60.8705 31.2811L60.8704 31.2812Z" fill="#3C5460" stroke="#3C5460" stroke-width="0.70875" stroke-linecap="round" stroke-linejoin="round"/>
<path d="M33.6346 81.3388C33.7604 81.3389 33.885 81.3141 34.0012 81.266C34.1174 81.2178 34.2229 81.1471 34.3117 81.0581L36.6657 78.7042C36.7547 78.6153 36.8252 78.5098 36.8734 78.3936C36.9216 78.2774 36.9464 78.1529 36.9465 78.0271C36.9465 77.9013 36.9218 77.7768 36.8738 77.6606C36.8257 77.5444 36.7552 77.4387 36.6663 77.3498C36.5774 77.2608 36.4718 77.1902 36.3557 77.142C36.2395 77.0938 36.1149 77.069 35.9892 77.069C35.8634 77.0689 35.7388 77.0936 35.6226 77.1417C35.5064 77.1898 35.4008 77.2603 35.3118 77.3492L32.958 79.7043C32.8241 79.8382 32.733 80.0088 32.6961 80.1944C32.6592 80.3801 32.6782 80.5725 32.7506 80.7475C32.823 80.9224 32.9456 81.0719 33.1029 81.1771C33.2603 81.2824 33.4453 81.3386 33.6346 81.3388V81.3388Z" fill="#3C5460" stroke="#3C5460" stroke-width="0.70875" stroke-linecap="round" stroke-linejoin="round"/>
<path d="M39.4815 75.4931C39.6072 75.4933 39.7317 75.4686 39.8478 75.4205C39.9639 75.3724 40.0694 75.3018 40.1582 75.2128L42.5121 72.8575C42.6916 72.678 42.7924 72.4346 42.7924 72.1807C42.7924 71.9269 42.6916 71.6834 42.5121 71.504C42.3326 71.3245 42.0891 71.2236 41.8353 71.2236C41.5815 71.2236 41.338 71.3245 41.1585 71.504L38.8032 73.8578C38.6691 73.9919 38.5778 74.1626 38.5408 74.3486C38.5039 74.5345 38.5229 74.7272 38.5956 74.9023C38.6682 75.0774 38.7911 75.227 38.9489 75.3322C39.1066 75.4373 39.292 75.4933 39.4815 75.4931V75.4931Z" fill="#3C5460" stroke="#3C5460" stroke-width="0.70875" stroke-linecap="round" stroke-linejoin="round"/>
<path d="M35.3118 75.2128C35.4007 75.3022 35.5063 75.3731 35.6226 75.4216C35.739 75.4701 35.8637 75.4951 35.9897 75.4953C36.1158 75.4954 36.2406 75.4707 36.3571 75.4225C36.4735 75.3743 36.5793 75.3036 36.6684 75.2145C36.7575 75.1253 36.8281 75.0195 36.8762 74.903C36.9242 74.7865 36.9489 74.6616 36.9486 74.5356C36.9484 74.4096 36.9232 74.2848 36.8747 74.1685C36.8261 74.0522 36.7551 73.9467 36.6656 73.8579L34.3116 71.504C34.1321 71.325 33.8888 71.2245 33.6352 71.2247C33.3816 71.2249 33.1385 71.3257 32.9591 71.505C32.7798 71.6843 32.679 71.9274 32.6787 72.181C32.6785 72.4346 32.7789 72.6779 32.9579 72.8575L35.3117 75.2128L35.3118 75.2128Z" fill="#3C5460" stroke="#3C5460" stroke-width="0.70875" stroke-linecap="round" stroke-linejoin="round"/>
<path d="M41.1584 81.0581C41.2473 81.1472 41.3528 81.2179 41.469 81.2662C41.5852 81.3145 41.7098 81.3394 41.8356 81.3395C41.9615 81.3396 42.0861 81.3149 42.2024 81.2668C42.3186 81.2187 42.4243 81.1481 42.5133 81.0591C42.6022 80.9701 42.6728 80.8645 42.7209 80.7482C42.769 80.6319 42.7937 80.5073 42.7935 80.3815C42.7934 80.2556 42.7685 80.1311 42.7202 80.0149C42.6719 79.8987 42.6012 79.7932 42.512 79.7043L40.1581 77.3492C40.0691 77.2603 39.9635 77.1897 39.8473 77.1415C39.731 77.0934 39.6064 77.0686 39.4806 77.0686C39.3548 77.0686 39.2302 77.0934 39.114 77.1415C38.9977 77.1897 38.8921 77.2603 38.8031 77.3492C38.7141 77.4382 38.6435 77.5438 38.5954 77.6601C38.5472 77.7763 38.5225 77.9009 38.5225 78.0267C38.5225 78.1526 38.5472 78.2771 38.5954 78.3934C38.6435 78.5096 38.7141 78.6153 38.8031 78.7042L41.1584 81.0581V81.0581Z" fill="#3C5460" stroke="#3C5460" stroke-width="0.70875" stroke-linecap="round" stroke-linejoin="round"/>
<path d="M67.9868 70.2655C68.0643 70.2861 68.1442 70.2963 68.2243 70.2959C68.4369 70.2956 68.6434 70.2246 68.8112 70.0941C68.9791 69.9636 69.0988 69.781 69.1515 69.575L73.2564 53.5079C73.2875 53.3861 73.2943 53.2593 73.2765 53.1348C73.2586 53.0103 73.2164 52.8905 73.1523 52.7824C73.0881 52.6742 73.0033 52.5797 72.9026 52.5043C72.8019 52.4289 72.6874 52.3741 72.5656 52.3429C72.4437 52.3118 72.3169 52.305 72.1924 52.3228C72.0679 52.3407 71.9482 52.3829 71.84 52.4471C71.7318 52.5112 71.6373 52.596 71.5619 52.6967C71.4865 52.7974 71.4317 52.9119 71.4006 53.0338L67.2963 69.1022C67.2652 69.2239 67.2585 69.3505 67.2764 69.4749C67.2943 69.5992 67.3365 69.7188 67.4006 69.8269C67.4647 69.9349 67.5495 70.0292 67.6501 70.1045C67.7507 70.1797 67.8651 70.2345 67.9868 70.2655Z" fill="#3C5460" stroke="#3C5460" stroke-width="0.70875" stroke-linecap="round" stroke-linejoin="round"/>
<path d="M53.1936 53.0025C53.2172 53.0033 53.241 53.0047 53.2654 53.0047C53.5068 53.0043 53.7391 52.9127 53.9158 52.7483C54.0925 52.5839 54.2006 52.3588 54.2184 52.1181L55.4639 35.4077C55.4819 35.1549 55.3989 34.9052 55.2332 34.7134C55.0674 34.5216 54.8324 34.4034 54.5796 34.3846C54.3268 34.3658 54.0768 34.448 53.8845 34.6132C53.6922 34.7783 53.5732 35.013 53.5536 35.2657L52.3093 51.9763C52.3 52.1018 52.3154 52.2278 52.3548 52.3473C52.3942 52.4667 52.4568 52.5773 52.5389 52.6726C52.621 52.7678 52.7211 52.846 52.8335 52.9026C52.9458 52.9592 53.0682 52.9932 53.1937 53.0025L53.1936 53.0025Z" fill="#3C5460" stroke="#3C5460" stroke-width="0.70875" stroke-linecap="round" stroke-linejoin="round"/>
</svg>
