<svg width="120" height="120" viewBox="0 0 120 120" fill="none" xmlns="http://www.w3.org/2000/svg">
<rect width="120" height="120" rx="60" fill="white"/>
<path d="M73.1265 44.9439L71.7996 43.6171C70.834 42.6544 69.6552 41.9327 68.3588 41.5104C67.0624 41.0882 65.6847 40.9772 64.3374 41.1866L63.9785 38.89C64.5411 38.8025 65.1096 38.7585 65.679 38.7585C67.1214 38.7542 68.5504 39.0363 69.883 39.5883C71.2156 40.1403 72.4254 40.9514 73.4423 41.9744L74.7691 43.3012L73.1265 44.9439Z" fill="#3C5460" stroke="#3C5460" stroke-width="0.21603" stroke-linecap="round" stroke-linejoin="round"/>
<path d="M58.2315 44.9439L56.5889 43.3013L57.9157 41.9744C58.7842 41.1053 59.7927 40.3886 60.899 39.8541L61.9112 41.9455C61.0387 42.3668 60.2433 42.9319 59.5584 43.6171L58.2315 44.944V44.9439Z" fill="#3C5460" stroke="#3C5460" stroke-width="0.21603" stroke-linecap="round" stroke-linejoin="round"/>
<path d="M33.5605 71.7653L35.8686 72.0303L36.1346 69.7223L33.8265 69.4563L33.5605 71.7653Z" fill="#3C5460" stroke="#3C5460" stroke-width="0.21603" stroke-linecap="round" stroke-linejoin="round"/>
<path d="M52.3291 83.5249L50.8851 81.705L53.3614 79.74C54.4188 78.7463 55.78 78.1377 57.2256 78.0123C59.8664 77.9205 61.4688 77.5027 62.5808 76.6205L77.9477 64.4285C78.2612 64.1799 78.5225 63.872 78.7169 63.5224C78.9114 63.1727 79.035 62.7882 79.0808 62.3908C79.1266 61.9934 79.0936 61.5909 78.9838 61.2062C78.874 60.8216 78.6894 60.4623 78.4407 60.149L68.3536 47.4348C67.8356 46.8256 67.1055 46.4359 66.3112 46.3444C65.5168 46.2528 64.7173 46.4662 64.0742 46.9415L51.4446 56.9615C51.2082 57.1487 50.9254 57.2683 50.6264 57.3078C50.3274 57.3472 50.0233 57.3049 49.7464 57.1855C49.4695 57.066 49.2301 56.8738 49.0536 56.6292C48.8771 56.3847 48.7702 56.0969 48.7441 55.7964L48.0351 47.2423C47.9834 46.6359 47.6959 46.074 47.2343 45.6773C46.7728 45.2806 46.174 45.0808 45.5667 45.1209C44.9595 45.1609 44.3921 45.4375 43.9866 45.8914C43.5811 46.3452 43.3698 46.94 43.3982 47.5479L44.028 61.3569C44.0452 61.7188 44.0327 62.0814 43.9906 62.4412C43.7802 64.2235 42.8755 65.851 41.4726 66.9704L40.0749 68.0795L38.6309 66.2595L40.0286 65.1506C40.9502 64.4152 41.5445 63.3461 41.6826 62.1753C41.7099 61.9407 41.7179 61.7042 41.7067 61.4683L41.0777 47.6525C41.0663 47.4032 41.0747 47.1533 41.1027 46.9053C41.2347 45.7599 41.7878 44.7045 42.6545 43.9441C43.5212 43.1838 44.6396 42.7727 45.7924 42.7909C46.9452 42.809 48.0501 43.255 48.8925 44.0423C49.7348 44.8295 50.2545 45.9018 50.3504 47.0507L50.9584 54.382L62.6301 45.1218C63.1824 44.6834 63.8157 44.3582 64.4937 44.1646C65.1718 43.971 65.8813 43.9129 66.5818 43.9936C67.2823 44.0743 67.96 44.2923 68.5763 44.635C69.1925 44.9776 69.7352 45.4384 70.1734 45.9909L80.2608 58.7048C80.6992 59.2572 81.0244 59.8905 81.218 60.5686C81.4116 61.2466 81.4697 61.9562 81.3889 62.6568C81.3082 63.3573 81.0903 64.0351 80.7476 64.6514C80.4049 65.2677 79.9442 65.8105 79.3917 66.2487L64.0245 78.4404C62.0978 79.9688 59.5483 80.2554 57.3067 80.3348C56.359 80.4508 55.478 80.8824 54.8054 81.56L52.3291 83.525L52.3291 83.5249Z" fill="#3C5460" stroke="#3C5460" stroke-width="0.21603" stroke-linecap="round" stroke-linejoin="round"/>
<path d="M48.8252 92.5963L47.3812 90.7765L50.6519 88.1814C51.2847 87.6792 51.6921 86.9463 51.7846 86.1437C51.877 85.3412 51.6469 84.5348 51.1448 83.9019L37.9941 67.3266C37.4761 66.7173 36.746 66.3274 35.9515 66.2359C35.157 66.1443 34.3574 66.3579 33.7143 66.8334L30.444 69.4283L29 67.6084L32.2706 65.0133C32.823 64.575 33.4563 64.2498 34.1343 64.0563C34.8124 63.8627 35.5219 63.8047 36.2224 63.8854C36.9229 63.9661 37.6007 64.184 38.2169 64.5266C38.8332 64.8693 39.376 65.33 39.8142 65.8824L52.9647 82.458C53.4032 83.0103 53.7285 83.6435 53.9221 84.3216C54.1157 84.9997 54.1739 85.7093 54.0931 86.4098C54.0124 87.1104 53.7945 87.7881 53.4517 88.4044C53.109 89.0207 52.6481 89.5634 52.0956 90.0015L48.8252 92.5963Z" fill="#3C5460" stroke="#3C5460" stroke-width="0.21603" stroke-linecap="round" stroke-linejoin="round"/>
<path d="M29.7647 58.2614C29.7169 52.549 31.3005 46.9417 34.3294 42.0982C37.3583 37.2547 41.7067 33.3764 46.8637 30.9189C52.0206 28.4614 57.7719 27.5268 63.4416 28.225C69.1113 28.9232 74.464 31.2251 78.8707 34.8603" stroke="#3C5460" stroke-width="2.55113" stroke-linecap="round" stroke-linejoin="round"/>
<path d="M91.0829 65.767C89.6154 72.465 86.065 78.5264 80.9407 83.0825C75.8164 87.6386 69.3813 90.4555 62.5576 91.1294" stroke="#3C5460" stroke-width="2.55129" stroke-linecap="round" stroke-linejoin="round"/>
<path d="M85.8926 42.5931C88.8651 46.5514 90.7433 51.2225 91.3382 56.1368" stroke="#3C5460" stroke-width="2.55118" stroke-linecap="round" stroke-linejoin="round"/>
</svg>
