<svg width="119" height="34" viewBox="0 0 119 34" fill="none" xmlns="http://www.w3.org/2000/svg">
<path d="M105.278 7.24375C103.924 6.49763 101.81 6.11865 98.914 6.11865C97.4701 6.12025 96.0285 6.2326 94.6021 6.45468C93.542 6.61391 93.4346 6.64113 92.7758 6.78143C92.3835 6.87537 92.027 7.07994 91.7495 7.37041C91.472 7.66087 91.2852 8.0248 91.2119 8.41819L90.7789 10.1927C90.5324 11.3251 91.1828 11.2781 91.4718 11.1905C92.165 10.9405 92.8727 10.7319 93.5911 10.5658C94.6854 10.2991 95.8055 10.1499 96.932 10.1209C98.3578 10.1209 99.442 10.2761 100.163 10.5741C100.491 10.6923 100.773 10.9113 100.967 11.1992C101.16 11.4871 101.257 11.8288 101.241 12.1745C101.257 12.3434 101.237 12.5139 101.182 12.6747C101.137 12.772 101.064 12.8541 100.973 12.9109C100.881 12.9676 100.774 12.9965 100.666 12.994C98.6343 13.1128 97.1753 13.2969 95.4149 13.5528C93.8567 13.7467 92.3344 14.1608 90.8947 14.7825C89.6663 15.2803 88.6046 16.1117 87.8319 17.1811C87.1285 18.2815 86.7724 19.5649 86.8092 20.8671C86.7918 21.4958 86.9128 22.1207 87.1637 22.6984C87.4146 23.2761 87.7895 23.7927 88.2623 24.2123C89.2334 25.0657 90.4941 25.4874 92.0198 25.4874C92.7698 25.5018 93.519 25.4321 94.2531 25.2795C94.84 25.1319 95.414 24.9378 95.9695 24.6992C96.4825 24.4769 96.9732 24.2072 97.4352 23.8938C97.9564 23.5503 98.3154 23.3061 98.7784 23.0057L98.7949 23.0337L98.6643 23.6041C98.6626 23.609 98.656 23.6123 98.656 23.6156L98.6609 23.6264C98.6191 23.7763 98.6116 23.9335 98.6388 24.0867C98.666 24.2399 98.7273 24.3851 98.8182 24.5119C98.9091 24.6386 99.0273 24.7437 99.1642 24.8196C99.3012 24.8954 99.4536 24.94 99.6101 24.9503L99.6202 24.9601H99.6785L99.6835 24.9634C100.137 24.9634 101.694 24.9634 102.423 24.9601H102.93C102.939 24.9608 102.949 24.9596 102.957 24.9563C102.966 24.953 102.975 24.9478 102.981 24.9411C103.338 24.8907 103.672 24.7385 103.943 24.5032C104.214 24.2678 104.41 23.9594 104.507 23.6156L107.107 12.4929C107.173 12.1918 107.217 11.8865 107.24 11.5793C107.277 11.2977 107.298 11.0141 107.302 10.7301C107.337 10.0179 107.165 9.31078 106.806 8.69279C106.447 8.0748 105.917 7.57188 105.278 7.24375ZM98.9757 20.4999C98.53 20.7757 98.0624 21.015 97.5776 21.2155C96.9899 21.4637 96.36 21.5992 95.7213 21.6149C94.8336 21.6149 94.154 21.4895 93.6944 21.2254C93.4628 21.0962 93.274 20.9033 93.1509 20.6699C93.0278 20.4365 92.9757 20.1727 93.0008 19.9105C92.9686 19.2944 93.1501 18.6859 93.5153 18.1864C93.9281 17.7259 94.451 17.3757 95.0359 17.1679C95.8 16.9231 96.5853 16.7488 97.3818 16.6471C98.1962 16.5455 99.801 16.3615 100.006 16.3598C100.212 16.3598 100.349 16.2467 100.257 16.7883C100.216 17.0234 99.7519 18.911 99.5379 19.767C99.4232 20.0585 99.2285 20.3124 98.9757 20.4999Z" fill="#336699"/>
<path d="M60.5358 6.36399C59.7772 6.36399 58.7737 6.9764 58.3007 7.71509C58.3007 7.71509 53.1968 16.3872 52.6971 17.2522C52.424 17.7192 52.1476 17.4237 52.0991 17.2505C52.065 17.0392 50.5228 7.7729 50.5228 7.7729C50.3984 7.36158 50.1398 7.00276 49.7877 6.75259C49.4356 6.50243 49.0096 6.37504 48.5767 6.39036L45.3973 6.39526C45.2277 6.38545 45.0582 6.4162 44.9032 6.48494C44.7481 6.55368 44.612 6.65839 44.5063 6.79022C44.4007 6.92205 44.3285 7.07714 44.296 7.24241C44.2636 7.40767 44.2716 7.57826 44.3196 7.73977C44.3196 7.73977 46.7522 21.4045 47.2268 24.6168C47.4633 26.3931 47.2028 26.71 47.2028 26.71L44.0481 32.1598C43.5868 32.8961 43.84 33.5035 44.6044 33.5035L48.291 33.5011C49.0538 33.5011 50.0649 32.8993 50.5228 32.1581L64.7053 8.37787C64.7053 8.37787 66.0627 6.34743 64.8112 6.36399C63.9592 6.37802 60.5358 6.36399 60.5358 6.36399Z" fill="#003366"/>
<path d="M15.7558 11.1989C14.6799 11.9765 13.1942 12.3676 11.2614 12.3676H10.3878C10.2176 12.3776 10.0475 12.3469 9.89174 12.278C9.73602 12.2092 9.59928 12.1042 9.49306 11.972C9.38685 11.8398 9.31432 11.6842 9.2815 11.5183C9.24869 11.3525 9.25658 11.1813 9.30454 11.0191L10.3763 6.44077C10.4745 6.06471 10.6934 5.73048 11 5.48842C11.3065 5.24635 11.6841 5.10956 12.0759 5.09864L13.241 5.09036C14.6024 5.09036 15.6342 5.32064 16.3362 5.7812C17.0231 6.22695 17.3738 6.93267 17.3588 7.88264C17.3956 8.52456 17.2679 9.16527 16.9876 9.74512C16.7074 10.325 16.2836 10.8251 15.7558 11.1989ZM23.4455 4.14123C22.9982 3.28563 22.3223 2.5682 21.4918 2.06718C20.5408 1.50382 19.4927 1.11989 18.4006 0.934815C17.0108 0.710947 15.6049 0.600254 14.1969 0.603844L6.76455 0.610438C6.3732 0.62731 5.99724 0.766332 5.69037 1.00764C5.38349 1.24895 5.16145 1.58021 5.05588 1.95409L0.04349 23.5538C-0.00476285 23.7156 -0.012993 23.8866 0.0194505 24.0523C0.051894 24.2179 0.124044 24.3734 0.229879 24.5056C0.335714 24.6378 0.4721 24.7428 0.627496 24.8117C0.782891 24.8806 0.952768 24.9115 1.12274 24.9017H4.68683C5.07932 24.8891 5.45715 24.7511 5.76395 24.5082C6.07075 24.2652 6.29002 23.9304 6.38904 23.5538L7.61645 18.311C7.71687 17.9366 7.93617 17.6041 8.24194 17.3628C8.54772 17.1214 8.92373 16.984 9.3144 16.9708H10.3321C14.6882 16.9665 18.0667 16.0844 20.4924 14.3164C22.9174 12.5534 24.129 10.216 24.1241 7.32229C24.1694 6.22241 23.9361 5.1288 23.4455 4.14123Z" fill="#003366"/>
<path d="M80.412 11.2856C79.3453 12.0557 77.848 12.4412 75.9202 12.442H75.0351C74.8651 12.4532 74.695 12.4235 74.5392 12.3553C74.3833 12.2872 74.2464 12.1827 74.1402 12.0507C74.034 11.9187 73.9616 11.7632 73.9292 11.5975C73.8968 11.4318 73.9054 11.2607 73.9542 11.099L75.0235 6.51412C75.1242 6.14113 75.343 5.81002 75.6477 5.56949C75.9524 5.32895 76.327 5.1917 76.7163 5.1779L77.8856 5.17047C79.2537 5.1779 80.2763 5.40492 80.9817 5.85388C81.6746 6.31112 82.0101 7.01769 82.0152 7.95938C82.0185 9.39465 81.4831 10.4991 80.412 11.2856V11.2856ZM88.0976 4.2188C87.6435 3.36436 86.9666 2.64618 86.1374 2.139C85.186 1.57355 84.1355 1.19105 83.0411 1.01154C81.6567 0.785359 80.2554 0.676275 78.8524 0.685473L71.4017 0.68801C71.0118 0.707362 70.638 0.847876 70.3332 1.08963C70.0285 1.33138 69.8082 1.6621 69.7038 2.03488L64.6974 23.638C64.6484 23.7986 64.6392 23.9686 64.6707 24.1335C64.7021 24.2983 64.7733 24.4532 64.8781 24.585C64.9829 24.7169 65.1181 24.8217 65.2725 24.8905C65.4269 24.9594 65.5958 24.9904 65.7648 24.9808L69.3398 24.9759C69.7307 24.96 70.1066 24.8221 70.4136 24.5818C70.7207 24.3415 70.9433 24.0112 71.0496 23.638L72.257 18.3969C72.3588 18.0209 72.5802 17.6874 72.8883 17.446C73.1964 17.2045 73.5748 17.0679 73.9674 17.0565H74.9834C79.3453 17.0565 82.7335 16.1712 85.148 14.4006C87.563 12.6235 88.7762 10.2951 88.7762 7.39733C88.8118 6.2991 88.5789 5.20863 88.0976 4.2188" fill="#336699"/>
<path d="M40.6092 7.22636C39.2569 6.4794 37.1433 6.10144 34.2488 6.10144C32.8046 6.10288 31.3627 6.21461 29.9358 6.43562C28.875 6.59739 28.7693 6.62477 28.1089 6.76592C27.7167 6.85963 27.3604 7.06415 27.0832 7.35466C26.806 7.64517 26.6199 8.00918 26.5474 8.40251L26.112 10.1738C25.8637 11.3087 26.519 11.2616 26.8088 11.1725C27.5014 10.9249 28.208 10.7173 28.9249 10.5509C30.0192 10.2826 31.1398 10.1329 32.2667 10.1045C33.6916 10.1045 34.7749 10.258 35.4962 10.5558C35.8243 10.6747 36.1057 10.8942 36.2992 11.1826C36.4927 11.4709 36.5883 11.8129 36.5721 12.1588C36.5908 12.3268 36.5714 12.4968 36.5155 12.6564C36.4711 12.7541 36.3985 12.8365 36.3069 12.8934C36.2153 12.9502 36.1088 12.9789 36.0008 12.9759C33.968 13.0981 32.5116 13.282 30.7478 13.5347C29.1894 13.7286 27.6671 14.1433 26.2276 14.7661C24.9997 15.2648 23.9387 16.0967 23.1665 17.1663C22.4605 18.2646 22.1044 19.5482 22.1447 20.8499C22.1271 21.4784 22.2479 22.1032 22.4987 22.6807C22.7495 23.2583 23.1243 23.7748 23.5969 24.1942C24.5671 25.0485 25.8295 25.4711 27.3526 25.4711C28.1034 25.485 28.8535 25.4152 29.5886 25.263C30.1745 25.1147 30.7475 24.9204 31.3024 24.6821C31.8158 24.4594 32.3071 24.1897 32.7698 23.8764C33.2894 23.534 33.6517 23.2896 34.1121 22.99L34.1272 23.0172L33.9972 23.5852C33.9972 23.5909 33.9905 23.5942 33.9905 23.6008L33.9955 23.6107C33.9533 23.7603 33.9454 23.9174 33.9725 24.0704C33.9995 24.2234 34.0608 24.3684 34.1518 24.4949C34.2427 24.6214 34.3611 24.7261 34.4982 24.8013C34.6353 24.8765 34.7876 24.9204 34.9441 24.9297L34.9522 24.9429H35.0132L35.0148 24.9503C35.4704 24.9503 37.0268 24.9461 37.7545 24.9429H38.2641C38.2733 24.9437 38.2827 24.9424 38.2913 24.9391C38.3 24.9358 38.3078 24.9305 38.3141 24.9238C38.6703 24.8733 39.0041 24.7214 39.2749 24.4865C39.5457 24.2517 39.7419 23.944 39.8398 23.6008L42.4405 12.4732C42.5075 12.1734 42.5517 11.8691 42.5728 11.5628C42.6117 11.2819 42.6323 10.9988 42.6344 10.7153C42.6698 10.0025 42.4977 9.29464 42.1386 8.67606C41.7796 8.05749 41.2487 7.55427 40.6092 7.22636ZM34.3104 20.4842C33.8652 20.7613 33.3969 20.9999 32.9105 21.1974C32.3224 21.4463 31.6918 21.5819 31.0525 21.5968C30.1706 21.5968 29.4871 21.4729 29.0273 21.2089C28.7959 21.0793 28.6072 20.8861 28.484 20.6527C28.3608 20.4193 28.3084 20.1556 28.3329 19.8933C28.3001 19.2764 28.4837 18.6672 28.8525 18.1691C29.2618 17.7077 29.7832 17.3574 30.3673 17.1514C31.1329 16.9069 31.9195 16.7323 32.7172 16.6297C33.5292 16.5275 35.1347 16.3466 35.3413 16.3434C35.5444 16.3426 35.6819 16.2295 35.5911 16.7709C35.5493 17.0077 35.0881 18.8946 34.8733 19.7513C34.7572 20.0423 34.5624 20.2959 34.3104 20.4842Z" fill="#003366"/>
<path d="M117.554 0.862866H114.367L114.362 0.863361L114.361 0.862866C113.983 0.877187 113.619 1.00667 113.318 1.23364C113.017 1.46062 112.795 1.77404 112.68 2.13114C112.672 2.15658 112.66 2.18074 112.654 2.20653C112.654 2.20653 112.589 2.49869 112.476 3.01008L108.073 22.7925C107.969 23.2483 107.901 23.5394 107.88 23.6156L107.889 23.6273C107.846 23.7772 107.838 23.9347 107.865 24.0881C107.892 24.2415 107.954 24.3869 108.045 24.5136C108.137 24.6403 108.255 24.7451 108.393 24.8202C108.531 24.8953 108.684 24.9388 108.84 24.9476L108.849 24.9601H112.156C112.535 24.9451 112.901 24.8143 113.202 24.5854C113.504 24.3565 113.726 24.0409 113.84 23.6817C113.846 23.6593 113.857 23.6382 113.863 23.6156L118.638 2.20482L118.631 2.20288C118.677 2.04175 118.684 1.87214 118.65 1.70804C118.617 1.54394 118.545 1.39007 118.439 1.25915C118.334 1.12823 118.199 1.02401 118.045 0.9551C117.891 0.886193 117.723 0.854578 117.554 0.862866Z" fill="#336699"/>
</svg>
