<svg width="105" height="33" viewBox="0 0 105 33" fill="none" xmlns="http://www.w3.org/2000/svg">
<path d="M45.5176 32.4512H36.9512L42.3053 0.56958H50.8744L45.5176 32.4512Z" fill="#0066B2"/>
<path d="M29.7422 0.56958L21.5744 22.4974L20.6069 17.776V17.7774L17.7244 3.44037C17.7244 3.44037 17.3776 0.56958 13.6607 0.56958H0.157728L0 1.10995C0 1.10995 4.1294 1.94076 8.96327 4.75398L16.4059 32.451H25.3323L38.9636 0.56958H29.7422Z" fill="#0066B2"/>
<path d="M97.1334 32.451H105L98.1412 0.56958H91.2542C88.0733 0.56958 87.2976 2.94484 87.2976 2.94484L74.5205 32.451H83.4503L85.237 27.7164H96.1284L97.1334 32.451ZM87.7059 21.1746L92.2066 9.24128L94.7403 21.1746H87.7059Z" fill="#0066B2"/>
<path d="M75.1897 8.23577L76.4118 1.38906C76.4118 1.38906 72.6382 0 68.707 0C64.4541 0 54.3575 1.80048 54.3575 10.5541C54.3575 18.7913 66.2093 18.8938 66.2093 23.2177C66.2093 27.5429 55.5796 26.7703 52.0702 24.0419L50.7969 31.1982C50.7969 31.1982 54.6216 33 60.4688 33C66.3138 33 75.1371 30.0664 75.1371 22.0859C75.1371 13.7973 63.1793 13.0234 63.1793 9.42042C63.1793 5.81554 71.5239 6.27857 75.1897 8.23577Z" fill="#0066B2"/>
<path d="M20.6069 17.7774L17.7244 3.44037C17.7244 3.44037 17.3776 0.56958 13.6607 0.56958H0.157728L0 1.10995C0 1.10995 6.49167 2.41313 12.7164 7.29396C18.6693 11.9612 20.6069 17.7774 20.6069 17.7774Z" fill="#F9A533"/>
</svg>
