<svg width="47" height="32" viewBox="0 0 47 32" fill="none" xmlns="http://www.w3.org/2000/svg">
<path d="M45.2375 32H1.7625C1.29506 32 0.846757 31.8127 0.516224 31.4793C0.185691 31.1459 0 30.6937 0 30.2222L0 1.77778C0 1.30628 0.185691 0.854097 0.516224 0.520699C0.846757 0.187301 1.29506 0 1.7625 0L45.2375 0C45.7049 0 46.1532 0.187301 46.4838 0.520699C46.8143 0.854097 47 1.30628 47 1.77778V30.2222C47 30.6937 46.8143 31.1459 46.4838 31.4793C46.1532 31.8127 45.7049 32 45.2375 32Z" fill="url(#paint0_radial)"/>
<path d="M4.34752 10.9036L3.46627 8.71104L2.58502 10.9036H4.34752ZM24.1463 10.0147C23.9464 10.1154 23.7222 10.1565 23.5 10.1333H21.9138V8.88881H23.5588C23.781 8.86555 24.0052 8.90666 24.205 9.00733C24.298 9.04397 24.3768 9.10988 24.4298 9.19529C24.4827 9.28069 24.5069 9.38103 24.4988 9.48141C24.4533 9.69815 24.3271 9.88904 24.1463 10.0147ZM35.5438 10.9036L34.6625 8.71104L33.7225 10.9036H35.5438ZM14.335 13.274H12.9838V8.94807L11.1038 13.274H9.92877L8.04877 8.94807V13.274H5.40502L4.87627 12.0296H2.11502L1.58627 13.274H0.17627L2.52627 7.70363H4.46502L6.69752 12.9777V7.70363H8.81252L10.5163 11.437L12.1025 7.70363H14.335V13.274ZM19.6813 13.274H15.275V7.70363H19.6813V8.82956H16.6263V9.83696H19.6225V10.9629H16.6263V12.0888H19.6813V13.274ZM25.9088 9.24437C25.9224 9.55888 25.8394 9.86996 25.6711 10.1351C25.5029 10.4003 25.2576 10.6066 24.9688 10.7259C25.2247 10.8183 25.449 10.9828 25.615 11.1999C25.7956 11.5028 25.8777 11.855 25.85 12.2073V13.274H24.4988V12.5629C24.5373 12.3785 24.5362 12.1879 24.4957 12.0039C24.4552 11.8199 24.3761 11.6468 24.2638 11.4962C23.9928 11.2973 23.6557 11.2123 23.3238 11.2592H21.9138V13.274H20.6213V7.70363H23.6175C24.1576 7.6472 24.7031 7.72872 25.2038 7.94067C25.4255 8.07525 25.6076 8.26696 25.7315 8.49609C25.8554 8.72522 25.9166 8.98349 25.9088 9.24437ZM27.965 13.274H26.6725V7.70363H28.0238V13.274H27.965ZM43.5338 13.274H41.6538L39.1863 9.12585V13.274H36.4838L35.955 12.0296H33.2525L32.7825 13.274H31.255C30.5754 13.3338 29.8999 13.1209 29.375 12.6814C29.1182 12.394 28.9229 12.0561 28.8016 11.689C28.6803 11.3219 28.6355 10.9335 28.67 10.5481C28.6326 10.1534 28.6758 9.75517 28.7971 9.37803C28.9183 9.00089 29.115 8.65286 29.375 8.35548C29.9323 7.88588 30.6482 7.65226 31.3725 7.70363H32.665V8.88881H31.3725C31.1899 8.85949 31.0028 8.87665 30.8284 8.93874C30.654 9.00083 30.4977 9.10589 30.3738 9.24437C30.1017 9.59786 29.9754 10.0437 30.0213 10.4888C29.9865 10.9514 30.111 11.4118 30.3738 11.7925C30.5013 11.9053 30.6508 11.9899 30.8127 12.0409C30.9746 12.092 31.1453 12.1083 31.3138 12.0888H31.9013L33.7813 7.70363H35.72L37.9525 12.9184V7.70363H39.95L42.2413 11.5555V7.70363H43.5925L43.5338 13.274ZM0.17627 14.3999H2.40877L2.93752 13.1555H4.05377L4.58252 14.3999H8.98877V13.4518L9.40002 14.3999H11.6913L12.1025 13.4518V14.3999H23.0888V12.3851H23.3238C23.5 12.3851 23.5 12.3851 23.5 12.6221V14.3999H29.1988V13.9259C29.8575 14.2479 30.5818 14.4102 31.3138 14.3999H33.7225L34.2513 13.1555H35.3675L35.8963 14.3999H40.4788V13.2147L41.1838 14.3999H44.885V6.69622H41.2425V7.58511L40.7138 6.69622H36.9538V7.58511L36.4838 6.69622H31.4313C30.6778 6.65671 29.9275 6.82035 29.2575 7.1703V6.69622H25.7913V7.1703C25.3786 6.83093 24.8539 6.66157 24.3225 6.69622H11.3388L10.4575 8.71104L9.63502 6.63696H5.64002V7.52585L5.17002 6.63696H1.76252L0.17627 10.311V14.3999Z" fill="white"/>
<path d="M46.8827 18.4888H44.474C44.2891 18.4571 44.0993 18.4996 43.9452 18.6073C43.8879 18.6595 43.8424 18.7237 43.812 18.7953C43.7816 18.8669 43.7669 18.9443 43.769 19.0222C43.7619 19.1151 43.7874 19.2076 43.8411 19.2834C43.8948 19.3592 43.9733 19.4136 44.0627 19.437C44.2331 19.4932 44.4131 19.5133 44.5915 19.4962H45.2965C45.5609 19.4578 45.8305 19.4805 46.085 19.5626C46.3394 19.6448 46.572 19.7842 46.7652 19.9703C46.7878 20.0236 46.8299 20.066 46.8827 20.0888V18.4888ZM46.8827 22.1036C46.6708 22.3608 46.3987 22.5605 46.0909 22.6846C45.7831 22.8088 45.4495 22.8535 45.1202 22.8148H42.594V21.6296H45.1202C45.3032 21.6321 45.4843 21.5916 45.649 21.5111C45.7051 21.471 45.7506 21.4176 45.7814 21.3556C45.8121 21.2936 45.8272 21.2248 45.8252 21.1555C45.8343 21.0853 45.8224 21.0139 45.791 20.9506C45.7596 20.8872 45.7101 20.8348 45.649 20.7999C45.5058 20.7184 45.3434 20.6774 45.179 20.6814C43.9452 20.6222 42.4177 20.7407 42.4177 18.9629C42.4177 18.1333 42.9465 17.3036 44.2977 17.3036H46.9415V16.1777H44.5327C43.9472 16.1452 43.3678 16.3121 42.8877 16.6518V16.1777H39.304C38.7357 16.1366 38.172 16.305 37.7177 16.6518V16.1777H31.1965V16.6518C30.659 16.3441 30.052 16.1808 29.434 16.1777H25.204V16.6518C24.7927 16.237 23.9115 16.1777 23.324 16.1777H18.5652L17.5077 17.3629L16.509 16.1777H9.45898V23.9407H16.3915L17.5077 22.7555L18.5652 23.9407H22.854V22.1036H23.2652C23.887 22.1507 24.5109 22.0491 25.0865 21.8073V23.8814H28.6115V21.8666H28.7877C29.0227 21.8666 29.0227 21.8666 29.0227 22.1036V23.8814H39.774C40.3961 23.912 41.0121 23.7463 41.5365 23.4073V23.8814H44.944C45.6073 23.8948 46.2665 23.7739 46.8827 23.5259V22.1036ZM41.654 19.911C41.9386 20.2372 42.0861 20.6623 42.0652 21.0962C42.0652 22.2814 41.3015 22.874 40.009 22.874H37.424V21.6888H39.9502C40.1332 21.6914 40.3143 21.6508 40.479 21.5703C40.5351 21.5303 40.5806 21.4769 40.6114 21.4149C40.6421 21.3528 40.6572 21.2841 40.6552 21.2148C40.6643 21.1445 40.6524 21.0732 40.621 21.0098C40.5896 20.9465 40.5401 20.894 40.479 20.8592C40.3358 20.7776 40.1734 20.7367 40.009 20.7407C38.7752 20.6222 37.2477 20.6814 37.2477 18.9036C37.2477 18.074 37.7765 17.2444 39.1277 17.2444H41.7715V18.4296H39.3627C39.1779 18.3978 38.9881 18.4403 38.834 18.5481C38.7766 18.6003 38.7312 18.6644 38.7008 18.736C38.6703 18.8076 38.6557 18.885 38.6577 18.9629C38.6506 19.0558 38.6762 19.1483 38.7299 19.2241C38.7836 19.3 38.862 19.3543 38.9515 19.3777C39.1218 19.4339 39.3018 19.4541 39.4802 19.437H40.1852C40.713 19.4293 41.2287 19.5957 41.654 19.911ZM29.7865 19.5555C29.5866 19.6562 29.3624 19.6973 29.1402 19.674H27.554V18.4296H29.199C29.4212 18.4063 29.6454 18.4474 29.8452 18.5481C29.9333 18.5914 30.0076 18.6588 30.0595 18.7426C30.1114 18.8265 30.139 18.9233 30.139 19.0222C30.1281 19.1334 30.0903 19.2402 30.0288 19.3332C29.9673 19.4262 29.8841 19.5026 29.7865 19.5555ZM30.609 20.2666C30.8649 20.3591 31.0892 20.5236 31.2552 20.7407C31.4358 21.0436 31.5179 21.3958 31.4902 21.7481V22.874H30.1977V22.1629C30.2362 21.9785 30.2352 21.7879 30.1947 21.6039C30.1541 21.4199 30.075 21.2468 29.9627 21.0962C29.6917 20.8973 29.3547 20.8123 29.0227 20.8592H27.6127V22.874H26.3202V17.3036H29.3752C29.9153 17.2472 30.4608 17.3287 30.9615 17.5407C31.1783 17.6614 31.3551 17.8437 31.47 18.0649C31.5849 18.2862 31.6328 18.5366 31.6077 18.7851C31.5794 19.0972 31.4728 19.3969 31.2981 19.656C31.1234 19.9152 30.8863 20.1253 30.609 20.2666ZM32.254 17.3036H36.6602V18.4296H33.6052V19.437H36.6015V20.5629H33.6052V21.6888H36.6602V22.8148H32.254V17.3036ZM23.3827 19.8518H21.679V18.4296H23.3827C23.4804 18.4076 23.5818 18.4078 23.6794 18.4302C23.777 18.4525 23.8684 18.4965 23.9472 18.5589C24.0259 18.6212 24.0898 18.7005 24.1345 18.7909C24.1791 18.8812 24.2033 18.9805 24.2052 19.0814C24.2171 19.1908 24.2035 19.3014 24.1655 19.4045C24.1274 19.5076 24.0659 19.6003 23.986 19.6752C23.9061 19.7501 23.8099 19.805 23.7051 19.8357C23.6004 19.8663 23.49 19.8719 23.3827 19.8518ZM20.3865 22.3407L18.389 20.0888L20.3865 17.8962V22.3407ZM15.1577 21.6888H11.9265V20.5629H14.8052V19.437H11.9265V18.4296H15.2165L16.6265 20.0296L15.1577 21.6888ZM25.6152 19.0814C25.6152 20.6222 24.499 20.9185 23.324 20.9185H21.679V22.7555H19.1527L17.5077 20.9185L15.804 22.7555H10.5752V17.1851H15.8627L17.5077 19.0222L19.1527 17.1851H23.324C24.4402 17.3036 25.6152 17.5999 25.6152 19.0814Z" fill="white"/>
<defs>
<radialGradient id="paint0_radial" cx="0" cy="0" r="1" gradientUnits="userSpaceOnUse" gradientTransform="translate(23.5 16) scale(20.0483 20.2221)">
<stop stop-color="#9DD5F6"/>
<stop offset="0.07" stop-color="#98D3F5"/>
<stop offset="0.16" stop-color="#89CEF3"/>
<stop offset="0.25" stop-color="#70C6EF"/>
<stop offset="0.35" stop-color="#4EBBEA"/>
<stop offset="0.45" stop-color="#23ADE3"/>
<stop offset="0.5" stop-color="#0DA6E0"/>
<stop offset="1" stop-color="#2E77BC"/>
</radialGradient>
</defs>
</svg>
