<svg width="47" height="32" viewBox="0 0 47 32" fill="none" xmlns="http://www.w3.org/2000/svg">
<path d="M45.2375 32H1.7625C1.29506 32 0.846757 31.8127 0.516224 31.4793C0.185691 31.1459 0 30.6937 0 30.2222V1.77778C0 1.30628 0.185691 0.854097 0.516224 0.520699C0.846757 0.187301 1.29506 0 1.7625 0H45.2375C45.7049 0 46.1532 0.187301 46.4838 0.520699C46.8143 0.854097 47 1.30628 47 1.77778V30.2222C47 30.6937 46.8143 31.1459 46.4838 31.4793C46.1532 31.8127 45.7049 32 45.2375 32Z" fill="url(#paint0_linear)"/>
<path d="M27.8303 15.9407C27.8473 16.3101 27.792 16.6793 27.6675 17.0271C27.5431 17.3749 27.3519 17.6946 27.1049 17.9678C26.8579 18.2411 26.56 18.4626 26.2281 18.6197C25.8962 18.7768 25.5369 18.8664 25.1707 18.8833C24.8044 18.9003 24.4385 18.8443 24.0937 18.7185C23.749 18.5928 23.4321 18.3998 23.1614 18.1505C22.8906 17.9012 22.6712 17.6005 22.5156 17.2657C22.3601 16.9308 22.2715 16.5683 22.2549 16.1989C22.251 16.1129 22.251 16.0268 22.2549 15.9407C22.2655 15.1975 22.5629 14.4878 23.084 13.9622C23.6051 13.4366 24.3087 13.1366 25.0455 13.1259C25.4034 13.118 25.7593 13.1813 26.093 13.3122C26.4266 13.443 26.7315 13.6389 26.9901 13.8886C27.2487 14.1383 27.456 14.4369 27.6002 14.7674C27.7443 15.0979 27.8226 15.4538 27.8304 15.8148C27.8313 15.8568 27.8313 15.8987 27.8303 15.9407Z" fill="url(#paint1_radial)"/>
<path d="M7.69629 15.8213C7.68956 16.2338 7.58907 16.6393 7.40254 17.0065C7.21189 17.3366 6.95105 17.6199 6.63879 17.8361C6.39916 17.9703 6.14208 18.0701 5.87504 18.1324C5.54488 18.1854 5.21033 18.2052 4.87629 18.1917H3.29004V13.4509H4.99379C5.32997 13.454 5.66484 13.4937 5.99254 13.5694C6.24451 13.6207 6.48405 13.7214 6.69754 13.8657C7.03495 14.0509 7.30314 14.3423 7.46129 14.6954C7.63471 15.0439 7.71567 15.4318 7.69629 15.8213ZM6.46254 15.8213C6.46687 15.5349 6.4066 15.2512 6.28629 14.9917C6.17232 14.7606 5.98667 14.5733 5.75754 14.4583C5.65037 14.3926 5.52988 14.3521 5.40504 14.3398C5.28754 14.3398 5.05254 14.2806 4.81754 14.2806H4.46504V17.2435H4.75879C4.97599 17.2628 5.19485 17.2427 5.40504 17.1843C5.54855 17.1726 5.68834 17.1323 5.81629 17.0657C5.92859 17.017 6.02889 16.944 6.11011 16.8518C6.19133 16.7597 6.25147 16.6506 6.28629 16.5324C6.4294 16.3251 6.49212 16.0721 6.46254 15.8213Z" fill="black"/>
<path d="M11.1626 18.1917H8.40137V17.362H9.16512V14.2806H8.40137V13.4509H11.1626V14.2806H10.3989V17.362H11.1626V18.1917Z" fill="black"/>
<path d="M15.9211 16.7102C15.9284 16.9331 15.8781 17.1542 15.7751 17.3516C15.6721 17.549 15.5199 17.716 15.3336 17.8361C14.8613 18.1392 14.3062 18.2844 13.7474 18.2509C13.4112 18.2479 13.0763 18.2081 12.7486 18.1324C12.4549 18.0731 12.1611 17.9546 11.9261 17.8954V16.7694H12.0436C12.2968 16.9619 12.5732 17.1212 12.8661 17.2435C13.1458 17.3594 13.445 17.4198 13.7474 17.4213H14.0411C14.1401 17.4074 14.2382 17.3876 14.3349 17.362C14.4187 17.3348 14.498 17.2949 14.5699 17.2435C14.6057 17.2153 14.6348 17.1794 14.6552 17.1384C14.6755 17.0974 14.6865 17.0523 14.6874 17.0065C14.6741 16.8992 14.6337 16.7971 14.5699 16.7102C14.4431 16.6291 14.3042 16.5691 14.1586 16.5324C13.9824 16.4731 13.8061 16.4731 13.5711 16.4139C13.3361 16.3546 13.2186 16.3546 13.0424 16.2954C12.6989 16.2191 12.3895 16.0318 12.1611 15.762C11.9881 15.5221 11.9049 15.2283 11.9261 14.9324C11.9189 14.7176 11.9698 14.5048 12.0733 14.3169C12.1768 14.1291 12.329 13.9731 12.5136 13.8657C12.964 13.5625 13.5006 13.4168 14.0411 13.4509C14.3571 13.4648 14.6714 13.5045 14.9811 13.5694C15.2472 13.6039 15.5056 13.6841 15.7449 13.8065V14.8731H15.6274C15.433 14.686 15.1874 14.5621 14.9224 14.5176C14.6631 14.4023 14.3832 14.3418 14.0999 14.3398H13.8061C13.6886 14.3398 13.6299 14.3991 13.5124 14.3991C13.4234 14.4119 13.3409 14.4535 13.2774 14.5176C13.2138 14.5817 13.1726 14.6649 13.1599 14.7546C13.1619 14.8645 13.2036 14.9699 13.2774 15.0509C13.4471 15.1282 13.6243 15.1878 13.8061 15.2287C13.9824 15.288 14.1586 15.288 14.2761 15.3472C14.3936 15.4065 14.6286 15.4065 14.8049 15.4657C15.1103 15.5607 15.3912 15.7226 15.6274 15.9398C15.7329 16.0359 15.8145 16.1557 15.8655 16.2896C15.9165 16.4234 15.9356 16.5675 15.9211 16.7102Z" fill="black"/>
<path d="M18.8587 18.311C18.5368 18.3149 18.2173 18.2545 17.9187 18.1332C17.6329 18.0333 17.3722 17.8715 17.1549 17.6592C16.9322 17.4499 16.7698 17.1837 16.6849 16.8888C16.5596 16.5477 16.4998 16.1857 16.5087 15.8221C16.5048 15.4782 16.5646 15.1365 16.6849 14.8147C16.7925 14.5306 16.9519 14.2693 17.1549 14.0443C17.3624 13.8197 17.6263 13.6559 17.9187 13.5703C18.2377 13.4489 18.5764 13.3886 18.9174 13.3925C19.0957 13.3829 19.2743 13.4029 19.4462 13.4517C19.6224 13.4517 19.7399 13.511 19.8574 13.511C20.0009 13.5227 20.1407 13.563 20.2687 13.6295C20.3597 13.6846 20.4588 13.7246 20.5624 13.748V14.874H20.4449C20.378 14.8008 20.2983 14.7405 20.2099 14.6962C20.0924 14.6369 20.0337 14.5777 19.9162 14.5184L19.5637 14.3406C19.4322 14.292 19.2921 14.2718 19.1524 14.2814C18.9934 14.2687 18.8335 14.2889 18.6824 14.3406C18.5201 14.3977 18.3773 14.5005 18.2712 14.6369C18.1401 14.7714 18.0399 14.9332 17.9774 15.111C17.8999 15.34 17.8602 15.5802 17.8599 15.8221C17.8658 16.083 17.9053 16.3419 17.9774 16.5925C18.0399 16.7702 18.1401 16.9321 18.2712 17.0666C18.3947 17.1674 18.5336 17.2475 18.6824 17.3036C18.8335 17.3553 18.9934 17.3755 19.1524 17.3629C19.2922 17.3769 19.4333 17.3566 19.5637 17.3036C19.6812 17.2443 19.8574 17.1851 19.9749 17.1258C20.0924 17.0666 20.1512 17.0073 20.2687 16.948C20.3571 16.9037 20.4367 16.8435 20.5037 16.7703H20.5624V17.8962L20.2099 18.074C20.0924 18.1332 19.9749 18.1332 19.8574 18.1925C19.7182 18.2241 19.5809 18.2636 19.4462 18.311C19.2515 18.3422 19.0533 18.3422 18.8587 18.311Z" fill="black"/>
<path d="M32.8408 13.4524L31.137 18.1931H29.7858L28.082 13.4524H29.3745L30.4908 16.7709L31.607 13.4524H32.8408Z" fill="black"/>
<path d="M36.8943 18.1926H33.4868V13.4519H36.8943V14.3408H34.7206V15.1704H36.7768V16.0593H34.7206V17.2445H36.8943V18.1926Z" fill="black"/>
<path d="M42.417 18.1927H40.9482L39.6557 16.4742H39.0682V18.1927H37.8345V13.4519H39.9495C40.1861 13.4368 40.4236 13.4567 40.6545 13.5112L41.242 13.689C41.4068 13.7961 41.547 13.9375 41.6532 14.1038C41.7804 14.2961 41.8423 14.5248 41.8295 14.7556C41.8573 15.0522 41.7734 15.3483 41.5945 15.5853C41.4135 15.826 41.1692 16.0107 40.8895 16.1186L42.417 18.1927ZM40.537 14.9334C40.5523 14.8308 40.5315 14.7259 40.4782 14.6371C40.4534 14.5927 40.4197 14.5539 40.3793 14.5233C40.3388 14.4927 40.2925 14.4709 40.2432 14.4594C40.1552 14.4056 40.0512 14.3846 39.9495 14.4001H39.127V15.7038H39.9495C40.0743 15.6915 40.1948 15.651 40.302 15.5853C40.3745 15.5177 40.4343 15.4374 40.4782 15.3482C40.5221 15.2146 40.542 15.0741 40.537 14.9334Z" fill="black"/>
<path d="M43.5034 12.3403C43.5999 12.3409 43.6946 12.366 43.7788 12.4132C43.8674 12.4609 43.9402 12.5338 43.9883 12.6227C44.0373 12.7086 44.0632 12.8059 44.0634 12.905C44.0636 13.0041 44.0381 13.1015 43.9894 13.1875C43.9419 13.276 43.87 13.3485 43.7823 13.3964C43.6974 13.4454 43.6013 13.4711 43.5035 13.4711C43.4057 13.4711 43.3096 13.4454 43.2246 13.3964C43.1369 13.3484 43.0648 13.2759 43.017 13.1875C42.9679 13.1016 42.9422 13.0041 42.9424 12.905C42.9426 12.8058 42.9687 12.7084 43.0181 12.6227C43.0663 12.5339 43.1391 12.4611 43.2275 12.4132C43.312 12.3661 43.4069 12.341 43.5034 12.3403ZM43.5034 12.4341C43.4228 12.4345 43.3437 12.4556 43.2734 12.4954C43.1996 12.5352 43.1388 12.5957 43.0984 12.6696C43.0574 12.7417 43.0356 12.8232 43.0353 12.9063C43.0354 12.9885 43.0568 13.0693 43.0973 13.1407C43.1376 13.2143 43.1979 13.2747 43.2711 13.3149C43.3418 13.3558 43.4219 13.3774 43.5034 13.3774C43.585 13.3774 43.6651 13.3558 43.7358 13.3149C43.8088 13.2747 43.869 13.2142 43.9091 13.1407C43.9493 13.0693 43.9705 12.9885 43.9705 12.9063C43.9703 12.8233 43.9488 12.7417 43.9079 12.6696C43.8675 12.5957 43.8067 12.5352 43.7329 12.4954C43.6628 12.4557 43.5839 12.4346 43.5034 12.4341ZM43.2573 13.2188V12.61H43.465C43.5168 12.6078 43.5686 12.6135 43.6188 12.6268C43.6496 12.6378 43.6762 12.6585 43.6945 12.6858C43.7124 12.7121 43.7222 12.7431 43.7226 12.7749C43.7228 12.8185 43.7059 12.8603 43.6756 12.8913C43.6421 12.9251 43.5973 12.945 43.5499 12.9468C43.5689 12.9541 43.5864 12.9649 43.6016 12.9786C43.6354 13.0156 43.6652 13.0562 43.6905 13.0996L43.7639 13.2188H43.6451L43.5918 13.1227C43.5664 13.0699 43.532 13.0219 43.4902 12.981C43.4671 12.9657 43.4398 12.9584 43.4122 12.9601H43.3549V13.2188H43.2573L43.2573 13.2188ZM43.3548 12.8762H43.473C43.5132 12.8802 43.5535 12.8712 43.5883 12.8507C43.6048 12.8369 43.6155 12.8174 43.6185 12.796C43.6215 12.7746 43.6164 12.7529 43.6044 12.735C43.5943 12.7203 43.5798 12.7092 43.5631 12.7032C43.5314 12.6944 43.4984 12.6909 43.4656 12.6927H43.3549V12.8762L43.3548 12.8762Z" fill="black"/>
<path d="M45.2074 32H13C27.4605 32 47 20.0691 47 15V30.0836C47.0002 30.5814 46.8133 31.0597 46.4787 31.4173C46.1442 31.775 45.6882 31.9839 45.2074 32Z" fill="#E0761E"/>
<path d="M15.9797 23.9998H15.5685L14.041 21.6295V23.9998H13.6885V21.0369H14.0997L15.6272 23.4072V21.0369H15.9797V23.9998Z" fill="black"/>
<path d="M18.8585 23.9998H16.626V21.0369H18.7997V21.3924H17.0372V22.2813H18.6822V22.6369H17.0372V23.6443H18.8585V23.9998Z" fill="black"/>
<path d="M21.5023 21.3333H20.5623V23.9407H20.1511V21.3333H19.1523V20.9778H21.5023V21.3333Z" fill="black"/>
<path d="M25.4973 20.9778L24.6748 23.9407H24.3223L23.6173 21.3333L22.9123 23.9407H22.5598L21.7373 20.9778H22.1486L22.7361 23.4074L23.3823 20.9778H23.8523L24.4986 23.4074L25.0861 20.9778H25.4973Z" fill="black"/>
<path d="M27.1427 20.9184C27.3296 20.9049 27.5171 20.9352 27.6904 21.0072C27.8638 21.0792 28.0181 21.1908 28.1414 21.3333C28.4067 21.6474 28.5524 22.0465 28.5524 22.4592C28.5524 22.8718 28.4067 23.271 28.1414 23.5851C27.8761 23.8514 27.517 24.001 27.1427 24.001C26.7683 24.001 26.4092 23.8514 26.1439 23.5851C25.879 23.2708 25.7332 22.8718 25.7327 22.4592C25.7192 22.2529 25.7488 22.0461 25.8197 21.8522C25.8905 21.6582 26.001 21.4814 26.1439 21.3333C26.2706 21.1952 26.4256 21.0866 26.598 21.015C26.7705 20.9434 26.9563 20.9104 27.1427 20.9184ZM27.1427 23.7036C27.2739 23.7046 27.404 23.6789 27.5251 23.628C27.6462 23.5771 27.756 23.502 27.8477 23.4073C28.0383 23.1509 28.1414 22.839 28.1414 22.5184C28.1414 22.1979 28.0383 21.886 27.8477 21.6296C27.7679 21.5166 27.662 21.4252 27.5391 21.3632C27.4161 21.3012 27.28 21.2706 27.1427 21.274C27.0114 21.273 26.8813 21.2987 26.7602 21.3496C26.6391 21.4006 26.5294 21.4756 26.4377 21.5703C26.247 21.8267 26.1439 22.1386 26.1439 22.4592C26.1439 22.7797 26.247 23.0916 26.4377 23.3481C26.5174 23.461 26.6233 23.5524 26.7462 23.6144C26.8692 23.6764 27.0053 23.707 27.1427 23.7036Z" fill="black"/>
<path d="M31.5486 24H31.1373L30.8436 23.2296C30.7862 23.0983 30.7067 22.978 30.6086 22.8741C30.5532 22.8245 30.4875 22.7881 30.4163 22.7675C30.3451 22.747 30.2703 22.7429 30.1973 22.7556H29.4923V24.0593H29.0811V21.0963H30.3736C30.5713 21.0835 30.7698 21.1035 30.9611 21.1556C31.0365 21.1786 31.1066 21.2166 31.1672 21.2676C31.2277 21.3185 31.2775 21.3811 31.3136 21.4518C31.4133 21.588 31.4556 21.7584 31.4311 21.9259C31.4267 22.1175 31.3653 22.3034 31.2548 22.4593C31.1379 22.611 30.9713 22.716 30.7848 22.7556C30.9019 22.7964 31.0066 22.8668 31.0889 22.9602C31.1712 23.0536 31.2284 23.1668 31.2548 23.2889L31.5486 24ZM29.4923 22.3407H30.3736C30.5566 22.3433 30.7376 22.3027 30.9023 22.2222C30.9644 22.174 31.0132 22.1106 31.044 22.038C31.0749 21.9654 31.0868 21.886 31.0786 21.8074C31.0794 21.7265 31.0623 21.6465 31.0283 21.5732C30.9944 21.4999 30.9446 21.4353 30.8825 21.3841C30.8204 21.3329 30.7478 21.2964 30.6698 21.2773C30.5919 21.2583 30.5107 21.2572 30.4323 21.2741H29.4923V22.3407Z" fill="black"/>
<path d="M34.4861 24H33.9573L32.8998 22.5185L32.4298 22.9926V24H32.0186V21.037H32.4298V22.4593L33.8986 20.9778H34.4273L33.1936 22.2222L34.4861 24Z" fill="black"/>
<defs>
<linearGradient id="paint0_linear" x1="23.5" y1="0" x2="23.5" y2="32" gradientUnits="userSpaceOnUse">
<stop stop-color="white"/>
<stop offset="0.97" stop-color="#D9D9D9"/>
<stop offset="1" stop-color="#E2E9F1"/>
</linearGradient>
<radialGradient id="paint1_radial" cx="0" cy="0" r="1" gradientUnits="userSpaceOnUse" gradientTransform="translate(24.5089 15.9564) scale(2.66966 2.6928)">
<stop stop-color="#F0F0F0"/>
<stop offset="1" stop-color="#FF8330"/>
</radialGradient>
</defs>
</svg>
