<svg width="47" height="32" viewBox="0 0 47 32" fill="none" xmlns="http://www.w3.org/2000/svg">
<path d="M45.2375 32H1.7625C1.29506 32 0.846757 31.8127 0.516224 31.4793C0.185691 31.1459 0 30.6937 0 30.2222V1.77778C0 1.30628 0.185691 0.854097 0.516224 0.520699C0.846757 0.187301 1.29506 0 1.7625 0H45.2375C45.7049 0 46.1532 0.187301 46.4838 0.520699C46.8143 0.854097 47 1.30628 47 1.77778V30.2222C47 30.6937 46.8143 31.1459 46.4838 31.4793C46.1532 31.8127 45.7049 32 45.2375 32Z" fill="url(#paint0_linear)"/>
<path d="M23.7936 24.0121C24.8043 23.087 25.6244 21.9701 26.2072 20.7253C26.7899 19.4804 27.1239 18.132 27.19 16.757C27.2561 15.382 27.0531 14.0073 26.5925 12.7114C26.1319 11.4155 25.4228 10.2238 24.5056 9.20437C24.2799 8.95351 24.0426 8.71412 23.7936 8.48619C22.3028 7.11984 20.4506 6.21966 18.4621 5.89502C16.4737 5.57037 14.4346 5.83525 12.5925 6.65746C10.7505 7.47966 9.18488 8.8238 8.08589 10.5266C6.98689 12.2293 6.40186 14.2174 6.40186 16.2491C6.40186 18.2809 6.98689 20.269 8.08589 21.9717C9.18488 23.6745 10.7505 25.0186 12.5925 25.8408C14.4346 26.663 16.4737 26.9279 18.4621 26.6033C20.4506 26.2786 22.3028 25.3785 23.7936 24.0121Z" fill="#0066CB"/>
<path d="M23.7939 24.012C24.8046 23.0869 25.6248 21.97 26.2075 20.7252C26.7903 19.4803 27.1243 18.1319 27.1904 16.7569C27.2565 15.3819 27.0535 14.0072 26.5929 12.7113C26.1323 11.4154 25.4231 10.2237 24.506 9.20427C24.2803 8.95341 24.0429 8.71401 23.7939 8.48608" fill="#0066CB"/>
<path d="M23.7939 24.012C24.8046 23.0869 25.6248 21.97 26.2075 20.7252C26.7903 19.4803 27.1243 18.1319 27.1904 16.7569C27.2565 15.3819 27.0535 14.0072 26.5929 12.7113C26.1323 11.4154 25.4231 10.2237 24.506 9.20427C24.2803 8.95341 24.0429 8.71401 23.7939 8.48608" stroke="#0066CB" stroke-width="0.31"/>
<path d="M30.785 5.76012C28.1956 5.73838 25.6954 6.71322 23.7937 8.48605C23.4412 8.8416 23.0888 9.19716 22.7363 9.61197H24.8512C25.139 9.96324 25.3947 10.3401 25.615 10.7379H21.9137C21.6832 11.0937 21.4865 11.4707 21.3262 11.8638H26.2025C26.3747 12.2251 26.5124 12.6021 26.6137 12.9898H20.8562C20.7238 13.355 20.6255 13.732 20.5625 14.1157H26.9663C27.1314 14.8344 27.2103 15.5705 27.2012 16.3083C27.2121 17.4366 27.0333 18.5587 26.6725 19.6268H20.915C21.026 20.0113 21.1635 20.3875 21.3262 20.7527H26.2025C26.0299 21.1399 25.8337 21.5159 25.615 21.8786H21.9137C22.1487 22.2935 22.4425 22.649 22.6775 23.0046H24.7925C24.44 23.4194 24.0875 23.7749 23.735 24.1305C24.9928 25.2647 26.5045 26.0742 28.1406 26.4899C29.7766 26.9055 31.4882 26.9147 33.1285 26.5168C34.7689 26.1189 36.2892 25.3257 37.559 24.2052C38.8288 23.0848 39.8102 21.6704 40.4193 20.0834C41.0283 18.4964 41.2468 16.7841 41.0559 15.0932C40.865 13.4024 40.2704 11.7835 39.3232 10.3753C38.376 8.96704 37.1043 7.8115 35.6173 7.00769C34.1302 6.20389 32.4721 5.7758 30.785 5.76012Z" fill="#CC0001"/>
<path d="M40.0677 22.0563H40.1264C40.142 22.0563 40.157 22.0501 40.168 22.039C40.179 22.0278 40.1852 22.0128 40.1852 21.997L40.1264 21.9378H40.0089V22.0563H40.0677ZM40.0677 22.2341H40.0089V21.9378H40.1852L40.2439 21.997C40.2439 22.0563 40.2439 22.0563 40.1852 22.0563L40.2439 22.1748H40.1852L40.1264 22.0563H40.0677V22.2341ZM40.1264 22.3526C40.1729 22.3526 40.2183 22.3387 40.257 22.3127C40.2956 22.2866 40.3258 22.2496 40.3435 22.2063C40.3613 22.163 40.366 22.1153 40.3569 22.0693C40.3478 22.0233 40.3255 21.9811 40.2926 21.948C40.2597 21.9148 40.2179 21.8922 40.1723 21.8831C40.1267 21.8739 40.0794 21.8786 40.0365 21.8966C39.9936 21.9145 39.9569 21.9449 39.931 21.9839C39.9052 22.0229 39.8914 22.0687 39.8914 22.1156C39.8887 22.1474 39.893 22.1794 39.9038 22.2094C39.9147 22.2394 39.9319 22.2666 39.9543 22.2892C39.9767 22.3117 40.0037 22.3291 40.0334 22.3401C40.0632 22.351 40.0949 22.3553 40.1264 22.3526ZM39.7739 22.1156C39.7739 22.0452 39.7946 21.9765 39.8333 21.918C39.8721 21.8596 39.9271 21.814 39.9915 21.7871C40.0559 21.7602 40.1268 21.7531 40.1952 21.7668C40.2636 21.7806 40.3264 21.8144 40.3757 21.8642C40.425 21.9139 40.4586 21.9772 40.4722 22.0462C40.4858 22.1152 40.4788 22.1867 40.4521 22.2516C40.4254 22.3166 40.3802 22.3721 40.3223 22.4112C40.2643 22.4503 40.1961 22.4711 40.1264 22.4711C40.0386 22.4555 39.9577 22.413 39.8946 22.3494C39.8316 22.2858 39.7894 22.2041 39.7739 22.1156Z" fill="#231F20"/>
<path d="M15.1576 19.1526H13.8651L14.6288 15.0637L12.8663 19.1526H11.8088L11.5738 15.0637L10.6926 19.1526H9.51758L10.5163 13.8192H12.5726L12.6313 17.1259L14.0413 13.8074H16.2151L15.1576 19.1407" fill="#231F20"/>
<path d="M29.6688 19.0933C29.3647 19.1874 29.0466 19.2275 28.7288 19.2119C28.5985 19.2299 28.4659 19.2184 28.3406 19.178C28.2153 19.1376 28.1006 19.0695 28.0048 18.9785C27.909 18.8876 27.8347 18.7762 27.7871 18.6525C27.7396 18.5288 27.7201 18.396 27.7301 18.2637C27.7251 18.123 27.745 17.9826 27.7888 17.8489L27.8476 17.4341L27.9063 17.0785L28.4938 13.76H29.7863L29.6101 14.7556H30.2563L30.0801 15.8222H29.4338L29.0813 17.6V17.7778C29.0813 18.0148 29.1988 18.0741 29.4926 18.0741C29.6133 18.0888 29.7356 18.0682 29.8451 18.0148L29.6688 19.0815" fill="#231F20"/>
<path d="M24.4988 16.1897C24.5038 16.4733 24.606 16.7463 24.7881 16.9624C24.9702 17.1785 25.2209 17.3242 25.4976 17.3749C26.0263 17.6119 26.1438 17.6712 26.1438 17.849C26.1438 18.1453 25.9088 18.2638 25.3801 18.2638C24.9819 18.2628 24.586 18.2029 24.2051 18.086L24.0288 19.0934H24.0876L24.3226 19.1527C24.4426 19.1516 24.5619 19.1717 24.6751 19.2119C24.9688 19.2119 25.2038 19.2712 25.3801 19.2712C26.7313 19.2712 27.3776 18.7971 27.3776 17.849C27.3956 17.5688 27.3092 17.2919 27.1353 17.0726C26.9614 16.8533 26.7125 16.7075 26.4376 16.6638C25.9088 16.4267 25.7913 16.4267 25.7913 16.1897C25.7913 15.9527 26.0263 15.8342 26.4376 15.8342C26.752 15.8261 27.0665 15.846 27.3776 15.8934L27.5538 14.886C27.1837 14.8382 26.8106 14.8184 26.4376 14.8267C25.0276 14.7675 24.4988 15.4193 24.4988 16.1897Z" fill="#231F20"/>
<path d="M18.5061 17.2564H18.2124C17.5074 17.2564 17.0961 17.4934 17.0961 17.9083C17.0922 17.969 17.1023 18.0299 17.1254 18.0861C17.1486 18.1423 17.1843 18.1924 17.2297 18.2325C17.2751 18.2726 17.3291 18.3017 17.3874 18.3174C17.4458 18.3331 17.5069 18.335 17.5661 18.3231C17.8278 18.2991 18.0707 18.1754 18.2453 17.9773C18.4199 17.7792 18.5132 17.5214 18.5061 17.2564ZM19.3874 19.1527H18.3299L18.3886 18.6786C18.2138 18.8592 18.0029 19.0001 17.7699 19.0921C17.5369 19.184 17.2872 19.2249 17.0374 19.212C16.8806 19.2215 16.7236 19.1973 16.5768 19.1411C16.43 19.0849 16.2966 18.9979 16.1856 18.8859C16.0745 18.7739 15.9883 18.6394 15.9326 18.4913C15.8769 18.3432 15.8529 18.1849 15.8624 18.0268C15.8624 16.9601 16.6849 16.3675 18.1536 16.3675C18.3319 16.3579 18.5105 16.3779 18.6824 16.4268C18.7298 16.3358 18.7502 16.2329 18.7411 16.1305C18.7411 15.8342 18.5061 15.7157 17.9186 15.7157C17.5633 15.7225 17.2093 15.7622 16.8611 15.8342L16.6849 15.8934H16.5674L16.7436 14.9453C17.2388 14.7925 17.7533 14.7126 18.2711 14.7083C19.3874 14.7083 19.9749 15.1231 19.9749 15.9527C19.9793 16.2338 19.9396 16.5138 19.8574 16.7823L19.6224 18.3112L19.5636 18.6075L19.5049 18.8445L19.4461 19.0223L19.3874 19.1408" fill="#231F20"/>
<path d="M22.971 16.486V16.249C22.9719 16.1681 22.9548 16.0881 22.9208 16.0148C22.8869 15.9415 22.837 15.8769 22.775 15.8257C22.7129 15.7744 22.6402 15.738 22.5623 15.7189C22.4844 15.6999 22.4032 15.6988 22.3248 15.7157C22.1196 15.7254 21.9244 15.808 21.7738 15.9491C21.6232 16.0901 21.527 16.2803 21.5023 16.486H22.971ZM23.6173 19.0934C23.1763 19.2107 22.7221 19.2705 22.266 19.2712C20.7973 19.2712 20.0923 18.6194 20.0923 17.3157C20.0923 15.8342 21.0323 14.7083 22.3248 14.7083C23.3823 14.7083 24.0873 15.3008 24.0873 16.3083C24.0769 16.6702 24.0176 17.0291 23.911 17.3749H21.326V17.4934C21.326 17.9675 21.7373 18.2638 22.4423 18.2638C22.9101 18.2799 23.3746 18.1781 23.7935 17.9675L23.6173 19.0934Z" fill="#231F20"/>
<path d="M36.1312 16.6637C36.1527 16.5573 36.1508 16.4474 36.1256 16.3418C36.1003 16.2362 36.0524 16.1375 35.9851 16.0527C35.9178 15.9679 35.8329 15.899 35.7363 15.851C35.6397 15.803 35.5338 15.777 35.4262 15.7748C34.7799 15.7748 34.3687 16.5452 34.3687 17.2563C34.3687 17.8489 34.6624 18.2637 35.1324 18.2044C35.3864 18.1453 35.617 18.011 35.7949 17.8189C35.9729 17.6268 36.0899 17.3855 36.1312 17.1259V16.6637ZM37.4237 17.197C37.2474 18.6193 36.2487 19.2711 34.8974 19.2711C33.4287 19.2711 32.8412 18.3822 32.8412 17.2563C32.8147 16.9149 32.8618 16.5717 32.9794 16.2504C33.097 15.9291 33.2822 15.6374 33.5223 15.3952C33.7624 15.153 34.0516 14.9662 34.3702 14.8476C34.6887 14.729 35.0289 14.6814 35.3674 14.7081C35.6345 14.6786 35.9048 14.708 36.1596 14.7941C36.4144 14.8803 36.6476 15.0212 36.8431 15.2071C37.0386 15.3931 37.1918 15.6196 37.292 15.8711C37.3922 16.1226 37.4372 16.393 37.4237 16.6637C37.4827 16.8365 37.4827 17.0243 37.4237 17.197Z" fill="#231F20"/>
<path d="M37.8936 18.5008H37.9523V18.4416H37.8348V18.5008H37.8936ZM37.8936 18.6786H37.8348V18.3823H38.0111L38.0698 18.4416C38.0698 18.5008 38.0698 18.5008 38.0111 18.5008L38.0698 18.6193H38.0111L37.9523 18.5008H37.8936V18.6786ZM37.8936 18.7971C37.94 18.7971 37.9855 18.7832 38.0241 18.7572C38.0628 18.7311 38.0929 18.6941 38.1107 18.6508C38.1285 18.6075 38.1331 18.5598 38.1241 18.5138C38.115 18.4679 38.0926 18.4256 38.0597 18.3925C38.0269 18.3593 37.985 18.3367 37.9394 18.3276C37.8938 18.3185 37.8466 18.3231 37.8036 18.3411C37.7607 18.359 37.724 18.3894 37.6982 18.4284C37.6724 18.4674 37.6586 18.5132 37.6586 18.5601C37.6627 18.6216 37.6888 18.6795 37.732 18.7231C37.7752 18.7666 37.8326 18.793 37.8936 18.7971ZM37.5998 18.5008C37.5998 18.4305 37.6205 18.3618 37.6592 18.3033C37.698 18.2448 37.753 18.1992 37.8174 18.1723C37.8818 18.1454 37.9527 18.1384 38.0211 18.1521C38.0895 18.1658 38.1523 18.1997 38.2016 18.2494C38.2509 18.2991 38.2844 18.3625 38.298 18.4315C38.3116 18.5004 38.3047 18.5719 38.278 18.6369C38.2513 18.7019 38.2061 18.7574 38.1482 18.7965C38.0902 18.8355 38.022 18.8564 37.9523 18.8564C37.9076 18.858 37.863 18.8506 37.8211 18.8348C37.7792 18.819 37.7407 18.7951 37.708 18.7643C37.6753 18.7335 37.6489 18.6965 37.6303 18.6555C37.6118 18.6144 37.6014 18.5701 37.5998 18.5249C37.5995 18.5169 37.5995 18.5089 37.5998 18.5008Z" fill="white"/>
<path d="M15.5101 18.8564H14.2176L14.9814 14.7557L13.2189 18.8446H12.0439L11.8089 14.7557L11.0451 18.8446H9.87012L10.8689 13.5112H12.8664L12.9839 16.8297L14.3939 13.5112H16.5089L15.5101 18.8446" fill="white"/>
<path d="M29.9623 18.797C29.6581 18.891 29.3401 18.9311 29.0223 18.9155C28.892 18.9335 28.7593 18.922 28.6341 18.8816C28.5088 18.8412 28.394 18.7731 28.2983 18.6822C28.2025 18.5912 28.1281 18.4798 28.0806 18.3562C28.033 18.2325 28.0135 18.0996 28.0235 17.9673C28.0185 17.8266 28.0384 17.6862 28.0823 17.5525L28.141 17.1377L28.1998 16.7821L28.7873 13.4636H30.0798L29.9035 14.471H30.5498L30.3735 15.5377H29.7273L29.3748 17.3155V17.4933C29.3748 17.7303 29.4923 17.7895 29.8448 17.7895C29.9653 17.7989 30.0863 17.7786 30.1973 17.7303L29.9623 18.797Z" fill="white"/>
<path d="M33.311 15.7747L33.2522 15.6562L33.4872 15.0043H33.1347C32.9039 15.0167 32.6801 15.0885 32.4847 15.213C32.2892 15.3375 32.1287 15.5105 32.0185 15.7154L32.136 14.9451H30.7847L30.021 19.271H31.3135C31.4897 18.2636 31.5485 17.7303 31.666 17.2562C31.6952 16.9628 31.8318 16.691 32.0491 16.4937C32.2663 16.2965 32.5487 16.188 32.841 16.1895C32.8642 16.1865 32.8878 16.1905 32.9087 16.201C32.9297 16.2116 32.947 16.2282 32.9585 16.2488H33.0172L33.311 15.7747Z" fill="#231F20"/>
<path d="M33.7226 14.5895L33.6051 14.5303H33.3701C33.1393 14.5426 32.9155 14.6145 32.72 14.739C32.5246 14.8635 32.3641 15.0364 32.2539 15.2414L32.3714 14.5895H31.1964L30.4326 18.9036H31.7251C32.1951 16.2369 32.3714 15.8221 33.0176 15.8221H33.1939L33.3701 15.8814L33.7226 14.5777" fill="white"/>
<path d="M24.851 15.8933C24.856 16.1768 24.9582 16.4499 25.1403 16.666C25.3224 16.8821 25.5731 17.0278 25.8498 17.0785C26.3785 17.3155 26.4373 17.3748 26.4373 17.5526C26.4373 17.8488 26.2023 17.9674 25.6735 17.9674C25.2753 17.9664 24.8795 17.9065 24.4985 17.7896L24.3223 18.797H24.381L24.616 18.8563C24.736 18.8552 24.8553 18.8753 24.9685 18.9155C25.2623 18.9155 25.4973 18.9748 25.6735 18.9748C27.0835 18.9748 27.671 18.5007 27.671 17.5526C27.6891 17.2723 27.6027 16.9954 27.4288 16.7762C27.2549 16.5569 27.006 16.4111 26.731 16.3674C26.2023 16.1303 26.1435 16.0711 26.1435 15.8933C26.1884 15.7638 26.2793 15.6557 26.3988 15.59C26.5182 15.5243 26.6575 15.5057 26.7898 15.5377C27.1042 15.5314 27.4186 15.5512 27.7298 15.597L27.906 14.5896C27.5164 14.5403 27.1236 14.5205 26.731 14.5303C25.321 14.4118 24.851 15.1229 24.851 15.8933Z" fill="white"/>
<path d="M18.7413 16.96H18.4475C17.7425 16.96 17.3313 17.1971 17.3313 17.6119C17.3274 17.6726 17.3375 17.7335 17.3606 17.7897C17.3838 17.846 17.4195 17.8961 17.4649 17.9362C17.5103 17.9763 17.5643 18.0053 17.6226 18.021C17.681 18.0367 17.7421 18.0386 17.8013 18.0267C17.927 18.025 18.0512 17.9984 18.1668 17.9484C18.2823 17.8983 18.387 17.8258 18.4748 17.7349C18.5625 17.6441 18.6317 17.5367 18.6783 17.4189C18.7249 17.3011 18.7481 17.1751 18.7464 17.0483C18.7461 17.0188 18.7444 16.9894 18.7413 16.96ZM19.6813 18.8563H18.6238L18.6825 18.3822C18.5077 18.5628 18.2968 18.7037 18.0639 18.7957C17.8309 18.8876 17.5812 18.9285 17.3313 18.9156C17.1745 18.9251 17.0176 18.9009 16.8707 18.8447C16.7239 18.7885 16.5906 18.7016 16.4795 18.5895C16.3685 18.4775 16.2822 18.343 16.2265 18.1949C16.1708 18.0468 16.1469 17.8885 16.1563 17.7304C16.1563 16.6637 16.9788 16.0711 18.4475 16.0711C18.6257 16.0646 18.8039 16.0845 18.9763 16.1304C19.0238 16.0394 19.0442 15.9365 19.035 15.8341C19.035 15.5378 18.8 15.4193 18.2125 15.4193C17.8572 15.4261 17.5032 15.4658 17.155 15.5378L16.9788 15.5971H16.8613L17.0375 14.6489C17.5327 14.4961 18.0472 14.4163 18.565 14.4119C19.6813 14.4119 20.2688 14.8267 20.2688 15.6563C20.2732 15.9374 20.2336 16.2174 20.1513 16.4859L19.8575 18.0267L19.7988 18.323L19.74 18.56V18.7378L19.6813 18.8563Z" fill="white"/>
<path d="M23.2648 16.1896V15.9408C23.2683 15.8646 23.255 15.7886 23.2258 15.7182C23.1966 15.6479 23.1524 15.5849 23.0962 15.5339C23.04 15.4829 22.9733 15.4451 22.9008 15.4232C22.8284 15.4013 22.7521 15.3959 22.6773 15.4074C22.4721 15.4171 22.2769 15.4998 22.1263 15.6408C21.9758 15.7818 21.8796 15.9721 21.8548 16.1778H23.2648V16.1896ZM23.9698 18.7378C23.5488 18.855 23.1141 18.9148 22.6773 18.9156C21.2086 18.9156 20.4448 18.2637 20.4448 16.96C20.4448 15.4785 21.3848 14.4119 22.6773 14.4119C23.7348 14.4119 24.4398 15.0045 24.4398 16.0119C24.4294 16.3739 24.3701 16.7327 24.2636 17.0785H21.6786V17.1971C21.6786 17.6711 22.0898 17.9674 22.7948 17.9674C23.2627 17.9836 23.7271 17.8817 24.1461 17.6711L23.9698 18.7378Z" fill="white"/>
<path d="M36.4249 16.3673C36.4465 16.2609 36.4446 16.151 36.4194 16.0454C36.3941 15.9398 36.3462 15.8411 36.2789 15.7563C36.2116 15.6715 36.1267 15.6026 36.0301 15.5546C35.9335 15.5066 35.8276 15.4806 35.7199 15.4784C35.0737 15.4784 34.6624 16.2488 34.6624 16.9599C34.6624 17.5525 34.9562 17.9673 35.4262 17.9081C35.6785 17.8497 35.9081 17.7172 36.0858 17.5274C36.2636 17.3375 36.3816 17.0988 36.4249 16.8414V16.3673ZM37.7762 16.9007C37.5999 18.3229 36.6012 18.9747 35.2499 18.9747C33.7812 18.9747 33.1937 18.0858 33.1937 16.9599C33.1672 16.6185 33.2144 16.2753 33.3319 15.954C33.4495 15.6327 33.6347 15.341 33.8748 15.0988C34.1149 14.8566 34.4042 14.6698 34.7227 14.5512C35.0412 14.4326 35.3814 14.385 35.7199 14.4118C35.9871 14.3823 36.2573 14.4116 36.5121 14.4977C36.7669 14.5839 37.0001 14.7248 37.1956 14.9107C37.3911 15.0967 37.5443 15.3232 37.6445 15.5747C37.7448 15.8262 37.7897 16.0966 37.7762 16.3673C37.8348 16.5402 37.8348 16.7278 37.7762 16.9007Z" fill="white"/>
<defs>
<linearGradient id="paint0_linear" x1="23.5" y1="0" x2="23.5" y2="32" gradientUnits="userSpaceOnUse">
<stop stop-color="#0259AA"/>
<stop offset="1" stop-color="#013C86"/>
</linearGradient>
</defs>
</svg>
