<svg width="62" height="32" viewBox="0 0 62 32" fill="none" xmlns="http://www.w3.org/2000/svg">
<rect width="62" height="32" rx="2" fill="white"/>
<g clip-path="url(#clip0)">
<path d="M11.2094 22.5611L11.2324 23.0833C11.5498 22.684 11.9645 22.4844 12.4764 22.4844C13.3543 22.4844 13.7971 22.9796 13.8048 23.9702V26.7153H13.0945V23.9663C13.092 23.6669 13.0229 23.4455 12.8872 23.3021C12.7541 23.1588 12.5455 23.0871 12.2614 23.0871C12.031 23.0871 11.8288 23.1486 11.6548 23.2714C11.4807 23.3943 11.3451 23.5555 11.2478 23.7552V26.7153H10.5375V22.5611H11.2094ZM17.4407 26.7153C17.3997 26.6334 17.3665 26.4875 17.3409 26.2776C17.0107 26.6206 16.6165 26.7921 16.1583 26.7921C15.7488 26.7921 15.4122 26.6769 15.1486 26.4466C14.8875 26.2137 14.757 25.9193 14.757 25.5635C14.757 25.131 14.9208 24.7957 15.2484 24.5576C15.5786 24.317 16.0419 24.1967 16.6383 24.1967H17.3293V23.8704C17.3293 23.6221 17.2551 23.425 17.1067 23.2791C16.9582 23.1306 16.7394 23.0564 16.4501 23.0564C16.1967 23.0564 15.9843 23.1204 15.8128 23.2484C15.6413 23.3764 15.5556 23.5312 15.5556 23.713H14.8414C14.8414 23.5056 14.9144 23.306 15.0603 23.114C15.2087 22.9195 15.4084 22.7659 15.6592 22.6533C15.9126 22.5407 16.1903 22.4844 16.4924 22.4844C16.971 22.4844 17.346 22.6047 17.6173 22.8453C17.8886 23.0833 18.0294 23.4122 18.0396 23.832V25.744C18.0396 26.1253 18.0883 26.4287 18.1855 26.6539V26.7153H17.4407ZM16.262 26.174C16.4847 26.174 16.6958 26.1164 16.8955 26.0012C17.0951 25.886 17.2398 25.7363 17.3293 25.552V24.6997H16.7726C15.9024 24.6997 15.4673 24.9543 15.4673 25.4637C15.4673 25.6864 15.5415 25.8604 15.6899 25.9859C15.8384 26.1113 16.0291 26.174 16.262 26.174ZM19.8211 22.5611L19.8403 23.0219C20.1449 22.6635 20.5557 22.4844 21.0727 22.4844C21.6537 22.4844 22.0492 22.707 22.2591 23.1524C22.3973 22.9528 22.5765 22.7915 22.7966 22.6686C23.0193 22.5458 23.2816 22.4844 23.5837 22.4844C24.4949 22.4844 24.9582 22.9668 24.9735 23.9318V26.7153H24.2632V23.974C24.2632 23.6771 24.1954 23.4557 24.0597 23.3098C23.9241 23.1614 23.6963 23.0871 23.3763 23.0871C23.1127 23.0871 22.8939 23.1665 22.7198 23.3252C22.5458 23.4813 22.4447 23.6925 22.4165 23.9587V26.7153H21.7024V23.9932C21.7024 23.3892 21.4067 23.0871 20.8155 23.0871C20.3496 23.0871 20.031 23.2855 19.8595 23.6822V26.7153H19.1492V22.5611H19.8211ZM27.7724 26.7921C27.2093 26.7921 26.7511 26.6078 26.3979 26.2393C26.0447 25.8681 25.8681 25.3728 25.8681 24.7534V24.6229C25.8681 24.2108 25.9462 23.8435 26.1023 23.521C26.261 23.1959 26.4811 22.9425 26.7627 22.7608C27.0468 22.5765 27.3539 22.4844 27.6841 22.4844C28.2242 22.4844 28.6439 22.6622 28.9434 23.018C29.2429 23.3738 29.3926 23.8832 29.3926 24.5461V24.8417H26.5784C26.5886 25.2513 26.7076 25.5827 26.9354 25.8361C27.1658 26.087 27.4576 26.2124 27.8108 26.2124C28.0616 26.2124 28.2741 26.1612 28.4481 26.0588C28.6222 25.9564 28.7745 25.8208 28.905 25.6518L29.3389 25.9897C28.9908 26.5246 28.4686 26.7921 27.7724 26.7921ZM27.6841 23.0679C27.3974 23.0679 27.1568 23.1729 26.9623 23.3828C26.7678 23.5901 26.6475 23.8819 26.6014 24.2581H28.6823V24.2044C28.6619 23.8435 28.5646 23.5645 28.3905 23.3674C28.2165 23.1678 27.981 23.0679 27.6841 23.0679ZM31.8844 26.2124C32.1378 26.2124 32.3592 26.1356 32.5486 25.982C32.738 25.8284 32.8429 25.6365 32.8634 25.4061H33.5353C33.5225 25.6441 33.4406 25.8707 33.2896 26.0857C33.1386 26.3007 32.9364 26.4722 32.683 26.6002C32.4321 26.7281 32.1659 26.7921 31.8844 26.7921C31.3187 26.7921 30.8682 26.604 30.5329 26.2277C30.2002 25.8489 30.0338 25.3319 30.0338 24.6766V24.5576C30.0338 24.1532 30.108 23.7936 30.2565 23.4787C30.4049 23.1639 30.6174 22.9195 30.8938 22.7454C31.1728 22.5714 31.5017 22.4844 31.8805 22.4844C32.3464 22.4844 32.7329 22.6239 33.04 22.9028C33.3497 23.1818 33.5148 23.544 33.5353 23.9894H32.8634C32.8429 23.7206 32.7405 23.5005 32.5563 23.329C32.3745 23.155 32.1493 23.0679 31.8805 23.0679C31.5196 23.0679 31.2394 23.1985 31.0397 23.4596C30.8426 23.7181 30.7441 24.093 30.7441 24.5845V24.7189C30.7441 25.1975 30.8426 25.5661 31.0397 25.8246C31.2368 26.0831 31.5183 26.2124 31.8844 26.2124ZM35.0442 23.0641C35.359 22.6776 35.7685 22.4844 36.2728 22.4844C37.1507 22.4844 37.5935 22.9796 37.6012 23.9702V26.7153H36.8909V23.9663C36.8883 23.6669 36.8192 23.4455 36.6836 23.3021C36.5505 23.1588 36.3419 23.0871 36.0578 23.0871C35.8274 23.0871 35.6252 23.1486 35.4511 23.2714C35.2771 23.3943 35.1414 23.5555 35.0442 23.7552V26.7153H34.3339V20.8181H35.0442V23.0641ZM40.3886 26.7921C39.8254 26.7921 39.3673 26.6078 39.0141 26.2393C38.6608 25.8681 38.4842 25.3728 38.4842 24.7534V24.6229C38.4842 24.2108 38.5623 23.8435 38.7184 23.521C38.8771 23.1959 39.0972 22.9425 39.3788 22.7608C39.6629 22.5765 39.9701 22.4844 40.3002 22.4844C40.8403 22.4844 41.2601 22.6622 41.5596 23.018C41.859 23.3738 42.0088 23.8832 42.0088 24.5461V24.8417H39.1945C39.2048 25.2513 39.3238 25.5827 39.5516 25.8361C39.7819 26.087 40.0737 26.2124 40.4269 26.2124C40.6778 26.2124 40.8902 26.1612 41.0643 26.0588C41.2383 25.9564 41.3906 25.8208 41.5212 25.6518L41.955 25.9897C41.6069 26.5246 41.0848 26.7921 40.3886 26.7921ZM40.3002 23.0679C40.0136 23.0679 39.773 23.1729 39.5784 23.3828C39.3839 23.5901 39.2636 23.8819 39.2175 24.2581H41.2985V24.2044C41.278 23.8435 41.1807 23.5645 41.0067 23.3674C40.8326 23.1678 40.5972 23.0679 40.3002 23.0679ZM45.3989 26.7153C45.358 26.6334 45.3247 26.4875 45.2991 26.2776C44.9689 26.6206 44.5747 26.7921 44.1166 26.7921C43.707 26.7921 43.3705 26.6769 43.1068 26.4466C42.8457 26.2137 42.7152 25.9193 42.7152 25.5635C42.7152 25.131 42.879 24.7957 43.2066 24.5576C43.5368 24.317 44.0001 24.1967 44.5965 24.1967H45.2876V23.8704C45.2876 23.6221 45.2134 23.425 45.0649 23.2791C44.9164 23.1306 44.6976 23.0564 44.4084 23.0564C44.155 23.0564 43.9425 23.1204 43.771 23.2484C43.5995 23.3764 43.5138 23.5312 43.5138 23.713H42.7997C42.7997 23.5056 42.8726 23.306 43.0185 23.114C43.167 22.9195 43.3666 22.7659 43.6175 22.6533C43.8709 22.5407 44.1486 22.4844 44.4506 22.4844C44.9292 22.4844 45.3042 22.6047 45.5755 22.8453C45.8468 23.0833 45.9876 23.4122 45.9979 23.832V25.744C45.9979 26.1253 46.0465 26.4287 46.1438 26.6539V26.7153H45.3989ZM44.2202 26.174C44.4429 26.174 44.6541 26.1164 44.8537 26.0012C45.0534 25.886 45.198 25.7363 45.2876 25.552V24.6997H44.7309C43.8606 24.6997 43.4255 24.9543 43.4255 25.4637C43.4255 25.6864 43.4997 25.8604 43.6482 25.9859C43.7966 26.1113 43.9873 26.174 44.2202 26.174ZM50.6205 24.6843C50.6205 25.3165 50.4758 25.8259 50.1866 26.2124C49.8974 26.5989 49.5058 26.7921 49.0118 26.7921C48.5075 26.7921 48.1108 26.6321 47.8216 26.3122V28.3125H47.1113V22.5611H47.7601L47.7947 23.0219C48.0839 22.6635 48.4858 22.4844 49.0002 22.4844C49.4994 22.4844 49.8935 22.6725 50.1828 23.0487C50.4746 23.425 50.6205 23.9484 50.6205 24.619V24.6843ZM49.9102 24.6037C49.9102 24.1353 49.8104 23.7654 49.6107 23.4941C49.4111 23.2228 49.1372 23.0871 48.7891 23.0871C48.3591 23.0871 48.0366 23.2778 47.8216 23.6592V25.6441C48.034 26.023 48.3591 26.2124 48.7968 26.2124C49.1372 26.2124 49.4072 26.078 49.6069 25.8092C49.8091 25.5379 49.9102 25.1361 49.9102 24.6037Z" fill="#6D6E70"/>
<path d="M38.545 5C37.8342 5 37.2181 5.50731 36.8943 6.24798L36.8548 6.34945L35.37 10.1035L33.4902 14.8621L34.7223 17.977L34.7934 18.1495C34.983 18.5756 35.2673 18.9308 35.6148 19.1438C35.9623 18.9206 36.2467 18.5756 36.4362 18.1495L36.5073 17.977L40.1957 8.64249L40.2826 8.41927C40.3853 8.11489 40.4406 7.79021 40.4406 7.43509C40.4406 6.08564 39.5955 5 38.545 5Z" fill="#FF5000"/>
<path d="M27.1621 9.52497L25.9379 6.42023L25.8668 6.24775C25.6772 5.82161 25.3929 5.46649 25.0454 5.25342C24.6979 5.47663 24.4135 5.82161 24.224 6.24775L24.1608 6.42023L20.4724 15.7547L20.3855 15.978C20.2828 16.2824 20.2275 16.607 20.2275 16.9621C20.2275 18.3014 21.0726 19.3972 22.1231 19.3972C22.8339 19.3972 23.45 18.8899 23.7738 18.1493L23.8133 18.0478L25.2981 14.2937L27.17 9.53512L27.1621 9.52497Z" fill="#FF5000"/>
<path d="M38.545 5C37.8342 5 37.2102 5.50731 36.8943 6.24798L36.8548 6.34945L35.37 10.1035L33.4902 14.8621L34.7223 17.977L34.7934 18.1495C34.983 18.5756 35.2673 18.9308 35.6148 19.1438C35.9623 18.9206 36.2467 18.5756 36.4362 18.1495L36.5073 17.977L40.1957 8.64249L40.2826 8.41927C40.3853 8.11489 40.4406 7.79021 40.4406 7.43509C40.4406 6.08564 39.5876 5 38.545 5Z" fill="url(#paint0_linear)"/>
<path d="M22.1163 19.3972C22.8271 19.3972 23.451 18.8899 23.767 18.1493L23.8064 18.0478L25.2913 14.2937L27.171 9.53512L25.9389 6.42023L25.8679 6.24775C25.6783 5.82161 25.394 5.46649 25.0465 5.25342C24.6989 5.47663 24.4146 5.82161 24.225 6.24775L24.1619 6.42023L20.4734 15.7547L20.3787 15.9881C20.276 16.2925 20.2207 16.6172 20.2207 16.9723C20.2207 18.3116 21.0658 19.3972 22.1163 19.3972Z" fill="url(#paint1_linear)"/>
<path d="M27.1636 9.52521L25.9394 6.42047L25.8683 6.24798C25.6787 5.82184 25.3944 5.46673 25.0469 5.25366C25.1574 5.18263 25.2838 5.12175 25.4023 5.08117C25.5524 5.03044 25.7182 5 25.8762 5H28.4352H28.451H28.4668C29.1776 5.01015 29.7936 5.50731 30.1175 6.24798L30.1728 6.42047L33.4979 14.8723L34.7221 17.977L34.7931 18.1495C34.9827 18.5756 35.267 18.9308 35.6146 19.1438C35.504 19.2148 35.3776 19.2757 35.2591 19.3163C35.1091 19.367 34.9432 19.3975 34.7774 19.3975H32.2342H32.2184H32.2026C31.4917 19.3873 30.8757 18.8902 30.5519 18.1495L30.4808 17.977L27.1636 9.52521Z" fill="#FF8C44"/>
</g>
<defs>
<linearGradient id="paint0_linear" x1="34.4162" y1="18.4288" x2="43.874" y2="12.137" gradientUnits="userSpaceOnUse">
<stop stop-color="#D4202C"/>
<stop offset="0.0416616" stop-color="#D82D2B" stop-opacity="0.9583"/>
<stop offset="0.176" stop-color="#E25226" stop-opacity="0.824"/>
<stop offset="0.3167" stop-color="#EB7123" stop-opacity="0.6833"/>
<stop offset="0.4635" stop-color="#F28920" stop-opacity="0.5365"/>
<stop offset="0.6188" stop-color="#F69A1E" stop-opacity="0.3812"/>
<stop offset="0.7886" stop-color="#F9A41D" stop-opacity="0.2114"/>
<stop offset="1" stop-color="#FAA71D" stop-opacity="0"/>
</linearGradient>
<linearGradient id="paint1_linear" x1="26.2414" y1="5.96633" x2="16.7835" y2="12.2582" gradientUnits="userSpaceOnUse">
<stop stop-color="#D4202C"/>
<stop offset="0.0416616" stop-color="#D82D2B" stop-opacity="0.9583"/>
<stop offset="0.176" stop-color="#E25226" stop-opacity="0.824"/>
<stop offset="0.3167" stop-color="#EB7123" stop-opacity="0.6833"/>
<stop offset="0.4635" stop-color="#F28920" stop-opacity="0.5365"/>
<stop offset="0.6188" stop-color="#F69A1E" stop-opacity="0.3812"/>
<stop offset="0.7886" stop-color="#F9A41D" stop-opacity="0.2114"/>
<stop offset="1" stop-color="#FAA71D" stop-opacity="0"/>
</linearGradient>
<clipPath id="clip0">
<rect width="41" height="23.2075" fill="white" transform="translate(10 5)"/>
</clipPath>
</defs>
</svg>
