<svg width="64" height="32" viewBox="0 0 64 32" fill="none" xmlns="http://www.w3.org/2000/svg">
<rect width="64" height="32" rx="2" fill="white"/>
<path d="M49.1934 22.5368H15.4802C13.1446 22.5368 10.9047 21.6171 9.25316 19.9801C7.60164 18.3431 6.67383 16.1229 6.67383 13.8078C6.67383 11.4928 7.60164 9.27251 9.25316 7.63551C10.9047 5.99851 13.1446 5.07886 15.4802 5.07886H49.1934C51.529 5.07886 53.7689 5.99851 55.4204 7.63551C57.072 9.27251 57.9998 11.4928 57.9998 13.8078C57.9998 16.1229 57.072 18.3431 55.4204 19.9801C53.7689 21.6171 51.529 22.5368 49.1934 22.5368ZM15.4802 5.8213C13.3224 5.8213 11.2531 6.67093 9.72731 8.18328C8.20155 9.69563 7.34438 11.7468 7.34438 13.8856C7.34438 16.0244 8.20155 18.0756 9.72731 19.5879C11.2531 21.1003 13.3224 21.9499 15.4802 21.9499H49.1934C51.3511 21.9499 53.4205 21.1003 54.9463 19.5879C56.472 18.0756 57.3292 16.0244 57.3292 13.8856C57.3292 11.7468 56.472 9.69563 54.9463 8.18328C53.4205 6.67093 51.3511 5.8213 49.1934 5.8213H15.4802Z" fill="#BBBABA"/>
<path d="M55.9991 5.11426V5.3476H55.6852V6.44358H55.3642V5.3476H55.0503V5.11426H55.9991Z" fill="#969594"/>
<path d="M56.1562 6.44357V5.11426H56.4701L56.7055 5.9769L56.948 5.11426H57.2618V6.44357H57.1049V5.42537L56.7839 6.44357H56.627L56.3916 5.42537V6.44357H56.1562Z" fill="#969594"/>
<path d="M15.4804 23.2438C13.6054 23.2438 11.7724 22.6926 10.2134 21.6601C8.65431 20.6275 7.43918 19.1598 6.72164 17.4427C6.00409 15.7256 5.81636 13.8361 6.18218 12.0133C6.548 10.1904 7.45094 8.516 8.77682 7.20179C10.1027 5.88758 11.792 4.9926 13.631 4.63002C15.47 4.26744 17.3763 4.45355 19.1086 5.16481C20.8409 5.87607 22.3216 7.08054 23.3633 8.6259C24.405 10.1713 24.961 11.9881 24.961 13.8467L24.9609 13.882C24.9459 16.3664 23.9411 18.7443 22.1654 20.4978C20.3897 22.2513 17.9869 23.2383 15.4804 23.2438ZM15.4804 7.43337C13.7615 7.44195 12.1156 8.123 10.9007 9.32836C9.70205 10.5429 9.02235 12.1689 9.00317 13.8678C9.00803 15.5696 9.68988 17.2008 10.9007 18.4073C12.126 19.5954 13.7665 20.2692 15.4804 20.2882C17.1973 20.2834 18.843 19.6075 20.0602 18.4073C21.2647 17.1829 21.9425 15.5427 21.9506 13.8325C21.9468 12.134 21.2635 10.5064 20.0505 9.30677C18.8375 8.10711 17.194 7.43337 15.4804 7.43337Z" fill="#EFBA44"/>
<path d="M26.4663 3H25.7529V3.70709H26.4663V3Z" fill="#EFBA44"/>
<path d="M24.4116 3.70703H23.6982V4.41412H24.4116V3.70703Z" fill="#EFBA44"/>
<path d="M23.0708 5.11426H22.3574V5.82134H23.0708V5.11426Z" fill="#201600"/>
<path d="M25.1961 4.48486H24.4043V5.19195H25.1961V4.48486Z" fill="#201600"/>
<path d="M22.3574 4.48486H21.644V5.11417H22.3574V4.48486Z" fill="#201600"/>
<path d="M24.4116 5.11426H23.6982V5.82134H24.4116V5.11426Z" fill="#201600"/>
<path d="M25.0394 3H23.6982V3.70709H25.0394V3Z" fill="#201600"/>
<path d="M23.6982 3.70703H22.9849V5.11413H23.6982V3.70703Z" fill="#201600"/>
<path d="M22.9851 5.82129V6.52837H22.2717V5.82129H21.0876V6.27382H20.5383V6.93141H21.2516V7.6385H20.5383V6.93141H19.8249V8.00618H19.1116V8.71327H18.6407V9.42036H18.1628C17.2678 10.8901 16.4511 12.4054 15.716 13.9598C14.1395 11.8386 12.9553 10.983 12.0065 10.6578C11.5286 10.5022 10.9008 11.0467 11.6784 11.9093C13.1032 13.4401 14.1807 15.2556 14.8386 17.2337C15.1667 17.9407 16.5791 18.0963 16.8146 17.3114C17.4871 15.613 18.3383 13.9895 19.3541 12.4679V11.6901H19.8963V10.983H20.5383V10.2052H21.2516V9.42036H20.5383V8.71327H21.2516V9.42036H21.965V8.71327H22.5214V7.8577H23.1634V7.30617H23.7198V5.82129H22.9851Z" fill="#201600"/>
<path d="M12.7627 25.6905H13.3191V26.0723C13.404 25.9433 13.5223 25.8392 13.6615 25.7708C13.8008 25.7024 13.9559 25.6723 14.1109 25.6834C14.2594 25.684 14.406 25.7161 14.5409 25.7775C14.6758 25.8389 14.7959 25.9281 14.8932 26.0393C14.9905 26.1504 15.0627 26.2809 15.1049 26.422C15.1472 26.563 15.1585 26.7114 15.1382 26.8572C15.1683 27.1381 15.0857 27.4195 14.9081 27.6405C14.7306 27.8615 14.4724 28.0043 14.1894 28.038H14.1395C13.9845 28.0492 13.8293 28.019 13.6901 27.9506C13.5508 27.8822 13.4326 27.7781 13.3476 27.6491V28.5895H12.7627V25.6905ZM14.6103 26.7794C14.618 26.6943 14.6087 26.6086 14.583 26.527C14.5573 26.4455 14.5156 26.3698 14.4604 26.3042C14.4052 26.2386 14.3374 26.1845 14.2611 26.1448C14.1847 26.1052 14.1013 26.0809 14.0154 26.0732L14.0039 26.0723C13.8286 26.0915 13.6668 26.1744 13.5495 26.305C13.4323 26.4356 13.368 26.6046 13.369 26.7794C13.3596 26.8672 13.3689 26.9559 13.3964 27.0399C13.4238 27.1238 13.4687 27.2012 13.5283 27.2668C13.5878 27.3324 13.6606 27.3849 13.7419 27.4208C13.8233 27.4568 13.9113 27.4753 14.0004 27.4753C14.0894 27.4753 14.1775 27.4568 14.2588 27.4208C14.3401 27.3849 14.4129 27.3324 14.4725 27.2668C14.532 27.2012 14.5769 27.1238 14.6044 27.0399C14.6318 26.9559 14.6411 26.8672 14.6317 26.7794" fill="#969594"/>
<path d="M15.5659 26.7792C15.5732 26.4701 15.7003 26.1758 15.9208 25.9572C16.1413 25.7386 16.4383 25.6126 16.7501 25.6054C16.9028 25.6026 17.0545 25.6296 17.1966 25.6849C17.3388 25.7403 17.4685 25.8228 17.5785 25.9278C17.6884 26.0328 17.7765 26.1583 17.8375 26.297C17.8985 26.4357 17.9314 26.585 17.9343 26.7364C17.9345 26.7506 17.9345 26.7649 17.9343 26.7792C17.9343 27.0905 17.8095 27.389 17.5874 27.6092C17.3653 27.8293 17.0642 27.9529 16.7501 27.9529C16.436 27.9529 16.1348 27.8293 15.9128 27.6092C15.6907 27.389 15.5659 27.0905 15.5659 26.7792ZM17.4634 26.7792C17.4634 26.5917 17.3883 26.4118 17.2545 26.2792C17.1207 26.1466 16.9393 26.0721 16.7501 26.0721C16.5609 26.0721 16.3794 26.1466 16.2457 26.2792C16.1119 26.4118 16.0367 26.5917 16.0367 26.7792C16.0367 26.9667 16.1119 27.1466 16.2457 27.2792C16.3794 27.4118 16.5609 27.4863 16.7501 27.4863C16.846 27.495 16.9426 27.4826 17.0331 27.4502C17.1237 27.4177 17.2059 27.3659 17.274 27.2984C17.342 27.231 17.3943 27.1495 17.427 27.0597C17.4598 26.97 17.4722 26.8742 17.4634 26.7792Z" fill="#969594"/>
<path d="M18.248 25.7046H18.7973L19.1968 27.1895L19.7532 25.7046H20.1456L20.6949 27.1895L21.1728 25.7046H21.6436L20.9303 27.9673H20.4594L19.903 26.4046L19.4322 27.9673H18.9614L18.248 25.7046Z" fill="#969594"/>
<path d="M21.9579 26.7793C21.9483 26.4785 22.0592 26.1862 22.2664 25.9663C22.4736 25.7463 22.7602 25.6166 23.0636 25.6056C23.2079 25.6037 23.3511 25.63 23.4851 25.683C23.6191 25.736 23.7412 25.8147 23.8445 25.9145C23.9479 26.0142 24.0304 26.1332 24.0873 26.2646C24.1442 26.396 24.1745 26.5372 24.1764 26.6802C24.1765 26.6873 24.1765 26.6944 24.1764 26.7015V26.9561H22.5215C22.5325 27.1112 22.6044 27.2558 22.7217 27.3589C22.8391 27.462 22.9926 27.5154 23.1492 27.5076C23.3811 27.5016 23.6043 27.4195 23.7841 27.2743L24.1122 27.4864C23.9937 27.6177 23.8468 27.7208 23.6826 27.7881C23.5184 27.8554 23.3409 27.8852 23.1635 27.8753C23.0074 27.9048 22.8465 27.8977 22.6937 27.8546C22.5409 27.8115 22.4003 27.7336 22.2832 27.6272C22.1661 27.5207 22.0757 27.3886 22.0193 27.2414C21.9628 27.0942 21.9418 26.936 21.9579 26.7793ZM23.6058 26.6238C23.6121 26.4712 23.5595 26.322 23.4588 26.2064C23.3581 26.0908 23.2168 26.0176 23.0636 26.0015C22.9838 26.0019 22.905 26.0191 22.8324 26.0519C22.7597 26.0847 22.695 26.1325 22.6424 26.1919C22.5898 26.2514 22.5505 26.3213 22.5272 26.397C22.5039 26.4727 22.4971 26.5524 22.5072 26.6308H23.6058V26.6238Z" fill="#969594"/>
<path d="M24.6401 25.6903H25.1966V26.1641C25.2578 26.0042 25.366 25.8663 25.5072 25.768C25.6483 25.6697 25.8159 25.6155 25.9884 25.6125V26.1641C25.8764 26.16 25.765 26.1803 25.6617 26.2233C25.5585 26.2663 25.4659 26.3312 25.3906 26.4133C25.3152 26.4954 25.2588 26.5929 25.2253 26.6988C25.1918 26.8047 25.182 26.9166 25.1966 27.0267V27.8894H24.6401V25.6903Z" fill="#969594"/>
<path d="M26.3165 26.7793C26.3069 26.4785 26.4178 26.1861 26.625 25.9662C26.8322 25.7462 27.1188 25.6166 27.4222 25.6055C27.7124 25.6036 27.9915 25.7156 28.1986 25.9169C28.4058 26.1183 28.5242 26.3927 28.5279 26.6803V26.9348H26.8658C26.8768 27.0912 26.9497 27.2369 27.0686 27.3402C27.1876 27.4435 27.3429 27.4961 27.5007 27.4863C27.7325 27.4803 27.9558 27.3982 28.1356 27.253L28.4566 27.4863C28.338 27.6176 28.1912 27.7207 28.0269 27.788C27.8627 27.8553 27.6853 27.8851 27.5078 27.8752C27.3528 27.9022 27.1936 27.8932 27.0426 27.849C26.8916 27.8048 26.753 27.7266 26.6377 27.6204C26.5223 27.5143 26.4333 27.3831 26.3776 27.2372C26.3218 27.0912 26.301 26.9345 26.3165 26.7793ZM27.9644 26.6237C27.9702 26.4666 27.9138 26.3135 27.8071 26.1972C27.7004 26.0809 27.552 26.0106 27.3937 26.0015C27.3139 26.0018 27.2351 26.019 27.1624 26.0518C27.0898 26.0846 27.0251 26.1324 26.9725 26.1919C26.9199 26.2514 26.8806 26.3213 26.8573 26.3969C26.834 26.4726 26.8272 26.5523 26.8373 26.6308H27.9644V26.6237Z" fill="#969594"/>
<path d="M28.9058 26.7792C28.8855 26.6335 28.8968 26.4851 28.9391 26.344C28.9813 26.2029 29.0535 26.0725 29.1508 25.9613C29.248 25.8502 29.3682 25.7609 29.5031 25.6995C29.638 25.6382 29.7846 25.6061 29.933 25.6054C30.088 25.5943 30.2432 25.6245 30.3825 25.6929C30.5217 25.7613 30.6399 25.8654 30.7249 25.9943V24.8418H31.3098V27.9813H30.732V27.5853C30.6471 27.7143 30.5288 27.8184 30.3896 27.8868C30.2504 27.9552 30.0952 27.9853 29.9402 27.9742C29.7896 27.974 29.6409 27.9415 29.5043 27.8788C29.3676 27.8162 29.2463 27.725 29.1487 27.6114C29.0511 27.4978 28.9794 27.3646 28.9387 27.2209C28.898 27.0773 28.8892 26.9266 28.913 26.7792H28.9058ZM30.732 26.7792C30.7397 26.6941 30.7305 26.6084 30.7047 26.5268C30.679 26.4453 30.6374 26.3696 30.5821 26.304C30.5269 26.2384 30.4592 26.1843 30.3828 26.1447C30.3065 26.105 30.223 26.0807 30.1371 26.073L30.1257 26.0721C30.0338 26.0664 29.9419 26.0814 29.8568 26.1161C29.7716 26.1508 29.6956 26.2042 29.6344 26.2724C29.5733 26.3405 29.5285 26.4216 29.5036 26.5094C29.4787 26.5972 29.4743 26.6895 29.4908 26.7792C29.4813 26.867 29.4906 26.9557 29.5181 27.0397C29.5455 27.1237 29.5905 27.201 29.65 27.2666C29.7095 27.3322 29.7823 27.3847 29.8637 27.4206C29.945 27.4566 30.033 27.4751 30.1221 27.4751C30.2111 27.4751 30.2992 27.4566 30.3805 27.4206C30.4618 27.3847 30.5346 27.3322 30.5942 27.2666C30.6537 27.201 30.6987 27.1237 30.7261 27.0397C30.7535 26.9557 30.7628 26.867 30.7534 26.7792" fill="#969594"/>
<path d="M33.6425 27.5784V27.9107H33.1646V24.7642H33.721V26.0228C33.8059 25.8938 33.9241 25.7897 34.0634 25.7213C34.2026 25.6529 34.3578 25.6227 34.5128 25.6339C34.789 25.6378 35.0523 25.7504 35.2447 25.9468C35.4372 26.1432 35.5431 26.4073 35.5391 26.6811C35.5386 26.7139 35.5365 26.7467 35.5329 26.7794C35.5607 27.0631 35.4736 27.3461 35.2908 27.5662C35.108 27.7862 34.8446 27.9253 34.5583 27.9529L34.5556 27.9531H34.5057C34.3386 27.9734 34.1691 27.9478 34.0157 27.8793C33.8622 27.8107 33.7307 27.7017 33.6354 27.5642L33.6425 27.5784ZM34.9765 26.7794C34.9842 26.6943 34.9749 26.6085 34.9492 26.527C34.9235 26.4454 34.8818 26.3697 34.8266 26.3041C34.7713 26.2386 34.7036 26.1844 34.6273 26.1448C34.5509 26.1052 34.4674 26.0808 34.3816 26.0732L34.3701 26.0723C34.1948 26.0915 34.033 26.1744 33.9157 26.305C33.7985 26.4356 33.7342 26.6046 33.7352 26.7794C33.7258 26.8671 33.7351 26.9559 33.7625 27.0398C33.79 27.1238 33.8349 27.2011 33.8945 27.2667C33.954 27.3324 34.0268 27.3849 34.1081 27.4208C34.1895 27.4567 34.2775 27.4753 34.3666 27.4753C34.4556 27.4753 34.5436 27.4567 34.625 27.4208C34.7063 27.3849 34.7791 27.3324 34.8386 27.2667C34.8982 27.2011 34.9431 27.1238 34.9706 27.0398C34.998 26.9559 35.0073 26.8671 34.9979 26.7794" fill="#969594"/>
<path d="M35.861 28.5259L36.0179 28.137C36.0631 28.1738 36.1161 28.1999 36.1729 28.2133C36.2298 28.2268 36.289 28.2273 36.346 28.2147C36.4192 28.2177 36.4912 28.1963 36.5506 28.154C36.6101 28.1118 36.6536 28.051 36.6742 27.9814L35.6826 25.6975H36.239L36.8739 27.3309L37.4375 25.6975H37.9939L37.1093 27.9814C37.0899 28.1551 37.0063 28.3156 36.8746 28.4318C36.7428 28.548 36.5723 28.6118 36.396 28.6107C36.2069 28.63 36.0159 28.6033 35.8396 28.5329" fill="#969594"/>
<path d="M26.8228 11.4566L27.8143 11.3647C27.8483 11.6339 27.9741 11.8834 28.171 12.0718C28.3741 12.2288 28.627 12.309 28.8844 12.2981C29.1387 12.3116 29.3901 12.2393 29.5977 12.093C29.6769 12.0441 29.7437 11.9779 29.7931 11.8994C29.8426 11.821 29.8733 11.7325 29.8831 11.6405C29.8862 11.5296 29.8481 11.4214 29.776 11.3364C29.6751 11.236 29.5498 11.163 29.4122 11.1243C29.2933 11.0819 29.0223 11.0112 28.599 10.9122C28.1859 10.8384 27.7954 10.6715 27.4576 10.4243C27.3121 10.3013 27.1952 10.1485 27.1152 9.97636C27.0351 9.80421 26.9938 9.61687 26.994 9.42731C27.0021 9.17296 27.0865 8.92678 27.2365 8.72023C27.3895 8.49361 27.6085 8.31852 27.8643 8.2182C28.1798 8.0957 28.5171 8.03797 28.8558 8.0485C29.3655 8.01196 29.8716 8.15744 30.2825 8.45861C30.4419 8.59369 30.5693 8.76193 30.6556 8.95136C30.7419 9.1408 30.785 9.34676 30.7819 9.55459L29.7546 9.59701C29.7288 9.38579 29.6246 9.19168 29.4622 9.05256C29.2733 8.92655 29.0473 8.86682 28.8201 8.88286C28.5693 8.86322 28.3188 8.92529 28.1068 9.05963C28.056 9.09269 28.0144 9.13784 27.9857 9.19095C27.9571 9.24407 27.9423 9.30345 27.9427 9.36368C27.9424 9.42236 27.9558 9.48031 27.9818 9.53305C28.0078 9.58578 28.0457 9.63186 28.0925 9.66772C28.3786 9.83233 28.6931 9.94264 29.0199 9.99298C29.3942 10.071 29.7581 10.192 30.1042 10.3536C30.3316 10.4686 30.5238 10.6419 30.6606 10.8556C30.7979 11.1003 30.8664 11.377 30.8588 11.6569C30.8513 11.9368 30.7681 12.2095 30.6178 12.4466C30.4571 12.699 30.2198 12.8945 29.9401 13.0052C29.5914 13.1341 29.2206 13.1941 28.8487 13.1819C28.3363 13.2124 27.83 13.0593 27.422 12.7506C27.0601 12.4129 26.8452 11.9488 26.8228 11.4566Z" fill="black"/>
<path d="M33.6638 11.9306L34.6197 12.0932C34.5141 12.4138 34.3063 12.6918 34.0276 12.8852C33.7326 13.0733 33.3865 13.1671 33.036 13.1538C32.7652 13.1783 32.4926 13.1347 32.2432 13.0272C31.9939 12.9197 31.7759 12.7517 31.6093 12.5387C31.3604 12.1794 31.233 11.7511 31.2455 11.3154C31.2115 10.8014 31.3803 10.2943 31.7163 9.90125C31.8662 9.73639 32.0502 9.60555 32.2558 9.51768C32.4615 9.42982 32.6838 9.387 32.9076 9.39215C33.1468 9.38099 33.3855 9.42279 33.6064 9.51453C33.8273 9.60626 34.0248 9.74561 34.1845 9.92246C34.5347 10.3923 34.695 10.9749 34.6339 11.5558H32.2585C32.2529 11.7929 32.334 12.0239 32.4867 12.2063C32.5566 12.2832 32.6426 12.344 32.7388 12.3843C32.8349 12.4246 32.9388 12.4435 33.0432 12.4397C33.1864 12.4575 33.3312 12.4223 33.4498 12.3407C33.5625 12.2294 33.6373 12.0861 33.6638 11.9306ZM33.7208 10.9689C33.7279 10.7381 33.6463 10.5132 33.4926 10.3396C33.3667 10.2094 33.1955 10.1318 33.0138 10.1226C32.8322 10.1134 32.6538 10.1733 32.5153 10.2901L32.4725 10.3326C32.3293 10.5049 32.2579 10.725 32.2727 10.9477H33.6994L33.7208 10.9689Z" fill="black"/>
<path d="M38.4434 10.5516L37.4946 10.7213C37.4747 10.5597 37.3991 10.4099 37.2806 10.2971C37.1574 10.1997 37.0029 10.1495 36.8455 10.1557C36.7376 10.1515 36.6303 10.1715 36.5314 10.2144C36.4326 10.2573 36.3448 10.3218 36.2748 10.4032C36.11 10.6438 36.0343 10.9337 36.0608 11.2234C36.0305 11.5401 36.1056 11.858 36.2748 12.1284C36.3449 12.2143 36.4343 12.2827 36.5359 12.3281C36.6375 12.3736 36.7484 12.3948 36.8597 12.3901C37.0239 12.3958 37.1843 12.3403 37.3091 12.2345C37.448 12.0891 37.5356 11.9031 37.5588 11.7042L38.5004 11.8527C38.4348 12.2357 38.2353 12.5837 37.9369 12.8355C37.6125 13.0685 37.2169 13.1833 36.8169 13.1608C36.5819 13.173 36.347 13.1351 36.1279 13.0497C35.9089 12.9643 35.7109 12.8334 35.5472 12.6658C35.3768 12.4733 35.2469 12.2491 35.1648 12.0063C35.0828 11.7636 35.0503 11.507 35.0692 11.2517C35.0507 10.9963 35.0834 10.7399 35.1654 10.4972C35.2474 10.2544 35.3772 10.0302 35.5472 9.83748C35.7141 9.67026 35.9148 9.53976 36.136 9.45448C36.3572 9.3692 36.5941 9.33105 36.8312 9.34252C37.2045 9.32292 37.5744 9.42201 37.887 9.62536C38.1774 9.85892 38.3746 10.1872 38.4434 10.5516Z" fill="black"/>
<path d="M41.3823 13.0759V12.5314C41.2489 12.7223 41.07 12.8778 40.8616 12.9839C40.6422 13.0997 40.3967 13.1581 40.1482 13.1536C39.9189 13.1569 39.6927 13.1008 39.4919 12.991C39.3056 12.893 39.1575 12.7363 39.0711 12.5455C38.9734 12.2908 38.9297 12.0188 38.9427 11.7465V9.46265H39.8985V11.1172C39.8835 11.4269 39.9002 11.7372 39.9485 12.0435C39.9808 12.1518 40.0486 12.2463 40.1411 12.3122C40.2462 12.3822 40.3713 12.4169 40.4978 12.4112C40.6542 12.4175 40.8087 12.3755 40.94 12.291C41.059 12.2114 41.151 12.098 41.204 11.9657C41.2702 11.6425 41.2942 11.3122 41.2753 10.9829V9.47679H42.2312V13.0688H41.3823V13.0759Z" fill="black"/>
<path d="M44.0148 13.0759H43.0518V9.47683H43.9435V9.98594C44.0512 9.80013 44.197 9.63874 44.3715 9.51219C44.4955 9.43566 44.6392 9.39636 44.7852 9.39906C45.0092 9.39908 45.2289 9.46024 45.4201 9.57583L45.1205 10.4031C44.9889 10.3095 44.8329 10.2555 44.6711 10.2476C44.5519 10.2475 44.4363 10.2874 44.3429 10.3607C44.2298 10.4669 44.1526 10.6052 44.1218 10.7567C44.0546 11.1441 44.0283 11.5375 44.0433 11.9304V13.0405L44.0148 13.0759Z" fill="black"/>
<path d="M47.7172 11.9306L48.6731 12.0932C48.5694 12.4128 48.3642 12.6907 48.0881 12.8852C47.7932 13.0733 47.4471 13.1671 47.0966 13.1538C46.8258 13.1783 46.5531 13.1347 46.3038 13.0272C46.0544 12.9197 45.8364 12.7517 45.6699 12.5387C45.4209 12.1794 45.2936 11.7511 45.306 11.3154C45.2721 10.8014 45.4409 10.2943 45.7769 9.90125C45.9307 9.73173 46.1205 9.59814 46.3327 9.51011C46.5448 9.42207 46.7741 9.38179 47.0038 9.39215C47.243 9.38099 47.4818 9.42279 47.7026 9.51453C47.9235 9.60626 48.121 9.74561 48.2807 9.92246C48.6303 10.3926 48.7905 10.9749 48.7301 11.5558H46.3475C46.344 11.7938 46.4276 12.0249 46.583 12.2063C46.6528 12.2832 46.7389 12.344 46.835 12.3843C46.9311 12.4246 47.035 12.4435 47.1394 12.4397C47.2757 12.4445 47.4094 12.402 47.5174 12.3195C47.6211 12.2121 47.6906 12.0769 47.7172 11.9306ZM47.7743 10.9689C47.7845 10.7401 47.7082 10.5156 47.5602 10.3396C47.4344 10.2094 47.2632 10.1318 47.0815 10.1226C46.8999 10.1134 46.7215 10.1733 46.583 10.2901L46.5401 10.3326C46.397 10.5049 46.3255 10.725 46.3404 10.9477H47.7671L47.7743 10.9689Z" fill="black"/>
<path d="M52.7105 13.076H51.7974V12.5457C51.6649 12.7393 51.4859 12.8972 51.2767 13.0053C51.0891 13.1012 50.8814 13.152 50.6703 13.1538C50.4656 13.1538 50.2634 13.1088 50.0784 13.0219C49.8934 12.9351 49.7301 12.8087 49.6003 12.6518C49.2784 12.2524 49.1205 11.7474 49.158 11.2376C49.1163 10.7285 49.2719 10.2228 49.5932 9.82344C49.7307 9.67025 49.9001 9.54854 50.0898 9.46674C50.2795 9.38493 50.4849 9.345 50.6917 9.3497C50.8937 9.35172 51.0927 9.39849 51.2742 9.48658C51.4556 9.57466 51.6149 9.70184 51.7404 9.8588V8.10522H52.7105V13.0548V13.076ZM50.1282 11.2235C50.1076 11.5111 50.1642 11.7989 50.2922 12.0578C50.3497 12.1637 50.4333 12.2535 50.5352 12.3188C50.6371 12.384 50.754 12.4227 50.875 12.4312C50.996 12.4396 51.1173 12.4176 51.2274 12.3672C51.3375 12.3168 51.433 12.2395 51.5049 12.1427C51.6742 11.8982 51.7547 11.604 51.7332 11.3083C51.7614 10.9952 51.6836 10.6818 51.5121 10.4174C51.4423 10.3334 51.3546 10.2657 51.2553 10.2192C51.1561 10.1728 51.0476 10.1487 50.9378 10.1487C50.828 10.1487 50.7196 10.1728 50.6203 10.2192C50.521 10.2657 50.4334 10.3334 50.3636 10.4174C50.186 10.648 50.0975 10.9339 50.1139 11.2235H50.1282Z" fill="black"/>
<path d="M27.7432 18.3437V14.9356H29.0272C29.2005 14.9212 29.3747 14.9212 29.548 14.9356C29.698 14.9564 29.8416 15.0095 29.9688 15.0911C30.0882 15.1741 30.184 15.2861 30.247 15.4164C30.3393 15.6116 30.3723 15.8292 30.3419 16.0426C30.3115 16.2561 30.219 16.4562 30.0758 16.6184C29.9392 16.7374 29.7796 16.8276 29.6066 16.8835C29.4337 16.9394 29.2512 16.9599 29.07 16.9437H28.1854V18.3578H27.7432V18.3437ZM28.1997 16.5619H29.0771C29.3015 16.5835 29.5264 16.5259 29.712 16.3992C29.7727 16.3396 29.8194 16.2676 29.849 16.1882C29.8786 16.1088 29.8903 16.024 29.8832 15.9396C29.8869 15.809 29.8495 15.6805 29.7762 15.5719C29.7089 15.4719 29.6077 15.3992 29.4909 15.3669C29.351 15.3519 29.2099 15.3519 29.07 15.3669H28.1854V16.5831L28.1997 16.5619Z" fill="#999999"/>
<path d="M30.1968 18.3437L31.5165 14.9355H32.023L33.4497 18.3437H32.8719L32.4724 17.3114H31.0457L30.6676 18.3437H30.1968ZM31.1883 16.9295H32.3511L32.023 15.9962C31.9136 15.7086 31.8327 15.4729 31.7804 15.2891C31.7357 15.5104 31.6737 15.7279 31.595 15.9396L31.1883 16.9295Z" fill="#999999"/>
<path d="M34.3842 18.3439V16.8803L33.0645 14.9216H33.6209L34.2986 15.9469C34.4222 16.1402 34.5387 16.3311 34.6481 16.5196C34.7527 16.3405 34.8788 16.1402 35.0262 15.9186L35.6825 14.9216H36.2104L34.8407 16.8803V18.2944H34.3842V18.3439Z" fill="#999999"/>
<path d="M36.603 18.3437V14.9355H37.3164L38.1296 17.3467C38.2057 17.5636 38.2604 17.7309 38.2937 17.8487C38.3317 17.7262 38.3936 17.5447 38.4792 17.3043L39.3066 14.9355H39.8702V18.3437H39.4279V15.5154L38.4364 18.3437H38.0297L37.0168 15.4659V18.3649H36.603V18.3437Z" fill="#999999"/>
<path d="M40.6191 18.3437V14.9355H43.1016V15.3386H41.0757V16.3851H42.9803V16.781H41.0757V17.9407H43.2158V18.3366H40.6191V18.3437Z" fill="#999999"/>
<path d="M43.8008 18.3437V14.9355H44.2716L46.0764 17.5871V14.9355H46.5115V18.3366H46.0407L44.2502 15.6638V18.3366H43.8008V18.3437Z" fill="#999999"/>
<path d="M48.1453 18.3437V15.3386H47.0039V14.9355H49.7218V15.3386H48.6018V18.3366H48.1453V18.3437Z" fill="#999999"/>
<path d="M50.0283 17.2477L50.4563 17.2053C50.468 17.3529 50.5144 17.4958 50.5919 17.6225C50.6804 17.7413 50.8018 17.8322 50.9414 17.8841C51.1087 17.9526 51.2884 17.9863 51.4693 17.9831C51.625 17.9851 51.7798 17.9587 51.9258 17.9053C52.0447 17.8655 52.1489 17.7917 52.2255 17.6932C52.2867 17.6088 52.3192 17.5072 52.3182 17.4033C52.3215 17.3011 52.2887 17.2011 52.2255 17.1204C52.1373 17.0233 52.0237 16.9524 51.8973 16.9154C51.6956 16.8532 51.4909 16.8013 51.2838 16.7598C51.0578 16.7133 50.8377 16.6422 50.6275 16.5477C50.479 16.4735 50.3534 16.3612 50.2637 16.2224C50.1829 16.0956 50.1407 15.9482 50.1425 15.7982C50.141 15.6274 50.1906 15.4601 50.2851 15.3174C50.3934 15.1676 50.5452 15.0541 50.7203 14.9921C50.9218 14.9109 51.1376 14.87 51.3552 14.8719C51.5802 14.8711 51.8033 14.9144 52.0114 14.9992C52.1947 15.0713 52.3515 15.1971 52.4609 15.3598C52.5671 15.5197 52.6264 15.7058 52.6321 15.8972H52.1969C52.1825 15.7349 52.1119 15.5825 51.9972 15.4658C51.8225 15.3444 51.6107 15.2869 51.398 15.3032C51.1872 15.2856 50.9764 15.3378 50.7987 15.4517C50.7417 15.4934 50.6953 15.5477 50.6631 15.6103C50.6309 15.6729 50.6138 15.7421 50.6133 15.8123C50.6076 15.8727 50.6163 15.9336 50.6386 15.99C50.6609 16.0465 50.6962 16.097 50.7417 16.1376C50.9597 16.2668 51.2028 16.3487 51.455 16.378C51.7128 16.427 51.9658 16.498 52.2112 16.5901C52.3879 16.6631 52.541 16.783 52.6535 16.9366C52.7488 17.079 52.7985 17.2465 52.7961 17.4174C52.794 17.5985 52.7395 17.7752 52.6392 17.9265C52.5338 18.0861 52.3856 18.2135 52.2112 18.2942C52.0042 18.3828 51.7803 18.4263 51.5549 18.4215C51.2868 18.4299 51.0199 18.3842 50.7702 18.2871C50.5693 18.2044 50.3979 18.064 50.278 17.8841C50.1318 17.7018 50.0448 17.4799 50.0283 17.2477Z" fill="#999999"/>
<path d="M39.7984 28.0591V24.8702H40.8399C41.098 24.8629 41.3562 24.8819 41.6104 24.9267C41.798 24.9792 41.9618 25.094 42.0741 25.252C42.2052 25.4326 42.2705 25.652 42.2595 25.8742C42.2656 26.0454 42.2288 26.2155 42.1525 26.3692C42.0897 26.4976 41.9968 26.6091 41.8814 26.6944C41.7826 26.7641 41.6712 26.8145 41.5533 26.8429C41.3362 26.8763 41.1166 26.8905 40.897 26.8854H40.4476V28.0874H39.7842L39.7984 28.0591ZM40.4547 25.4075V26.3126H40.8114C40.9747 26.3196 41.1381 26.303 41.2965 26.2631C41.3962 26.2308 41.4802 26.1627 41.5319 26.0722C41.581 25.999 41.6059 25.9126 41.6032 25.8247C41.609 25.7189 41.5732 25.615 41.5034 25.5348C41.4343 25.4591 41.3412 25.4092 41.2394 25.3934C41.0827 25.3817 40.9253 25.3817 40.7686 25.3934H40.4619L40.4547 25.4075Z" fill="#969594"/>
<path d="M43.1445 26.454L42.5809 26.355C42.6279 26.1568 42.7442 25.9815 42.909 25.8601C43.1235 25.7325 43.3733 25.6756 43.6224 25.6974C43.8317 25.6869 44.0408 25.7207 44.2359 25.7964C44.355 25.847 44.4549 25.9336 44.5212 26.0439C44.5898 26.217 44.619 26.4028 44.6068 26.5884V27.2954C44.5932 27.4436 44.5932 27.5927 44.6068 27.7409C44.6292 27.8487 44.6651 27.9532 44.7138 28.052H44.1075C44.0931 27.9917 44.074 27.9326 44.0504 27.8753V27.8045C43.9557 27.899 43.8445 27.9756 43.7223 28.0308C43.6004 28.082 43.4694 28.1084 43.3371 28.1086C43.227 28.1211 43.1156 28.1105 43.0099 28.0776C42.9042 28.0448 42.8067 27.9903 42.7236 27.9177C42.6152 27.8086 42.5455 27.6676 42.5249 27.5158C42.5043 27.3641 42.534 27.2098 42.6094 27.0762C42.673 26.975 42.7647 26.894 42.8734 26.8429C43.031 26.776 43.1963 26.7285 43.3656 26.7015C43.5695 26.6703 43.7701 26.6206 43.9648 26.553V26.4894C43.9696 26.4433 43.9645 26.3968 43.9497 26.3529C43.935 26.309 43.9109 26.2688 43.8792 26.2348C43.7812 26.1745 43.666 26.1472 43.5511 26.157C43.4609 26.1513 43.3711 26.1735 43.2943 26.2207C43.2206 26.2807 43.1681 26.3624 43.1445 26.454ZM43.9719 26.949L43.5939 27.0409C43.4796 27.0593 43.369 27.0951 43.2657 27.147C43.2292 27.1694 43.199 27.2006 43.1778 27.2377C43.1566 27.2748 43.1451 27.3165 43.1445 27.3591C43.1443 27.3999 43.1524 27.4404 43.1683 27.478C43.1842 27.5157 43.2077 27.5498 43.2372 27.5783C43.27 27.61 43.3092 27.6346 43.3522 27.6505C43.3952 27.6663 43.4411 27.673 43.4869 27.6702C43.6051 27.6717 43.7204 27.6345 43.815 27.5641C43.8844 27.5135 43.9346 27.4413 43.9577 27.3591C43.9701 27.2605 43.9701 27.1607 43.9577 27.0621V26.949H43.9719Z" fill="#969594"/>
<path d="M44.7778 25.7539H45.4341L45.9905 27.3873L46.5327 25.7539H47.1747L46.3472 27.9812L46.1974 28.3843C46.1564 28.4932 46.1038 28.5975 46.0405 28.6954C45.9994 28.757 45.9489 28.8119 45.8907 28.858C45.8188 28.9063 45.7392 28.9421 45.6553 28.9641C45.548 28.9905 45.4376 29.0024 45.3271 28.9994C45.2097 29 45.0925 28.9882 44.9776 28.9641L44.8991 28.4974C44.9869 28.5059 45.0753 28.5059 45.163 28.4974C45.224 28.5036 45.2856 28.4953 45.3427 28.4731C45.3997 28.451 45.4506 28.4157 45.4912 28.3701C45.566 28.2739 45.6195 28.163 45.6481 28.0449L44.7778 25.7539Z" fill="#969594"/>
<path d="M48.0024 28.059V24.8701H49.0439C49.3018 24.8605 49.5599 24.8771 49.8144 24.9196C50.002 24.972 50.1658 25.0868 50.278 25.2448C50.4091 25.4255 50.4745 25.6448 50.4635 25.8671C50.4695 26.0383 50.4328 26.2083 50.3565 26.362C50.2937 26.4904 50.2008 26.6019 50.0854 26.6873C49.9866 26.757 49.8752 26.8074 49.7573 26.8358C49.5402 26.8691 49.3206 26.8833 49.101 26.8782H48.6587V28.0802H48.0024V28.059ZM48.6587 25.4075V26.3125H49.0154C49.1882 26.3224 49.3614 26.3057 49.529 26.263C49.6151 26.2231 49.6854 26.156 49.7288 26.0721C49.7774 25.9987 49.8023 25.9124 49.8001 25.8246C49.8058 25.7188 49.77 25.615 49.7002 25.5347C49.6312 25.459 49.538 25.4091 49.4363 25.3933C49.2796 25.3816 49.1222 25.3816 48.9655 25.3933H48.6587V25.4075Z" fill="#969594"/>
<path d="M51.3405 26.454L50.7841 26.355C50.8311 26.1568 50.9474 25.9815 51.1123 25.8601C51.3267 25.7325 51.5765 25.6756 51.8256 25.6974C52.0349 25.6869 52.244 25.7207 52.4391 25.7964C52.5575 25.8564 52.6528 25.9533 52.7102 26.0722C52.7792 26.2451 52.8084 26.4311 52.7958 26.6166V27.3237C52.7826 27.4719 52.7826 27.621 52.7958 27.7692C52.8207 27.8772 52.859 27.9817 52.9099 28.0803H52.2822L52.2251 27.9035V27.8328C52.1304 27.9273 52.0192 28.0039 51.8969 28.0591C51.7752 28.1108 51.6441 28.1373 51.5117 28.1369C51.3061 28.1476 51.1042 28.0792 50.9482 27.946C50.8398 27.8369 50.7701 27.6958 50.7495 27.5441C50.7289 27.3924 50.7586 27.2381 50.834 27.1045C50.8973 27.003 50.989 26.922 51.098 26.8712C51.2556 26.8042 51.4209 26.7567 51.5902 26.7298C51.7913 26.7028 51.9894 26.6578 52.1823 26.5954V26.5247C52.1871 26.4787 52.182 26.4322 52.1672 26.3883C52.1524 26.3444 52.1284 26.3041 52.0967 26.2702C51.9988 26.2094 51.8836 26.182 51.7685 26.1924C51.6784 26.1871 51.5888 26.2093 51.5117 26.256C51.436 26.3036 51.3764 26.3726 51.3405 26.454ZM52.168 26.949L51.7899 27.0409C51.6757 27.0594 51.5651 27.0952 51.4618 27.147C51.4253 27.1694 51.3951 27.2006 51.3739 27.2377C51.3527 27.2748 51.3412 27.3165 51.3405 27.3591C51.3403 27.3999 51.3485 27.4404 51.3644 27.478C51.3803 27.5157 51.4037 27.5498 51.4333 27.5783C51.4661 27.61 51.5053 27.6346 51.5483 27.6505C51.5913 27.6663 51.6372 27.673 51.6829 27.6702C51.7947 27.6728 51.9044 27.6407 51.9968 27.5783C52.0688 27.5288 52.1217 27.4565 52.1466 27.3732C52.1589 27.2746 52.1589 27.1749 52.1466 27.0762V26.949H52.168Z" fill="#969594"/>
<path d="M53.2739 28.0591V24.8701H53.8874V28.0591H53.2739Z" fill="#969594"/>
</svg>
