<svg width="62" height="32" viewBox="0 0 62 32" fill="none" xmlns="http://www.w3.org/2000/svg">
<rect width="62" height="32" rx="2" fill="white"/>
<path d="M16.2015 27C16.2015 27 4.82085 23.1879 6.10033 7.40446C9.3984 6.53526 12.7899 6.06371 16.2015 6C19.6131 6.06371 23.0046 6.53526 26.3026 7.40446C27.6494 23.121 16.2015 27 16.2015 27Z" fill="url(#paint0_linear)"/>
<path d="M16.2015 27C16.2015 27 4.82085 23.1879 6.10033 7.40446C9.3984 6.53526 12.7899 6.06371 16.2015 6C19.6131 6.06371 23.0046 6.53526 26.3026 7.40446L25.2925 8.34076L16.2015 25.9968V27Z" fill="url(#paint1_linear)"/>
<path d="M16.2018 25.9968C16.2018 25.9968 5.89859 22.5191 7.04338 8.27387C10.0328 7.48192 13.1083 7.0552 16.2018 7.00317C19.2952 7.0552 22.3707 7.48192 25.3601 8.27387C26.5723 22.5191 16.2018 25.9968 16.2018 25.9968Z" fill="white"/>
<path d="M7.04298 8.14009L6.97564 8.27384C6.36957 15.6974 8.92853 20.1114 11.1508 22.6528C12.5177 24.2261 14.2517 25.4431 16.2014 26.1974H16.336C18.2833 25.4032 20.0306 24.193 21.454 22.6528C23.6762 20.2452 26.2352 15.7643 25.6291 8.34072V8.20696H25.5618C22.5131 7.36042 19.3666 6.9108 16.2014 6.86938C13.1079 6.92142 10.0324 7.34814 7.04298 8.14009ZM16.336 7.07002C19.3603 7.15515 22.3651 7.58145 25.2924 8.34072C25.3597 9.07639 25.3597 9.87894 25.3597 10.5477C25.3597 16.5668 23.1375 20.3121 21.1172 22.4522C19.7655 23.9668 18.0845 25.1561 16.2014 25.9299C14.3075 25.1405 12.6077 23.9543 11.2181 22.4522C9.26524 20.3121 7.04298 16.5668 7.04298 10.5477C7.04298 9.87894 7.11032 9.00951 7.17767 8.34072C10.18 7.61386 13.2481 7.18816 16.336 7.07002Z" fill="url(#paint2_linear)"/>
<path d="M16.2016 24.258C16.2016 24.258 7.58192 21.1147 8.5247 9.21021C8.5247 9.21021 12.3631 9.5446 16.2016 9.5446C18.7647 9.56671 21.3271 9.45509 23.8784 9.21021C24.8886 21.1147 16.2016 24.258 16.2016 24.258Z" fill="url(#paint3_linear)"/>
<path d="M16.2689 23.1879C16.2689 23.1879 8.79401 20.4458 9.66945 10.1465C9.66945 10.1465 12.9692 10.414 16.2689 10.414C19.5686 10.414 22.8009 10.1465 22.9356 10.1465C23.7437 20.5127 16.2689 23.1879 16.2689 23.1879Z" fill="url(#paint4_radial)"/>
<path d="M23.9455 9.14331C21.3717 9.38821 18.7868 9.49982 16.2013 9.47771C12.3628 9.47771 8.52441 9.14331 8.52441 9.14331L9.60187 10.1465C9.60187 10.1465 12.9016 10.414 16.2013 10.414C19.501 10.414 22.7334 10.1465 22.868 10.1465L23.9455 9.14331Z" fill="#6A3736"/>
<path d="M16.2016 24.258C16.2016 24.258 7.58192 21.1147 8.5247 9.21021L9.60215 10.2134C8.72672 20.5128 16.2016 23.2548 16.2016 23.2548V24.258Z" fill="url(#paint5_linear)"/>
<path d="M22.4641 11.6177L17.1442 20.9807H14.7199L11.8242 14.761H14.3158L15.9994 18.8406L20.1745 11.6177H22.4641Z" fill="white"/>
<path d="M30.7472 20.8472C30.4049 20.7103 30.0387 20.6421 29.6697 20.6466C29.5592 20.6243 29.4453 20.624 29.3346 20.6456C29.2239 20.6672 29.1186 20.7104 29.0247 20.7725C28.9309 20.8347 28.8503 20.9146 28.7877 21.0078C28.725 21.1009 28.6815 21.2054 28.6596 21.3154V21.3822C28.6596 22.5192 31.2186 22.2517 31.2186 24.1911C31.2186 25.4618 30.2758 25.93 29.0637 25.93C28.6513 25.9286 28.242 25.8609 27.8515 25.7294L27.9189 24.9937C28.3173 25.1844 28.7563 25.2762 29.1983 25.2612C29.4724 25.2753 29.7419 25.187 29.9537 25.0137C30.1656 24.8405 30.3045 24.5947 30.3431 24.3249C30.3431 22.9873 27.7842 23.3886 27.7842 21.516C27.7842 20.4459 28.6596 19.9109 29.6697 19.9109C30.1111 19.9028 30.5486 19.9943 30.9492 20.1784L30.7472 20.8472Z" fill="#333333" stroke="#333333" stroke-width="0.5" stroke-miterlimit="10"/>
<path d="M32.3632 19.9775H35.6629V20.6463H33.2387V22.3852H35.4609V23.1209H33.2387V25.0603H35.6629V25.796H32.2959V19.9775H32.3632Z" fill="#333333" stroke="#333333" stroke-width="0.5" stroke-miterlimit="10"/>
<path d="M40.8484 20.9142C40.4793 20.7027 40.0623 20.5877 39.6363 20.5798C39.0205 20.6074 38.4408 20.8763 38.0243 21.3276C37.6077 21.7789 37.3883 22.3758 37.414 22.9874C37.4496 23.5499 37.6862 24.0813 38.0813 24.4859C38.4764 24.8906 39.0039 25.1418 39.5689 25.1944C40.0074 25.1767 40.4399 25.0863 40.8484 24.9269L40.9157 25.7295C40.5043 25.9516 40.0348 26.0449 39.5689 25.997C39.187 26.0318 38.8018 25.9894 38.4368 25.8724C38.0718 25.7555 37.7343 25.5663 37.4449 25.3163C37.1554 25.0664 36.9199 24.7608 36.7526 24.418C36.5853 24.0752 36.4896 23.7023 36.4712 23.3218V22.9205C36.4426 22.1419 36.7229 21.3833 37.2519 20.8079C37.7809 20.2325 38.5162 19.8864 39.2996 19.8441H39.5689C40.0109 19.8291 40.45 19.9209 40.8484 20.1116V20.9142Z" fill="#333333" stroke="#333333" stroke-width="0.5" stroke-miterlimit="10"/>
<path d="M46.1681 23.3886C46.1681 25.0606 45.2927 25.93 43.8785 25.93C42.4643 25.93 41.6562 25.0606 41.6562 23.3886V19.9109H42.5317V23.2548C42.5317 24.3918 42.8684 25.1943 43.9458 25.1943C45.0233 25.1943 45.36 24.4587 45.36 23.2548V19.9109H46.2354V23.3886H46.1681Z" fill="#333333" stroke="#333333" stroke-width="0.5" stroke-miterlimit="10"/>
<path d="M47.5825 19.9775H48.9967C50.2088 19.9775 51.2863 20.1782 51.2863 21.5826C51.2812 21.9134 51.1556 22.2312 50.9327 22.4771C50.7099 22.7231 50.4049 22.8805 50.0741 22.9202C50.2087 22.9657 50.329 23.0451 50.4235 23.1506C50.5179 23.2561 50.5831 23.3841 50.6129 23.5221L51.7577 25.8629H50.8149L49.9395 23.8565C49.874 23.6692 49.7424 23.5118 49.5691 23.4134C49.3957 23.3151 49.1924 23.2824 48.9967 23.3215H48.3906V25.9298H47.5825V19.9775ZM48.3906 22.4521H49.1314C49.9395 22.4521 50.4108 22.1177 50.4108 21.5158C50.4108 20.9138 50.0068 20.6463 49.1987 20.6463H48.3906V22.4521Z" fill="#333333" stroke="#333333" stroke-width="0.5" stroke-miterlimit="10"/>
<path d="M52.7002 19.9775H55.9999V20.6463H53.5756V22.3852H55.7979V23.1209H53.5756V25.0603H55.9999V25.796H52.7002V19.9775Z" fill="#333333" stroke="#333333" stroke-width="0.5" stroke-miterlimit="10"/>
<path d="M43.8784 9.54456C43.3338 9.27828 42.7345 9.14093 42.1275 9.14329C41.3868 9.14329 40.5113 9.41081 40.5113 10.3471C40.5113 12.1528 44.6191 11.7516 44.6191 14.828C44.6191 16.9013 43.0703 17.6369 41.1847 17.6369C40.543 17.5744 39.9104 17.4398 39.2992 17.2356L39.3665 16.0318C40.0016 16.3206 40.6886 16.4798 41.3868 16.5C42.1275 16.5 43.205 16.0318 43.205 15.0286C43.205 12.8885 39.0972 13.5573 39.0972 10.5477C39.0972 8.87577 40.444 8.00635 42.1275 8.00635C42.8206 8.01021 43.5065 8.14644 44.1477 8.40762L43.8784 9.54456Z" fill="#333333" stroke="#333333" stroke-miterlimit="10"/>
<path d="M36.7407 9.54456C36.1961 9.27828 35.5968 9.14093 34.9898 9.14329C34.2491 9.14329 33.3736 9.41081 33.3736 10.3471C33.3736 12.1528 37.4814 11.7516 37.4814 14.828C37.4814 16.9013 35.9326 17.6369 34.047 17.6369C33.4053 17.5744 32.7727 17.4398 32.1615 17.2356L32.2288 16.0318C32.8639 16.3206 33.5509 16.4798 34.2491 16.5C34.9898 16.5 36.0673 16.0318 36.0673 15.0286C36.0673 12.8885 31.9595 13.5573 31.9595 10.5477C31.9595 8.87577 33.3063 8.00635 34.9898 8.00635C35.6829 8.01021 36.3688 8.14644 37.01 8.40762L36.7407 9.54456Z" fill="#333333" stroke="#333333" stroke-miterlimit="10"/>
<path d="M46.3701 8.14011L47.6496 8.00635V16.4331H51.488V17.57H46.3701V8.14011Z" fill="#333333" stroke="#333333" stroke-miterlimit="10"/>
<defs>
<linearGradient id="paint0_linear" x1="10.2063" y1="22.655" x2="20.9994" y2="2.42899" gradientUnits="userSpaceOnUse">
<stop stop-color="#636465"/>
<stop offset="0.03" stop-color="#676869"/>
<stop offset="0.27" stop-color="#828384"/>
<stop offset="0.51" stop-color="#969798"/>
<stop offset="0.75" stop-color="#A1A2A3"/>
<stop offset="1" stop-color="#A5A6A7"/>
</linearGradient>
<linearGradient id="paint1_linear" x1="20.4912" y1="16.8741" x2="6.46941" y2="7.52919" gradientUnits="userSpaceOnUse">
<stop stop-color="#C4C5C6"/>
<stop offset="0.1" stop-color="#DCDDDD"/>
<stop offset="0.21" stop-color="#F0F0F0"/>
<stop offset="0.32" stop-color="#FBFBFB"/>
<stop offset="0.7" stop-color="#DFDFE0"/>
<stop offset="0.91" stop-color="#B9BABB"/>
<stop offset="1" stop-color="#A5A6A7"/>
</linearGradient>
<linearGradient id="paint2_linear" x1="24.0515" y1="19.5019" x2="9.26052" y2="9.42237" gradientUnits="userSpaceOnUse">
<stop stop-color="#4C4C4E"/>
<stop offset="0.22" stop-color="#636365"/>
<stop offset="0.47" stop-color="#767778"/>
<stop offset="0.73" stop-color="#818283"/>
<stop offset="1" stop-color="#858687"/>
</linearGradient>
<linearGradient id="paint3_linear" x1="9.63699" y1="18.8224" x2="22.2851" y2="9.73813" gradientUnits="userSpaceOnUse">
<stop stop-color="#6A3736"/>
<stop offset="0.61" stop-color="#B24E51"/>
<stop offset="0.71" stop-color="#AC0335"/>
<stop offset="1" stop-color="#6B3F4E"/>
</linearGradient>
<radialGradient id="paint4_radial" cx="0" cy="0" r="1" gradientUnits="userSpaceOnUse" gradientTransform="translate(14.1544 12.3) scale(13.5019 13.4092)">
<stop stop-color="#B24E51"/>
<stop offset="0.46" stop-color="#AC0335"/>
<stop offset="1" stop-color="#6B3F4E"/>
</radialGradient>
<linearGradient id="paint5_linear" x1="477.757" y1="-675.452" x2="700.47" y2="-543.242" gradientUnits="userSpaceOnUse">
<stop stop-color="#6A3736"/>
<stop offset="0.61" stop-color="#B24E51"/>
<stop offset="0.71" stop-color="#AC0335"/>
<stop offset="1" stop-color="#6B3F4E"/>
</linearGradient>
</defs>
</svg>
