<svg width="251" height="63" viewBox="0 0 251 63" fill="none" xmlns="http://www.w3.org/2000/svg">
<path d="M31.09 1.6095e-06C24.9425 -0.00197634 18.9326 1.81915 13.8202 5.23306C8.70777 8.64698 4.72261 13.5003 2.36871 19.1793C0.0148041 24.8582 -0.60211 31.1077 0.595989 37.1373C1.79409 43.1669 4.75338 48.7057 9.0996 53.0533C13.4458 57.401 18.9837 60.362 25.0129 61.5621C31.0421 62.7621 37.2918 62.1472 42.9715 59.7951C48.6512 57.4431 53.5058 53.4595 56.9214 48.3482C60.337 43.2369 62.16 37.2275 62.16 31.08C62.1613 26.999 61.3586 22.9577 59.7978 19.187C58.237 15.4162 55.9486 11.9899 53.0634 9.10373C50.1781 6.21755 46.7525 3.92806 42.9823 2.36602C39.2121 0.803982 35.171 1.39812e-06 31.09 1.6095e-06ZM31.09 1.48C35.1384 1.47524 39.1444 2.30379 42.8587 3.91407C46.573 5.52436 49.9162 7.88191 52.68 10.84C52.4753 10.8801 52.2682 10.9069 52.06 10.92C51.8529 10.9398 51.6572 11.0237 51.5 11.16C51.297 11.3181 51.0831 11.4618 50.86 11.59C50.47 11.82 50.07 12.03 49.7 12.29C49.5729 12.4296 49.4683 12.5882 49.39 12.76C49.347 12.8315 49.289 12.8929 49.22 12.94L47.61 13.57C47.0533 13.7846 46.4774 13.9453 45.89 14.05C45.192 14.2067 44.519 14.4591 43.89 14.8C43.6341 14.9328 43.3703 15.0497 43.1 15.15C42.8221 15.273 42.5759 15.4576 42.38 15.69C42.1477 15.9037 41.876 16.0702 41.58 16.18C41.15 16.34 40.68 16.43 40.24 16.56C39.9619 16.6349 39.6882 16.725 39.42 16.83C39.2196 16.9195 39.0258 17.0231 38.84 17.14C38.7211 17.2226 38.5798 17.2668 38.435 17.2668C38.2902 17.2668 38.1489 17.2226 38.03 17.14C37.6103 16.9243 37.1249 16.8743 36.67 17C36.1228 17.0611 35.6051 17.28 35.18 17.63L33.7 18C33.6523 17.9986 33.6064 17.981 33.57 17.95C33.7511 17.6718 34.0127 17.4555 34.32 17.33C34.3635 17.3329 34.4065 17.3189 34.44 17.291C34.4735 17.263 34.495 17.2233 34.5 17.18C34.5049 17.1569 34.5049 17.1331 34.5 17.11C34.5 17.11 34.5 17.03 34.5 16.99C34.4622 16.8044 34.4778 16.6119 34.5451 16.4349C34.6123 16.2579 34.7285 16.1036 34.88 15.99C35.26 15.63 35.26 15.61 34.88 15.28C34.9984 15.2684 35.1097 15.2179 35.1965 15.1365C35.2833 15.0552 35.3408 14.9474 35.36 14.83C35.3896 14.7395 35.389 14.6418 35.3584 14.5517C35.3277 14.4615 35.2686 14.3837 35.19 14.33C35.1123 14.2755 35.0388 14.2154 34.97 14.15C34.9443 14.1364 34.9215 14.1177 34.903 14.0952C34.8845 14.0727 34.8707 14.0467 34.8623 14.0188C34.8539 13.9909 34.8512 13.9616 34.8542 13.9326C34.8573 13.9037 34.866 13.8756 34.88 13.85C35.07 13.35 35.03 13.29 34.46 13.11L34.58 13.06C34.6806 13.0278 34.7643 12.9572 34.813 12.8636C34.8617 12.7699 34.8714 12.6608 34.84 12.56V12.49C34.8339 12.4465 34.8192 12.4046 34.7967 12.3668C34.7742 12.329 34.7443 12.2961 34.7089 12.27C34.6735 12.2439 34.6333 12.2252 34.5905 12.2149C34.5478 12.2046 34.5034 12.2029 34.46 12.21C34.03 12.21 34.04 12.21 33.89 11.83C33.8279 11.6686 33.7325 11.5221 33.61 11.4C33.3214 11.1095 33.0104 10.842 32.68 10.6C32.4106 10.3974 32.0759 10.3013 31.74 10.33C31.2296 10.4315 30.7059 10.4484 30.19 10.38C29.9262 10.3471 29.6585 10.3923 29.42 10.51C29.0491 10.6346 28.7085 10.8356 28.42 11.1L28.31 11.18C28.1211 11.2163 27.9524 11.3212 27.8361 11.4744C27.7198 11.6276 27.6642 11.8183 27.68 12.01C27.531 12.0109 27.3841 12.0451 27.25 12.11C27.0783 12.2036 26.9486 12.3591 26.8873 12.5448C26.8261 12.7305 26.8377 12.9326 26.92 13.11C26.7873 13.1307 26.6659 13.1969 26.5765 13.2972C26.4871 13.3975 26.4354 13.5258 26.43 13.66C26.4 13.7888 26.4045 13.9232 26.4431 14.0496C26.4818 14.176 26.5531 14.29 26.65 14.38C26.4584 14.5956 26.3487 14.8717 26.34 15.16C26.3324 15.2989 26.3702 15.4365 26.4478 15.552C26.5254 15.6675 26.6385 15.7546 26.77 15.8C26.71 16.01 26.57 16.21 26.77 16.38C26.7895 16.4281 26.7895 16.4819 26.77 16.53C26.7 16.88 26.77 16.95 27.07 16.99L27.26 17.06L27.18 17.42C26.54 17.3 25.91 17.14 25.27 17.07C24.8381 17.0201 24.4019 17.0201 23.97 17.07C23.8133 17.1224 23.6478 17.1431 23.483 17.1311C23.3182 17.1191 23.1575 17.0745 23.01 17C22.2516 16.5673 21.442 16.2313 20.6 16C20.33 15.92 20.06 15.84 19.79 15.74C19.6808 15.6983 19.5818 15.6335 19.5 15.55C18.9195 15.0213 18.2397 14.6134 17.5 14.35L16.77 14.03C16.2794 13.7863 15.7378 13.6629 15.19 13.67C14.6678 13.6767 14.1544 13.5344 13.71 13.26C13.35 13.05 12.95 12.93 12.58 12.76C12.4416 12.6931 12.3189 12.5977 12.22 12.48C12.0559 12.2476 11.9089 12.0036 11.78 11.75C11.723 11.6404 11.6422 11.545 11.5436 11.4706C11.445 11.3962 11.331 11.3447 11.21 11.32C11.1347 11.302 11.0656 11.264 11.01 11.21L10.42 10.61C10.366 10.5435 10.2934 10.4946 10.2114 10.4697C10.1295 10.4448 10.0419 10.4449 9.96001 10.47C9.87788 10.4947 9.79441 10.5147 9.71001 10.53C12.4666 7.66315 15.7747 5.38353 19.4352 3.82827C23.0956 2.273 27.0329 1.47423 31.01 1.48H31.09ZM26.01 53.73L26.32 54.42C26.5126 54.8736 26.6567 55.3462 26.75 55.83C26.8785 56.2776 27.0389 56.7154 27.23 57.14C27.36 57.44 27.59 57.7 27.74 57.99C27.8125 58.1547 27.8564 58.3306 27.87 58.51C27.9381 59.0371 27.8621 59.5727 27.65 60.06C27.6306 60.1725 27.6306 60.2875 27.65 60.4C27.6547 60.4197 27.6547 60.4403 27.65 60.46C23.9995 60.0479 20.4584 58.9557 17.21 57.24C17.2939 57.2228 17.372 57.1844 17.4368 57.1283C17.5016 57.0723 17.5509 57.0006 17.58 56.92C17.7382 56.5687 17.8524 56.1993 17.92 55.82C17.9978 55.2114 18.2436 54.6366 18.63 54.16C19.09 53.62 19.56 53.08 19.97 52.49C20.38 51.9 20.65 51.36 20.97 50.79L21.26 50.28C21.5868 49.6657 21.8386 49.0144 22.01 48.34C22.1199 47.9431 22.2604 47.5553 22.43 47.18C22.6945 46.6993 23.0763 46.2933 23.54 46C24.0272 45.7197 24.3859 45.2605 24.54 44.72C24.5591 44.6618 24.598 44.6123 24.65 44.58C25.3413 44.0406 25.8224 43.2766 26.01 42.42C26.01 42.34 26.06 42.27 26.08 42.19V42.13C26.28 43.24 26.48 44.33 26.68 45.42V45.57C26.4821 46.4269 26.3682 47.301 26.34 48.18C26.3115 48.5505 26.2273 48.9146 26.09 49.26C25.9478 49.7249 25.8605 50.2048 25.83 50.69C25.6741 51.7046 25.7355 52.7408 26.01 53.73ZM29.01 48.57C29.1098 48.3676 29.1804 48.1521 29.22 47.93C29.28 47.69 29.35 47.46 29.41 47.22C29.47 46.98 29.57 46.58 29.64 46.22C29.6343 46.1735 29.6343 46.1265 29.64 46.08C29.9164 45.4514 29.9898 44.7523 29.85 44.08C29.85 43.72 29.78 43.35 29.74 42.99C29.7346 42.9435 29.7346 42.8965 29.74 42.85C29.86 42.49 29.99 42.13 30.12 41.75C30.19 42.67 30.29 43.57 30.32 44.47C30.3132 44.9452 30.2765 45.4194 30.21 45.89C30.2046 45.9532 30.2046 46.0168 30.21 46.08C30.2905 47.2485 30.1893 48.4225 29.91 49.56C29.7279 50.5489 29.6708 51.5568 29.74 52.56C29.7964 53.2039 29.9908 53.828 30.31 54.39C30.3353 54.4782 30.3353 54.5718 30.31 54.66C30.26 55.7278 30.3918 56.7964 30.7 57.82C30.83 58.33 30.97 58.82 31.1 59.36C31.125 59.4618 31.125 59.5682 31.1 59.67C31.04 59.94 30.95 60.21 30.87 60.52C30.7672 60.4903 30.6717 60.4392 30.59 60.37C30.3422 60.1124 30.1813 59.7837 30.13 59.43C30.1232 59.2289 30.0861 59.03 30.02 58.84C29.9527 58.7127 29.8686 58.595 29.77 58.49C29.7075 58.4129 29.6538 58.3291 29.61 58.24C29.3174 57.3468 29.182 56.4095 29.21 55.47C29.2322 55.151 29.1879 54.831 29.08 54.53C28.9916 54.3655 28.9453 54.1817 28.9453 53.995C28.9453 53.8083 28.9916 53.6245 29.08 53.46C29.0879 53.4238 29.0879 53.3862 29.08 53.35C29.1969 52.5687 29.1732 51.7729 29.01 51C28.9997 50.8769 28.9997 50.7531 29.01 50.63C29.01 50.48 29.01 50.34 28.94 50.19C28.8504 49.948 28.8504 49.682 28.94 49.44C28.9653 49.3723 28.9653 49.2977 28.94 49.23C28.897 49.1226 28.8809 49.0063 28.8931 48.8913C28.9053 48.7763 28.9455 48.666 29.01 48.57ZM35.77 60.29C35.6061 60.2371 35.4458 60.1736 35.29 60.1C34.796 59.9393 34.3541 59.6492 34.01 59.26C33.7458 58.9383 33.5547 58.5629 33.45 58.16C33.2306 57.4034 33.1295 56.6175 33.15 55.83C33.15 54.95 33.15 54.07 33.15 53.2C33.15 52.59 33.04 51.99 33.03 51.39C32.9691 50.4904 33.0812 49.5875 33.36 48.73C33.4384 48.48 33.5423 48.2387 33.67 48.01C33.7927 47.7696 33.8381 47.4972 33.8 47.23C33.6877 46.6357 33.7117 46.0237 33.87 45.44C34.08 44.87 34.28 44.3 34.48 43.73C34.48 43.59 34.55 43.43 34.6 43.25C34.9312 43.4613 35.1705 43.7899 35.27 44.17C35.4248 44.8386 35.674 45.4817 36.01 46.08C36.452 46.951 36.7685 47.8803 36.95 48.84C37.11 49.37 37.25 49.91 37.46 50.42C37.6073 50.7359 37.7992 51.0289 38.03 51.29C38.23 51.55 38.49 51.76 38.71 52C38.7692 52.065 38.8105 52.1443 38.83 52.23C38.92 52.45 38.99 52.67 39.07 52.9C39.2847 53.4163 39.5895 53.8903 39.97 54.3C40.5818 54.9536 41.1216 55.671 41.58 56.44C41.6992 56.764 41.7863 57.099 41.84 57.44C41.84 57.6 41.9 57.76 41.93 57.93C41.9518 58.1336 42.0356 58.3256 42.17 58.48C40.1173 59.3187 37.9774 59.9258 35.79 60.29H35.77ZM1.46001 31.08C1.44936 24.1726 3.86291 17.4805 8.28001 12.17C8.19918 12.257 8.15425 12.3713 8.15425 12.49C8.15425 12.6087 8.19918 12.723 8.28001 12.81C8.31341 12.8455 8.35445 12.8728 8.40001 12.89C8.78001 13.15 9.20001 13.36 9.60001 13.6C9.79156 13.6883 9.96992 13.8027 10.13 13.94C10.3019 14.1379 10.5138 14.2972 10.7516 14.4075C10.9894 14.5178 11.2479 14.5766 11.51 14.58C11.5682 14.5902 11.623 14.6142 11.67 14.65C12.252 15.1107 12.9392 15.4199 13.67 15.55C13.9571 15.6455 14.2199 15.8025 14.44 16.01C15.205 16.6598 16.1132 17.1191 17.09 17.35C17.199 17.3796 17.301 17.4306 17.39 17.5C17.8165 17.767 18.2992 17.9313 18.8 17.98C18.9814 18.0066 19.1592 18.0536 19.33 18.12C19.97 18.36 20.59 18.61 21.22 18.87C21.387 18.9462 21.5393 19.0512 21.67 19.18C21.1504 19.1213 20.6243 19.1793 20.13 19.35C19.6478 19.5142 19.1322 19.5555 18.63 19.47C18.4915 19.4499 18.3567 19.4095 18.23 19.35C17.7505 19.0892 17.2027 18.981 16.66 19.04H14.85C14.58 19.04 14.3 19.04 14.03 19.04C13.357 19.0937 12.6804 19.0803 12.01 19C11.7118 18.9826 11.4147 18.9492 11.12 18.9C10.78 18.82 10.47 18.63 10.12 18.52C9.709 18.3386 9.27995 18.2011 8.84001 18.11C8.3446 18.06 7.84542 18.06 7.35001 18.11C7.27298 18.1404 7.2092 18.1971 7.17001 18.27C7.24376 18.4097 7.34199 18.535 7.46001 18.64C7.55899 18.6602 7.66103 18.6602 7.76001 18.64L8.15001 18.72C8.10227 18.7967 8.02812 18.8533 7.94154 18.8791C7.85496 18.9048 7.76194 18.8981 7.68001 18.86C7.23314 18.7873 6.77482 18.8684 6.38001 19.09C6.31953 19.1592 6.2862 19.2481 6.2862 19.34C6.2862 19.4319 6.31953 19.5208 6.38001 19.59L6.49001 19.68C6.42056 19.7918 6.37937 19.9188 6.37001 20.05C6.4921 20.1821 6.64756 20.2788 6.82001 20.33C6.99001 20.33 7.18001 20.33 7.37001 20.33C7.32595 20.3455 7.28524 20.3693 7.25001 20.4C7.16154 20.4735 7.09568 20.5706 7.06001 20.68C7.06999 20.7526 7.10804 20.8184 7.166 20.8633C7.22396 20.9082 7.29721 20.9285 7.37001 20.92H8.20001C8.5438 20.9016 8.88693 20.9668 9.20001 21.11C9.47253 21.2468 9.77021 21.3263 10.0746 21.3435C10.3791 21.3607 10.6838 21.3152 10.97 21.21C11.234 21.1561 11.5061 21.1561 11.77 21.21C12.1452 21.218 12.5194 21.2514 12.89 21.31C13.1674 21.3714 13.4412 21.4482 13.71 21.54C14.6862 21.8067 15.7025 21.8947 16.71 21.8C16.8757 21.7749 17.0443 21.7749 17.21 21.8C17.5992 21.9008 18.0108 21.8691 18.38 21.71C18.6975 21.584 19.0439 21.5494 19.38 21.61C20.31 21.72 21.25 21.82 22.17 21.99C22.7143 22.0881 23.2694 22.1117 23.82 22.06C24.2597 22.0313 24.6944 22.1667 25.04 22.44C25.1006 22.4918 25.1485 22.5568 25.18 22.63C25.4 23.06 25.62 23.49 25.81 23.93C25.9155 24.1849 25.9958 24.4495 26.05 24.72C26.24 25.43 26.39 26.15 26.59 26.86C26.69 27.23 26.86 27.58 26.99 27.95C27.0106 28.0658 27.0106 28.1842 26.99 28.3C26.88 28.83 26.75 29.37 26.67 29.91C26.6339 30.2421 26.6172 30.576 26.62 30.91C26.6134 30.9845 26.5894 31.0564 26.55 31.12C26.1897 31.6429 26.0009 32.265 26.01 32.9C26.0203 32.9663 26.0203 33.0337 26.01 33.1C25.8893 33.4267 25.7891 33.7607 25.71 34.1C25.6799 34.2814 25.6003 34.4509 25.48 34.59C25.1207 35.0929 24.7869 35.6135 24.48 36.15C24.2177 36.6601 24.0099 37.1964 23.86 37.75C23.76 38.1433 23.65 38.5333 23.53 38.92C23.4 39.39 23.22 39.85 23.11 40.33C23 40.81 22.89 41.51 22.76 42.1L22.57 42.53L21.57 43.89C21.21 44.37 20.83 44.89 20.47 45.33C20.11 45.77 19.73 46.33 19.39 46.88C19.05 47.43 18.89 47.67 18.65 48.08C18.3983 48.5351 18.1842 49.01 18.01 49.5C17.76 50.26 17.56 51.04 17.3 51.79C17.1314 52.2903 16.9206 52.7753 16.67 53.24C16.4569 53.5722 16.2089 53.8807 15.93 54.16C15.8446 54.227 15.7386 54.2623 15.63 54.26C14.521 54.2996 13.4164 54.1019 12.39 53.68C12.2319 53.6118 12.0679 53.5582 11.9 53.52H11.81C8.56584 50.7496 5.96066 47.309 4.17391 43.4351C2.38715 39.5612 1.46126 35.3461 1.46001 31.08ZM48.32 55.08C48.2793 55.0488 48.2321 55.0272 48.1819 55.0168C48.1317 55.0064 48.0797 55.0075 48.03 55.02C47.8307 55.0587 47.6362 55.1191 47.45 55.2C46.4058 55.598 45.2975 55.8014 44.18 55.8C44.0758 55.7892 43.9749 55.757 43.8836 55.7054C43.7924 55.6538 43.7129 55.5838 43.65 55.5C43.2388 55.0797 42.9307 54.5696 42.75 54.01C42.44 53.2 42.15 52.37 41.9 51.54C41.6175 50.5406 41.2426 49.5698 40.78 48.64C40.57 48.28 40.34 47.92 40.09 47.57C39.8813 47.2477 39.691 46.9138 39.52 46.57C39.18 45.86 39.2 45.06 38.86 44.36C38.71 44.06 38.54 43.76 38.42 43.45C38.1775 42.8443 38.0815 42.1898 38.14 41.54C38.1302 41.1676 38.0592 40.7994 37.93 40.45C37.7385 39.9787 37.5814 39.4941 37.46 39C37.2813 38.2618 37.0091 37.5493 36.65 36.88C36.55 36.6 36.28 36.39 36.16 36.11C35.8448 35.5263 35.6285 34.8944 35.52 34.24C35.49 33.4801 35.2513 32.7431 34.83 32.11C34.6878 31.6058 34.7124 31.0691 34.9 30.58C34.9815 30.4259 35.024 30.2543 35.024 30.08C35.024 29.9057 34.9815 29.7341 34.9 29.58C34.7797 29.4441 34.7092 29.2713 34.7 29.09C34.7 28.89 34.64 28.69 34.63 28.48C34.5971 28.1124 34.6519 27.7422 34.79 27.4C35.03 26.8 35.13 26.14 35.33 25.52C35.5415 24.506 35.9092 23.5311 36.42 22.63C36.5187 22.4554 36.6653 22.3127 36.8425 22.2187C37.0197 22.1248 37.2201 22.0836 37.42 22.1L38.67 22.22C39.0066 22.2658 39.3492 22.2315 39.67 22.12C39.9925 22.0129 40.3302 21.9589 40.67 21.96C41.3596 21.925 42.0505 21.925 42.74 21.96C43.0144 21.9788 43.2825 22.0501 43.53 22.17C44.2181 22.4323 44.9632 22.5082 45.69 22.39C46.3045 22.2994 46.9124 22.1691 47.51 22C48.4135 21.7868 49.3442 21.7126 50.27 21.78C50.62 21.78 50.97 21.78 51.32 21.78C52.09 21.78 52.86 21.7 53.62 21.64C53.9004 21.6124 54.176 21.5485 54.44 21.45C54.4938 21.4159 54.5395 21.3705 54.5741 21.317C54.6086 21.2635 54.6311 21.2031 54.64 21.14C54.5887 21.0594 54.5109 20.9993 54.42 20.97C54.17 20.97 53.91 20.92 53.65 20.86C53.8445 20.8471 54.0381 20.8238 54.23 20.79C54.4582 20.7393 54.6797 20.6621 54.89 20.56C54.9924 20.4683 55.0683 20.3509 55.11 20.22C55.2103 20.2006 55.299 20.1425 55.357 20.0584C55.415 19.9742 55.4376 19.8707 55.42 19.77C55.42 19.77 55.42 19.77 55.42 19.71C55.42 19.38 55.05 19.65 54.91 19.48C55.06 19.15 55.06 19.11 54.72 18.95C54.2356 18.766 53.711 18.7143 53.2 18.8C52.8079 18.8399 52.4141 18.86 52.02 18.86C51.6586 18.8516 51.3054 18.9682 51.02 19.19C50.6729 19.4706 50.236 19.6162 49.79 19.6L46.01 19.33C45.0015 19.2645 43.989 19.359 43.01 19.61C42.938 19.63 42.862 19.63 42.79 19.61C42.1158 19.3887 41.4096 19.2806 40.7 19.29C40.96 19.13 41.22 18.96 41.49 18.82C41.76 18.68 42.31 18.43 42.72 18.25C42.7878 18.2119 42.8627 18.1881 42.94 18.18C43.37 18.18 43.79 18.09 44.21 18.01C44.5305 17.9067 44.8389 17.7692 45.13 17.6C45.55 17.4 45.98 17.19 46.39 16.96C46.96 16.64 47.52 16.29 48.09 15.96C48.66 15.63 49.2 15.41 49.76 15.13C49.8117 15.1134 49.8594 15.0861 49.9 15.05C49.9991 14.9399 50.1213 14.8533 50.2579 14.7962C50.3945 14.7391 50.5421 14.7131 50.69 14.72C51.0845 14.7181 51.4621 14.5599 51.74 14.28C52.0393 14.0567 52.3572 13.8593 52.69 13.69C52.9735 13.4871 53.2441 13.2667 53.5 13.03C53.5556 12.9722 53.5867 12.8952 53.5867 12.815C53.5867 12.7348 53.5556 12.6578 53.5 12.6C53.4115 12.5094 53.3105 12.432 53.2 12.37L53.72 12.14C56.3265 15.2639 58.2606 18.8919 59.4013 22.7972C60.542 26.7025 60.8648 30.8012 60.3496 34.8369C59.8343 38.8726 58.492 42.7587 56.4067 46.2521C54.3214 49.7455 51.5378 52.7712 48.23 55.14L48.32 55.08Z" fill="#FF9749"/>
<path d="M131.69 21.73C131.66 24.1756 131.249 26.6015 130.47 28.92C129.619 31.517 128.457 34.0017 127.01 36.32C125.449 38.8244 123.6 41.1368 121.5 43.21C116.999 47.7136 111.444 51.0206 105.34 52.83C102.037 53.8119 98.6062 54.3005 95.16 54.28C92.8527 54.3396 90.5524 54.0013 88.36 53.28C86.7608 52.7278 85.2307 51.9929 83.8 51.09C82.4906 50.2103 81.3465 49.1068 80.42 47.83C78.92 48.9 77.5 49.83 76.16 50.67L74.42 51.74C73.8832 52.0725 73.329 52.3763 72.76 52.65C72.23 52.91 71.76 53.13 71.31 53.31C70.972 53.4609 70.6095 53.549 70.24 53.57C69.9426 53.5744 69.6517 53.4832 69.41 53.31C69.2973 53.2231 69.2068 53.1107 69.146 52.9821C69.0851 52.8535 69.0557 52.7122 69.06 52.57C69.302 51.7287 69.7253 50.9505 70.3 50.29C71.1266 49.1167 72.2033 47.6934 73.53 46.02C74.85 44.35 76.37 42.5 78.09 40.49C79.81 38.48 81.55 36.49 83.33 34.39V33.68C83.2995 31.007 83.7921 28.3539 84.78 25.87C85.7223 23.493 87.0278 21.2766 88.65 19.3C90.28 17.3145 92.1743 15.5616 94.28 14.09C96.3673 12.6121 98.5946 11.3427 100.93 10.3C103.182 9.29631 105.527 8.51267 107.93 7.96002C110.093 7.44916 112.307 7.18084 114.53 7.16002C117.158 7.1087 119.776 7.49048 122.28 8.29002C124.261 8.92935 126.079 9.99037 127.61 11.4C128.966 12.6831 130.015 14.2554 130.68 16C131.364 17.8322 131.706 19.7743 131.69 21.73ZM129.08 23.44C129.104 21.5496 128.765 19.6722 128.08 17.91C127.38 16.1887 126.284 14.6571 124.88 13.44C123.247 12.0773 121.356 11.057 119.32 10.44C116.663 9.63461 113.895 9.25656 111.12 9.32002C107.822 9.30334 104.554 9.93534 101.5 11.18C98.5392 12.3611 95.7977 14.0309 93.39 16.12C91.1009 18.0893 89.1926 20.4619 87.76 23.12C86.3989 25.6293 85.6776 28.4355 85.66 31.29V31.76C86.89 30.38 88.06 29.05 89.19 27.76L92.32 24.21L94.9 21.34L96.67 19.39C96.8924 19.1769 97.1297 18.9797 97.38 18.8C97.6864 18.5637 98.0631 18.437 98.45 18.44C98.88 18.44 99.21 18.52 99.45 18.56C99.5384 18.5652 99.6213 18.6047 99.6811 18.67C99.7408 18.7354 99.7727 18.8215 99.77 18.91C99.7682 19.0556 99.7362 19.1993 99.6759 19.3318C99.6157 19.4644 99.5285 19.583 99.42 19.68C97.6 21.5 95.4966 23.6634 93.11 26.17C90.7233 28.6767 88.29 31.2867 85.81 34C86.0676 36.1859 86.7108 38.3088 87.71 40.27C88.4867 41.8378 89.4984 43.2778 90.71 44.54C90.8334 44.6496 90.9235 44.7917 90.97 44.95C90.9798 45.0498 90.9798 45.1503 90.97 45.25C90.9192 45.4144 90.8354 45.5666 90.7236 45.6973C90.6118 45.828 90.4745 45.9344 90.32 46.01C90.0333 46.2332 89.6831 46.3593 89.32 46.37C89.065 46.3609 88.8182 46.2775 88.61 46.13C85.9052 43.5471 84.1001 40.1648 83.46 36.48C81.8133 38.3 80.2267 40.0667 78.7 41.78C77.1733 43.4934 75.84 45.0534 74.7 46.46C73.6267 47.8467 72.73 49.0267 72.01 50C71.5365 50.5567 71.1947 51.213 71.01 51.92C71.0096 51.9973 71.0381 52.0719 71.0899 52.1293C71.1417 52.1866 71.2131 52.2225 71.29 52.23H71.37C71.8404 52.1644 72.2928 52.0046 72.7 51.76C73.31 51.44 74.01 51.06 74.8 50.6C75.59 50.14 76.41 49.65 77.26 49.09C78.11 48.53 78.9 48 79.63 47.5C80.36 47 80.97 46.59 81.46 46.23C81.7573 46.0278 82.0443 45.8109 82.32 45.58C82.4529 45.4172 82.642 45.3102 82.85 45.28C82.9344 45.2843 83.0151 45.3158 83.0801 45.3699C83.145 45.424 83.1906 45.4978 83.21 45.58C83.9667 46.8914 84.9602 48.0511 86.14 49C87.2068 49.8595 88.3925 50.5601 89.66 51.08C90.8483 51.562 92.0907 51.8978 93.36 52.08C94.5057 52.2501 95.6618 52.3403 96.82 52.35C99.8262 52.3643 102.818 51.9364 105.7 51.08C111.07 49.4696 115.961 46.5605 119.94 42.61C121.793 40.7715 123.439 38.7361 124.85 36.54C126.175 34.5023 127.237 32.3048 128.01 30C128.712 27.9004 129.079 25.7037 129.1 23.49L129.08 23.44Z" fill="#444444" stroke="#434343" stroke-miterlimit="10"/>
<path d="M142.22 47.53C142.226 47.6007 142.212 47.6716 142.18 47.735C142.148 47.7985 142.1 47.852 142.04 47.89L139.38 49L137.87 49.63C137.26 49.88 136.6 50.13 135.87 50.37C135.14 50.61 134.47 50.81 133.8 50.99C133.22 51.1512 132.622 51.2385 132.02 51.25C131.19 51.25 130.78 51 130.78 50.48C130.78 50.2701 130.811 50.0614 130.87 49.86C130.941 49.5703 131.07 49.298 131.25 49.06C130.839 49.3606 130.404 49.6281 129.95 49.86C129.373 50.1709 128.779 50.4481 128.17 50.69C127.54 50.95 126.9 51.17 126.25 51.37C125.686 51.5602 125.095 51.6614 124.5 51.67C123.923 51.7203 123.348 51.5604 122.88 51.22C122.719 51.0877 122.59 50.9212 122.502 50.7326C122.414 50.544 122.369 50.3382 122.37 50.13C122.478 49.1047 122.893 48.1357 123.56 47.35C124.415 46.1648 125.424 45.0987 126.56 44.18C127.788 43.1693 129.13 42.3066 130.56 41.61C131.859 40.9338 133.296 40.5676 134.76 40.54C135.259 40.4929 135.76 40.6163 136.18 40.89C136.32 41.0043 136.43 41.1499 136.503 41.3149C136.576 41.4799 136.609 41.6598 136.6 41.84C136.591 42.172 136.509 42.498 136.36 42.7951C136.212 43.0922 136 43.3533 135.74 43.56C135.235 44.021 134.689 44.436 134.11 44.8C134.005 44.8679 133.885 44.9091 133.76 44.92C133.638 44.9013 133.524 44.8494 133.43 44.77C133.366 44.7295 133.313 44.6735 133.276 44.607C133.239 44.5406 133.22 44.4659 133.22 44.39C133.29 44.053 133.457 43.7437 133.7 43.5C133.903 43.2871 134.09 43.0598 134.26 42.82C134.437 42.6091 134.552 42.3527 134.59 42.08C134.59 42.0028 134.57 41.9268 134.534 41.8587C134.497 41.7907 134.444 41.7328 134.38 41.69C134.11 41.5694 133.814 41.5212 133.52 41.55C132.645 41.6053 131.793 41.8583 131.03 42.29C130.019 42.8014 129.066 43.4218 128.19 44.14C127.333 44.8239 126.549 45.5947 125.85 46.44C125.29 46.9994 124.937 47.7331 124.85 48.52C124.838 48.7192 124.882 48.9179 124.975 49.0942C125.069 49.2705 125.209 49.4178 125.38 49.52C125.736 49.7336 126.145 49.8443 126.56 49.84C127.066 49.8296 127.567 49.7315 128.04 49.55C128.6 49.35 129.13 49.13 129.64 48.9C130.118 48.6813 130.582 48.4342 131.03 48.16C131.315 47.9967 131.583 47.8058 131.83 47.59L132.19 47.24C132.248 47.1707 132.32 47.1138 132.401 47.0726C132.482 47.0313 132.57 47.0067 132.66 47C132.786 47.0187 132.908 47.0593 133.02 47.12C133.097 47.1583 133.16 47.219 133.201 47.294C133.242 47.3691 133.259 47.4549 133.25 47.54C133.078 47.7942 132.94 48.0699 132.84 48.36C132.761 48.5675 132.72 48.7878 132.72 49.01C132.72 49.53 133.08 49.78 133.79 49.78C134.28 49.7781 134.768 49.7109 135.24 49.58C135.773 49.44 136.303 49.28 136.83 49.1C137.37 48.93 137.83 48.75 138.31 48.57C138.79 48.39 139.11 48.27 139.31 48.19L141.09 47.48C141.318 47.3597 141.555 47.2593 141.8 47.18C141.844 47.1831 141.887 47.1989 141.922 47.2255C141.958 47.2521 141.985 47.2884 142 47.33C142.095 47.3684 142.173 47.4393 142.22 47.53Z" fill="#444444" stroke="#434343" stroke-miterlimit="10"/>
<path d="M222.43 6.00002C222.454 6.12654 222.447 6.25694 222.411 6.38042C222.374 6.5039 222.309 6.61689 222.22 6.71002C221.985 6.82128 221.736 6.90194 221.48 6.95002C218.564 6.96317 215.689 7.64751 213.08 8.95002C210.094 10.4236 207.292 12.2427 204.73 14.37C201.831 16.7396 199.091 19.2986 196.53 22.03C193.83 24.89 191.163 27.81 188.53 30.79C185.897 33.77 183.34 36.69 180.86 39.55C178.36 42.41 175.913 44.9667 173.52 47.22C171.408 49.2596 169.089 51.0728 166.6 52.63C164.686 53.8762 162.464 54.5684 160.18 54.63C159.237 54.6376 158.303 54.4326 157.45 54.03C156.621 53.6699 155.943 53.0339 155.53 52.23C155.147 51.4249 154.955 50.5417 154.97 49.65C155.03 47.8766 155.452 46.1342 156.21 44.53C157.122 42.4623 158.171 40.4578 159.35 38.53C160.61 36.41 161.97 34.2567 163.43 32.07C164.89 29.8834 166.253 27.7734 167.52 25.74C168.682 23.8836 169.728 21.9566 170.65 19.97C171.387 18.5136 171.812 16.9198 171.9 15.29C171.901 14.3858 171.61 13.5055 171.07 12.78C170.832 12.4184 170.506 12.1226 170.123 11.9199C169.741 11.7171 169.313 11.614 168.88 11.62C168.329 11.6084 167.782 11.7212 167.28 11.95C166.976 12.0806 166.679 12.2274 166.39 12.39C166.202 12.5333 165.976 12.6169 165.74 12.63C165.38 12.63 165.21 12.51 165.21 12.27C165.253 11.9904 165.399 11.737 165.62 11.56C165.805 11.3895 166.002 11.2325 166.21 11.09C166.552 10.8584 166.909 10.6512 167.28 10.47C167.745 10.2396 168.231 10.0521 168.73 9.91002C169.279 9.75056 169.848 9.66975 170.42 9.67002C171.615 9.64908 172.782 10.0333 173.73 10.76C174.182 11.0874 174.547 11.5197 174.794 12.0197C175.042 12.5197 175.164 13.0724 175.15 13.63C175.062 15.1379 174.639 16.6071 173.91 17.93C173.08 19.6 172.04 21.44 170.8 23.43C169.56 25.42 168.22 27.53 166.8 29.74C165.38 31.95 164.01 34.15 162.8 36.34C161.618 38.3961 160.579 40.5311 159.69 42.73C158.92 44.538 158.499 46.4755 158.45 48.44C158.406 49.004 158.479 49.5709 158.663 50.1058C158.847 50.6407 159.139 51.1322 159.52 51.55C159.92 51.9055 160.387 52.1772 160.894 52.349C161.4 52.5207 161.936 52.5891 162.47 52.55C164.495 52.4616 166.447 51.7646 168.07 50.55C170.321 48.9652 172.402 47.1522 174.28 45.14C176.433 42.8934 178.693 40.3367 181.06 37.47L188.34 28.71C190.833 25.73 193.41 22.81 196.07 19.95C198.598 17.2138 201.307 14.6513 204.18 12.28C206.763 10.1364 209.593 8.31001 212.61 6.84002C215.316 5.49957 218.291 4.79173 221.31 4.77002C221.444 4.75043 221.58 4.75815 221.711 4.79274C221.842 4.82732 221.964 4.88804 222.07 4.97123C222.177 5.05441 222.266 5.15834 222.331 5.27673C222.396 5.39512 222.437 5.52551 222.45 5.66002C222.457 5.77375 222.45 5.88791 222.43 6.00002Z" fill="#444444" stroke="#434343" stroke-miterlimit="10"/>
<path d="M197.01 47.53C197.015 47.5995 197.001 47.6691 196.972 47.732C196.942 47.795 196.897 47.8494 196.84 47.89L194.19 49L192.68 49.63C192.07 49.88 191.41 50.13 190.68 50.37C189.95 50.61 189.28 50.81 188.61 50.99C188.03 51.1512 187.432 51.2385 186.83 51.25C186.403 51.2756 185.979 51.1634 185.62 50.93C185.34 50.7295 185.099 50.4786 184.91 50.19C184.74 49.938 184.618 49.6566 184.55 49.36C184.5 49.1466 184.47 48.929 184.46 48.71C184.458 48.2304 184.56 47.7562 184.76 47.32C184.96 46.9 185.12 46.6 185.23 46.4C184.6 46.8 184 47.14 183.43 47.4C183.038 47.611 182.634 47.798 182.22 47.96C181.94 48.08 181.63 48.19 181.3 48.31C180.97 48.43 180.62 48.57 180.3 48.73C180.255 48.7245 180.213 48.7079 180.176 48.6817C180.139 48.6555 180.11 48.6206 180.09 48.58C180.038 48.4995 180.01 48.4058 180.01 48.31C180 48.2563 180.005 48.2008 180.025 48.1497C180.044 48.0986 180.077 48.0538 180.12 48.02L181.04 47.66C181.34 47.54 181.6 47.43 181.84 47.31C182.651 46.924 183.435 46.4865 184.19 46C184.82 45.6453 185.407 45.2192 185.94 44.73C186.248 44.4488 186.496 44.1088 186.67 43.73C186.758 43.4756 186.872 43.231 187.01 43C187.058 42.9183 187.127 42.8504 187.209 42.8031C187.292 42.7558 187.385 42.7306 187.48 42.73C187.742 42.7285 187.998 42.8013 188.22 42.94C188.331 43.0132 188.42 43.115 188.478 43.2347C188.536 43.3544 188.561 43.4875 188.55 43.62C188.531 43.7895 188.469 43.9513 188.37 44.09L187.96 44.71C187.749 45.0309 187.559 45.3649 187.39 45.71C187.208 46.1032 187.051 46.5073 186.92 46.92C186.79 47.3243 186.719 47.7454 186.71 48.17C186.71 48.3795 186.752 48.5869 186.835 48.7795C186.917 48.9721 187.038 49.1458 187.19 49.29C187.393 49.4631 187.628 49.5938 187.883 49.6745C188.137 49.7552 188.404 49.7843 188.67 49.76C189.16 49.7587 189.648 49.6915 190.12 49.56C190.65 49.42 191.18 49.26 191.72 49.08C192.26 48.9 192.72 48.73 193.2 48.55C193.68 48.37 193.99 48.25 194.2 48.17L195.98 47.46C196.208 47.3397 196.445 47.2393 196.69 47.16C196.734 47.1631 196.777 47.1789 196.812 47.2055C196.848 47.2321 196.875 47.2684 196.89 47.31C196.951 47.3698 196.993 47.4464 197.01 47.53ZM193.28 35.87C193.27 36.1896 193.192 36.5034 193.05 36.79C192.894 37.1457 192.696 37.4814 192.46 37.79C192.228 38.072 191.959 38.321 191.66 38.53C191.391 38.7196 191.069 38.821 190.74 38.82C190.625 38.8447 190.506 38.8461 190.391 38.8241C190.275 38.8021 190.165 38.7571 190.067 38.6918C189.969 38.6266 189.885 38.5423 189.821 38.4441C189.756 38.3459 189.711 38.2357 189.69 38.12C189.68 38.0403 189.68 37.9597 189.69 37.88C189.703 37.5597 189.785 37.246 189.93 36.96C190.09 36.6218 190.288 36.303 190.52 36.01C190.752 35.7178 191.033 35.4675 191.35 35.27C191.612 35.0895 191.922 34.9887 192.24 34.98C192.355 34.9567 192.473 34.9564 192.588 34.979C192.703 35.0016 192.813 35.0467 192.911 35.1118C193.008 35.1768 193.092 35.2605 193.157 35.358C193.222 35.4555 193.267 35.565 193.29 35.68C193.303 35.7425 193.306 35.8065 193.3 35.87H193.28Z" fill="#444444" stroke="#434343" stroke-miterlimit="10"/>
<path d="M220.77 47.53C220.776 47.6007 220.762 47.6716 220.73 47.735C220.698 47.7984 220.65 47.852 220.59 47.89L217.93 49L216.42 49.63C215.81 49.88 215.15 50.13 214.42 50.37C213.69 50.61 213.01 50.81 212.34 50.99C211.764 51.152 211.169 51.2394 210.57 51.25C210.297 51.2867 210.019 51.2666 209.754 51.1909C209.489 51.1151 209.243 50.9855 209.03 50.81C208.752 50.5159 208.602 50.1244 208.61 49.72C208.619 49.2413 208.711 48.7678 208.88 48.32C209.05 47.84 209.25 47.32 209.47 46.9C209.69 46.48 209.89 46.06 210.07 45.72C210.2 45.5124 210.289 45.2814 210.33 45.04C210.33 45.04 210.33 44.98 210.21 44.98C209.831 45.0699 209.471 45.2293 209.15 45.45C208.59 45.77 207.96 46.15 207.25 46.61C206.54 47.07 205.77 47.56 204.94 48.12C204.11 48.68 203.33 49.12 202.58 49.63C201.83 50.14 201.15 50.47 200.53 50.78C200.126 51.0304 199.672 51.1907 199.2 51.25C198.972 51.2558 198.75 51.1734 198.58 51.02C198.496 50.9459 198.429 50.8552 198.383 50.7536C198.336 50.652 198.311 50.5417 198.31 50.43C198.342 50.0308 198.488 49.6491 198.73 49.33C199.021 48.8976 199.338 48.4835 199.68 48.09C200.03 47.67 200.4 47.27 200.77 46.87C201.14 46.47 201.43 46.16 201.63 45.93C201.669 45.8781 201.69 45.8149 201.69 45.75C201.69 45.63 201.61 45.57 201.45 45.57C201.235 45.6516 201.028 45.752 200.83 45.87L199.53 46.55L197.96 47.35L196.6 48L195.71 48.35C195.39 48.47 195.06 48.61 194.71 48.77C194.666 48.7658 194.624 48.7495 194.589 48.7231C194.554 48.6966 194.526 48.6609 194.51 48.62C194.451 48.5424 194.419 48.4475 194.42 48.35C194.405 48.2798 194.415 48.2066 194.447 48.1428C194.48 48.0789 194.534 48.0285 194.6 48L195.48 47.67C195.743 47.5797 196 47.4729 196.25 47.35C197.23 46.9373 198.188 46.4733 199.12 45.96C200.01 45.46 200.81 44.96 201.52 44.57C202.23 44.18 203.09 43.57 203.83 43.09L204.19 42.94C204.34 42.8805 204.499 42.8499 204.66 42.85C204.97 42.85 205.13 43.07 205.13 43.5C205.078 43.9382 204.893 44.35 204.6 44.68C204.24 45.16 203.84 45.68 203.39 46.13C202.94 46.58 202.53 47.13 202.17 47.55C201.904 47.8276 201.72 48.1739 201.64 48.55C201.635 48.6039 201.64 48.6583 201.655 48.7102C201.671 48.762 201.697 48.8103 201.731 48.8521C201.766 48.894 201.808 48.9286 201.856 48.954C201.904 48.9793 201.956 48.995 202.01 49C202.049 49.0101 202.091 49.0101 202.13 49C202.648 48.8809 203.133 48.6486 203.55 48.32C204.26 47.87 205.07 47.32 205.98 46.75L208.69 45C209.6 44.41 210.35 43.95 210.94 43.64C211.071 43.5191 211.212 43.4088 211.36 43.31C211.589 43.1504 211.826 43.0035 212.07 42.87C212.329 42.7164 212.596 42.5763 212.87 42.45C213.083 42.348 213.314 42.2902 213.55 42.28C213.623 42.2661 213.698 42.2786 213.762 42.3153C213.826 42.352 213.875 42.4104 213.9 42.48C213.946 42.6102 213.964 42.7486 213.954 42.8863C213.943 43.0239 213.905 43.158 213.84 43.28L213.61 43.76C213.49 43.91 213.29 44.19 213.02 44.58C212.725 44.9988 212.458 45.4364 212.22 45.89C211.958 46.3602 211.721 46.8443 211.51 47.34C211.311 47.7562 211.198 48.2088 211.18 48.67C211.168 48.8087 211.184 48.9484 211.229 49.0804C211.273 49.2123 211.345 49.3334 211.439 49.436C211.533 49.5386 211.648 49.6204 211.775 49.6762C211.903 49.732 212.041 49.7605 212.18 49.76C212.273 49.7703 212.367 49.7703 212.46 49.76C212.95 49.7587 213.438 49.6914 213.91 49.56C214.45 49.42 214.98 49.26 215.51 49.08C216.04 48.9 216.51 48.73 216.99 48.55C217.47 48.37 217.79 48.25 217.99 48.17L219.76 47.46C219.988 47.3414 220.226 47.2411 220.47 47.16C220.515 47.1635 220.559 47.1794 220.596 47.2058C220.633 47.2322 220.662 47.2682 220.68 47.31C220.724 47.3768 220.755 47.4515 220.77 47.53Z" fill="#444444" stroke="#434343" stroke-miterlimit="10"/>
<path d="M235.45 47.59C235.454 47.6605 235.44 47.731 235.409 47.7943C235.377 47.8575 235.329 47.9112 235.27 47.95C233.65 48.6166 232.073 49.2066 230.54 49.72C229.23 50.15 227.88 50.55 226.48 50.93C225.336 51.2692 224.153 51.4608 222.96 51.5C222.052 51.5032 221.171 51.1883 220.47 50.61C220.093 50.3081 219.794 49.9196 219.599 49.4773C219.404 49.0351 219.318 48.5523 219.35 48.07C219.392 46.9545 219.784 45.8805 220.47 45C221.24 43.9302 222.167 42.9828 223.22 42.19C224.293 41.3877 225.458 40.7163 226.69 40.19C227.728 39.7041 228.854 39.4353 230 39.4C230.248 39.3893 230.494 39.4482 230.71 39.57C230.939 39.6958 231.124 39.8888 231.24 40.123C231.357 40.3572 231.398 40.6214 231.36 40.88C231.344 41.3104 231.19 41.7243 230.92 42.06C230.622 42.4479 230.287 42.8062 229.92 43.13C229.47 43.4948 228.995 43.8288 228.5 44.13C228.421 44.1392 228.343 44.1594 228.27 44.19C228.021 44.2695 227.761 44.31 227.5 44.31C227.3 44.31 227.2 44.17 227.2 43.89C227.232 43.6351 227.361 43.4024 227.56 43.24C228.004 42.936 228.41 42.5801 228.77 42.18C229.177 41.8343 229.441 41.3495 229.51 40.82C229.51 40.54 229.27 40.4 228.8 40.4C228.058 40.4482 227.337 40.6636 226.69 41.03C225.844 41.4603 225.046 41.98 224.31 42.58C223.561 43.1703 222.907 43.8718 222.37 44.66C221.886 45.3094 221.61 46.0905 221.58 46.9C221.56 47.3241 221.639 47.7471 221.813 48.1346C221.987 48.5221 222.25 48.8631 222.58 49.13C223.387 49.7173 224.375 50.0007 225.37 49.93C226.464 49.9191 227.553 49.7713 228.61 49.49C229.75 49.19 230.81 48.89 231.79 48.57C232.93 48.18 234.06 47.74 235.16 47.27C235.205 47.2735 235.249 47.2893 235.286 47.3158C235.323 47.3422 235.352 47.3782 235.37 47.42C235.405 47.4722 235.432 47.5296 235.45 47.59Z" fill="#444444" stroke="#434343" stroke-miterlimit="10"/>
<path d="M250.01 47.53C250.016 47.6007 250.002 47.6716 249.97 47.735C249.938 47.7985 249.89 47.852 249.83 47.89L247.17 49L245.66 49.63C245.05 49.88 244.39 50.13 243.66 50.37C242.93 50.61 242.25 50.81 241.58 50.99C241.004 51.152 240.409 51.2394 239.81 51.25C239.38 51.2777 238.952 51.1655 238.59 50.93C238.31 50.7295 238.069 50.4786 237.88 50.19C237.717 49.9353 237.599 49.6546 237.53 49.36C237.48 49.1466 237.45 48.929 237.44 48.71C237.427 48.2293 237.53 47.7526 237.74 47.32C237.879 47.0048 238.036 46.6976 238.21 46.4C237.58 46.8 236.98 47.14 236.4 47.4C236.009 47.6128 235.605 47.7999 235.19 47.96C234.91 48.08 234.61 48.19 234.27 48.31C233.93 48.43 233.59 48.57 233.27 48.73C233.225 48.7245 233.183 48.7079 233.146 48.6817C233.109 48.6555 233.08 48.6206 233.06 48.58C233.01 48.4982 232.979 48.4058 232.97 48.31C232.961 48.2553 232.968 48.1993 232.989 48.1481C233.01 48.0969 233.045 48.0526 233.09 48.02L234.01 47.66C234.3 47.54 234.57 47.43 234.81 47.31C235.62 46.9222 236.404 46.4847 237.16 46C237.792 45.6478 238.379 45.2215 238.91 44.73C239.224 44.452 239.476 44.1114 239.65 43.73C239.74 43.4731 239.861 43.228 240.01 43C240.057 42.9169 240.125 42.8479 240.208 42.8004C240.291 42.7529 240.385 42.7285 240.48 42.73C240.742 42.7285 240.998 42.8013 241.22 42.94C241.33 43.0137 241.418 43.1159 241.474 43.2357C241.531 43.3554 241.553 43.4883 241.54 43.62C241.529 43.7896 241.47 43.9525 241.37 44.09L240.95 44.71C240.739 45.0289 240.551 45.3631 240.39 45.71C240.208 46.1032 240.051 46.5073 239.92 46.92C239.78 47.3218 239.709 47.7445 239.71 48.17C239.71 48.3786 239.752 48.585 239.832 48.7773C239.913 48.9696 240.031 49.1439 240.18 49.29C240.383 49.4631 240.618 49.5938 240.873 49.6745C241.127 49.7552 241.394 49.7843 241.66 49.76C242.15 49.7587 242.638 49.6915 243.11 49.56C243.65 49.42 244.18 49.26 244.71 49.08C245.24 48.9 245.71 48.73 246.19 48.55C246.67 48.37 246.99 48.25 247.19 48.17L248.96 47.46C249.188 47.3414 249.426 47.2411 249.67 47.16C249.715 47.1636 249.759 47.1794 249.796 47.2058C249.833 47.2323 249.862 47.2683 249.88 47.31C249.938 47.3735 249.982 47.4484 250.01 47.53ZM246.28 35.87C246.271 36.191 246.189 36.5057 246.04 36.79C245.888 37.1477 245.69 37.4839 245.45 37.79C245.221 38.0742 244.951 38.3235 244.65 38.53C244.381 38.7196 244.059 38.8209 243.73 38.82C243.615 38.8433 243.497 38.8437 243.382 38.8211C243.267 38.7985 243.157 38.7533 243.06 38.6883C242.962 38.6232 242.878 38.5395 242.813 38.442C242.748 38.3445 242.703 38.2351 242.68 38.12C242.67 38.0403 242.67 37.9597 242.68 37.88C242.689 37.559 242.771 37.2443 242.92 36.96C243.076 36.6197 243.274 36.3005 243.51 36.01C243.742 35.7178 244.023 35.4675 244.34 35.27C244.6 35.0913 244.905 34.9906 245.22 34.98C245.336 34.9552 245.455 34.9538 245.571 34.9757C245.688 34.9976 245.798 35.0424 245.897 35.1076C245.996 35.1728 246.08 35.257 246.146 35.3552C246.212 35.4535 246.257 35.5639 246.28 35.68C246.29 35.7597 246.29 35.8403 246.28 35.92V35.87Z" fill="#444444" stroke="#434343" stroke-miterlimit="10"/>
</svg>
