<svg width="20" height="20" viewBox="0 0 20 20" fill="none" xmlns="http://www.w3.org/2000/svg">
<path fill-rule="evenodd" clip-rule="evenodd" d="M15.1471 8.71381C15.1471 12.58 12.1121 15.6276 8.47353 15.6276C4.83496 15.6276 1.8 12.58 1.8 8.71381C1.8 4.84764 4.83496 1.8 8.47353 1.8C12.1121 1.8 15.1471 4.84764 15.1471 8.71381ZM14.0656 15.2608C12.5734 16.6097 10.6164 17.4276 8.47353 17.4276C3.79373 17.4276 0 13.5263 0 8.71381C0 3.90131 3.79373 0 8.47353 0C13.1533 0 16.9471 3.90131 16.9471 8.71381C16.9471 10.6318 16.3445 12.4051 15.3233 13.8444C15.3701 13.8774 15.4145 13.9153 15.4561 13.9581L19.7242 18.3472C20.0919 18.7253 20.0919 19.3383 19.7242 19.7164C19.3565 20.0945 18.7604 20.0945 18.3927 19.7164L14.1246 15.3273C14.1037 15.3059 14.0841 15.2837 14.0656 15.2608Z" fill="#444444"/>
</svg>
